%TF.GenerationSoftware,KiCad,Pcbnew,(6.0.2)*%
%TF.CreationDate,2022-06-15T17:14:16+10:00*%
%TF.ProjectId,RFM95_Serial_Converter_PCB,52464d39-355f-4536-9572-69616c5f436f,rev?*%
%TF.SameCoordinates,Original*%
%TF.FileFunction,Copper,L3,Inr*%
%TF.FilePolarity,Positive*%
%FSLAX46Y46*%
G04 Gerber Fmt 4.6, Leading zero omitted, Abs format (unit mm)*
G04 Created by KiCad (PCBNEW (6.0.2)) date 2022-06-15 17:14:16*
%MOMM*%
%LPD*%
G01*
G04 APERTURE LIST*
%TA.AperFunction,ComponentPad*%
%ADD10C,5.000000*%
%TD*%
%TA.AperFunction,ComponentPad*%
%ADD11R,1.700000X1.700000*%
%TD*%
%TA.AperFunction,ComponentPad*%
%ADD12O,1.700000X1.700000*%
%TD*%
%TA.AperFunction,ComponentPad*%
%ADD13O,1.900000X1.200000*%
%TD*%
%TA.AperFunction,ComponentPad*%
%ADD14C,1.450000*%
%TD*%
%TA.AperFunction,ViaPad*%
%ADD15C,0.800000*%
%TD*%
G04 APERTURE END LIST*
D10*
%TO.N,N/C*%
%TO.C,H3*%
X87630000Y-83820000D03*
%TD*%
D11*
%TO.N,GND*%
%TO.C,J1*%
X72517000Y-44507000D03*
D12*
%TO.N,/Data_Interfaces/SWCLK*%
X75057000Y-44507000D03*
%TO.N,/Data_Interfaces/SWDIO*%
X77597000Y-44507000D03*
%TO.N,+3V3*%
X80137000Y-44507000D03*
%TD*%
D13*
%TO.N,GND*%
%TO.C,J5*%
X88569500Y-67762000D03*
D14*
X85869500Y-66762000D03*
D13*
X88569500Y-60762000D03*
D14*
X85869500Y-61762000D03*
%TD*%
D13*
%TO.N,GND*%
%TO.C,J4*%
X88569500Y-51126000D03*
D14*
X85869500Y-57126000D03*
D13*
X88569500Y-58126000D03*
D14*
X85869500Y-52126000D03*
%TD*%
D10*
%TO.N,N/C*%
%TO.C,H2*%
X87630000Y-43434000D03*
%TD*%
%TO.N,N/C*%
%TO.C,H4*%
X65024000Y-83820000D03*
%TD*%
%TO.N,N/C*%
%TO.C,H1*%
X65024000Y-43434000D03*
%TD*%
D15*
%TO.N,+5V*%
X72789888Y-59028091D03*
%TO.N,+3V3*%
X64516000Y-57912000D03*
X63500000Y-57912000D03*
X69596000Y-59436000D03*
X69596000Y-58420000D03*
X69596000Y-57404000D03*
X69596000Y-56388000D03*
%TO.N,GND*%
X76454000Y-64516000D03*
X75438000Y-64770000D03*
X74168000Y-64516000D03*
X72136000Y-62230000D03*
X62738000Y-62230000D03*
X85852000Y-72136000D03*
%TO.N,+3V3*%
X79998957Y-55567509D03*
X77724000Y-50546000D03*
%TO.N,GND*%
X74168000Y-55118000D03*
X72390000Y-61214000D03*
%TO.N,+3V3*%
X74422000Y-62484000D03*
%TO.N,GND*%
X70125671Y-65384025D03*
%TO.N,+3V3*%
X72644000Y-67818000D03*
X65026683Y-71382540D03*
%TO.N,GND*%
X68834000Y-77216000D03*
%TO.N,+3V3*%
X82804000Y-83820000D03*
%TO.N,GND*%
X82243000Y-63449200D03*
%TO.N,+3V3*%
X83312000Y-62809500D03*
X81280000Y-78740000D03*
X78994000Y-80264000D03*
X73812400Y-80365600D03*
%TO.N,GND*%
X69088000Y-73152000D03*
%TO.N,+3V3*%
X68935902Y-72136000D03*
%TO.N,GND*%
X65278000Y-67056000D03*
X62992000Y-65278000D03*
X63500000Y-72390000D03*
X63500000Y-73406000D03*
X63500000Y-74422000D03*
X63500000Y-75438000D03*
X63500000Y-76454000D03*
X63500000Y-77470000D03*
X63500000Y-78486000D03*
X85344000Y-80264000D03*
X84328000Y-80264000D03*
X83312000Y-80264000D03*
X86614000Y-80264000D03*
X89662000Y-78232000D03*
X89662000Y-77216000D03*
X89749361Y-76215425D03*
X83058000Y-85090000D03*
X83058000Y-86106000D03*
X84074000Y-86106000D03*
X84074000Y-85090000D03*
X84074000Y-84074000D03*
X84074000Y-83058000D03*
X84074000Y-82042000D03*
X73914000Y-85344000D03*
X78486000Y-86106000D03*
X78486000Y-85090000D03*
X78486000Y-84074000D03*
X78486000Y-83058000D03*
X78486000Y-82042000D03*
X70104000Y-85344000D03*
X70104000Y-82296000D03*
X70104000Y-83312000D03*
X70104000Y-84328000D03*
X73914000Y-84328000D03*
X89749500Y-75199425D03*
X89749500Y-74168000D03*
X89749500Y-73166636D03*
X89749500Y-72151425D03*
%TO.N,/Data_Interfaces/SWCLK*%
X80365600Y-64566800D03*
%TO.N,Net-(R1-Pad1)*%
X72065388Y-58293049D03*
%TO.N,/Data_Interfaces/TX_RADIO*%
X79728469Y-68326000D03*
%TO.N,/Data_Interfaces/RX_RADIO*%
X78934534Y-56069900D03*
X81510143Y-53910117D03*
X87900605Y-72543476D03*
%TO.N,/Data_Interfaces/CTS_RADIO*%
X83108800Y-52883502D03*
X79884427Y-52847373D03*
X86414258Y-69634157D03*
%TO.N,/Data_Interfaces/RTS_RADIO*%
X78430670Y-54650142D03*
X82718159Y-53803504D03*
X85385411Y-69810096D03*
%TO.N,/Data_Interfaces/SWDIO*%
X81029966Y-65313542D03*
%TO.N,Net-(R2-Pad2)*%
X74422000Y-68021200D03*
X71475600Y-50546000D03*
%TO.N,Net-(C7-Pad2)*%
X72339200Y-71069200D03*
X70713600Y-49885600D03*
%TO.N,/STM32F405/OSC_IN*%
X63188948Y-68811277D03*
X65957127Y-69628964D03*
%TO.N,/915MHz_Radio/IO5_RF*%
X80643984Y-73558410D03*
%TO.N,/915MHz_Radio/IO3_RF*%
X81529701Y-76915499D03*
%TO.N,/915MHz_Radio/IO4_RF*%
X80413184Y-75806900D03*
%TO.N,/915MHz_Radio/IO2_RF*%
X79563357Y-76333017D03*
%TO.N,/915MHz_Radio/IO1_RF*%
X78551985Y-76346243D03*
%TO.N,/915MHz_Radio/IO0_RF*%
X77553637Y-76298208D03*
%TO.N,/915MHz_Radio/RESET_RF*%
X79075228Y-74533135D03*
%TO.N,/915MHz_Radio/SPI_MOSI*%
X77216000Y-71323200D03*
%TO.N,/915MHz_Radio/SPI_MISO*%
X76384364Y-70768776D03*
%TO.N,/915MHz_Radio/SPI_CLK*%
X75729500Y-71780400D03*
%TO.N,/915MHz_Radio/CS_RF*%
X74500869Y-73781071D03*
%TO.N,/STM32F405/USB2_IN-*%
X78734957Y-68216733D03*
%TO.N,/STM32F405/USB2_IN+*%
X78728300Y-69836700D03*
%TO.N,/Data_Interfaces/USB1_IN_D-*%
X78644395Y-57525931D03*
%TO.N,/Data_Interfaces/USB1_IN_D+*%
X79468836Y-58223874D03*
%TO.N,/Data_Interfaces/USB1_D+*%
X84224138Y-54899238D03*
X84382160Y-56433562D03*
%TO.N,/STM32F405/USB2_IN-*%
X77634094Y-60868500D03*
%TO.N,/STM32F405/USB2_IN+*%
X77614937Y-62334738D03*
%TO.N,/Data_Interfaces/USB2_D-*%
X84187589Y-60474631D03*
X84101419Y-63422544D03*
%TO.N,GND*%
X66531066Y-56862134D03*
X67462400Y-57818867D03*
X67479332Y-55905401D03*
X65582800Y-55910104D03*
X67462400Y-58775600D03*
X68427600Y-57835799D03*
X65582800Y-60689068D03*
X68427600Y-55922333D03*
X68427600Y-59749265D03*
X68427600Y-54954312D03*
X67462400Y-59732333D03*
X66531066Y-55905401D03*
X67462400Y-56862134D03*
X66531066Y-57818867D03*
X65582800Y-58777480D03*
X68427600Y-58792532D03*
X67479332Y-60689068D03*
X66531066Y-58775600D03*
X65582800Y-56865896D03*
X66531066Y-60689068D03*
X67479332Y-54954312D03*
X65582800Y-54954312D03*
X68427600Y-56879066D03*
X65582800Y-57821688D03*
X66531066Y-59732333D03*
X66531066Y-54954312D03*
X65582800Y-59733272D03*
%TD*%
%TA.AperFunction,Conductor*%
%TO.N,+3V3*%
G36*
X86052501Y-40660002D02*
G01*
X86098994Y-40713658D01*
X86109098Y-40783932D01*
X86079604Y-40848512D01*
X86051336Y-40872737D01*
X85884279Y-40977532D01*
X85881443Y-40979804D01*
X85881436Y-40979809D01*
X85637384Y-41175332D01*
X85613509Y-41194459D01*
X85369466Y-41441071D01*
X85367225Y-41443929D01*
X85310732Y-41515978D01*
X85155386Y-41714098D01*
X85153493Y-41717187D01*
X85153491Y-41717190D01*
X85107233Y-41792676D01*
X84974105Y-42009921D01*
X84972580Y-42013206D01*
X84972578Y-42013210D01*
X84933505Y-42097386D01*
X84828027Y-42324620D01*
X84719087Y-42654023D01*
X84648730Y-42993764D01*
X84617888Y-43339341D01*
X84617983Y-43342971D01*
X84617983Y-43342972D01*
X84626685Y-43675277D01*
X84626970Y-43686171D01*
X84675856Y-44029660D01*
X84763897Y-44365253D01*
X84889927Y-44688503D01*
X84891624Y-44691708D01*
X85050094Y-44991006D01*
X85052275Y-44995126D01*
X85054325Y-44998109D01*
X85054327Y-44998112D01*
X85246733Y-45278064D01*
X85246739Y-45278071D01*
X85248790Y-45281056D01*
X85357030Y-45405134D01*
X85419750Y-45477031D01*
X85476866Y-45542505D01*
X85561940Y-45619916D01*
X85689268Y-45735775D01*
X85733481Y-45776006D01*
X86015233Y-45978466D01*
X86318388Y-46147200D01*
X86638928Y-46279972D01*
X86642422Y-46280967D01*
X86642424Y-46280968D01*
X86969103Y-46374025D01*
X86969108Y-46374026D01*
X86972604Y-46375022D01*
X87169304Y-46407233D01*
X87311412Y-46430504D01*
X87311419Y-46430505D01*
X87314993Y-46431090D01*
X87488276Y-46439262D01*
X87657931Y-46447263D01*
X87657932Y-46447263D01*
X87661558Y-46447434D01*
X87670415Y-46446830D01*
X88004073Y-46424084D01*
X88004081Y-46424083D01*
X88007704Y-46423836D01*
X88011279Y-46423173D01*
X88011282Y-46423173D01*
X88345279Y-46361270D01*
X88345283Y-46361269D01*
X88348844Y-46360609D01*
X88680456Y-46258592D01*
X88998145Y-46119136D01*
X89242511Y-45976341D01*
X89294560Y-45945926D01*
X89294562Y-45945925D01*
X89297700Y-45944091D01*
X89398915Y-45868097D01*
X89572244Y-45737958D01*
X89572248Y-45737955D01*
X89575151Y-45735775D01*
X89826819Y-45496950D01*
X90049370Y-45230783D01*
X90060399Y-45213994D01*
X90192688Y-45012601D01*
X90246806Y-44966647D01*
X90317177Y-44957246D01*
X90381460Y-44987383D01*
X90419245Y-45047490D01*
X90424000Y-45081778D01*
X90424000Y-71271221D01*
X90403998Y-71339342D01*
X90350342Y-71385835D01*
X90280068Y-71395939D01*
X90223940Y-71373158D01*
X90211593Y-71364187D01*
X90211590Y-71364185D01*
X90206252Y-71360307D01*
X90200224Y-71357623D01*
X90200222Y-71357622D01*
X90037819Y-71285316D01*
X90037818Y-71285316D01*
X90031788Y-71282631D01*
X89921216Y-71259128D01*
X89851444Y-71244297D01*
X89851439Y-71244297D01*
X89844987Y-71242925D01*
X89654013Y-71242925D01*
X89647561Y-71244297D01*
X89647556Y-71244297D01*
X89577784Y-71259128D01*
X89467212Y-71282631D01*
X89461182Y-71285316D01*
X89461181Y-71285316D01*
X89298778Y-71357622D01*
X89298776Y-71357623D01*
X89292748Y-71360307D01*
X89138247Y-71472559D01*
X89133826Y-71477469D01*
X89133825Y-71477470D01*
X89017967Y-71606144D01*
X89010460Y-71614481D01*
X89007159Y-71620199D01*
X88923879Y-71764444D01*
X88914973Y-71779869D01*
X88855958Y-71961497D01*
X88853782Y-71960790D01*
X88825053Y-72013999D01*
X88762903Y-72048319D01*
X88692064Y-72043590D01*
X88641198Y-72005133D01*
X88639645Y-72006532D01*
X88516280Y-71869521D01*
X88516279Y-71869520D01*
X88511858Y-71864610D01*
X88395953Y-71780400D01*
X88362699Y-71756239D01*
X88362698Y-71756238D01*
X88357357Y-71752358D01*
X88351329Y-71749674D01*
X88351327Y-71749673D01*
X88188924Y-71677367D01*
X88188923Y-71677367D01*
X88182893Y-71674682D01*
X88089493Y-71654829D01*
X88002549Y-71636348D01*
X88002544Y-71636348D01*
X87996092Y-71634976D01*
X87805118Y-71634976D01*
X87798666Y-71636348D01*
X87798661Y-71636348D01*
X87711717Y-71654829D01*
X87618317Y-71674682D01*
X87612287Y-71677367D01*
X87612286Y-71677367D01*
X87449883Y-71749673D01*
X87449881Y-71749674D01*
X87443853Y-71752358D01*
X87438512Y-71756238D01*
X87438511Y-71756239D01*
X87405257Y-71780400D01*
X87289352Y-71864610D01*
X87284931Y-71869520D01*
X87284930Y-71869521D01*
X87200073Y-71963765D01*
X87161565Y-72006532D01*
X87066078Y-72171920D01*
X87007063Y-72353548D01*
X86987101Y-72543476D01*
X86987791Y-72550041D01*
X87002317Y-72688244D01*
X87007063Y-72733404D01*
X87066078Y-72915032D01*
X87161565Y-73080420D01*
X87165983Y-73085327D01*
X87165984Y-73085328D01*
X87278054Y-73209794D01*
X87289352Y-73222342D01*
X87443853Y-73334594D01*
X87449881Y-73337278D01*
X87449883Y-73337279D01*
X87589489Y-73399435D01*
X87618317Y-73412270D01*
X87711718Y-73432123D01*
X87798661Y-73450604D01*
X87798666Y-73450604D01*
X87805118Y-73451976D01*
X87996092Y-73451976D01*
X88002544Y-73450604D01*
X88002549Y-73450604D01*
X88089492Y-73432123D01*
X88182893Y-73412270D01*
X88211721Y-73399435D01*
X88351327Y-73337279D01*
X88351329Y-73337278D01*
X88357357Y-73334594D01*
X88511858Y-73222342D01*
X88538153Y-73193139D01*
X88617993Y-73104467D01*
X88678439Y-73067227D01*
X88749423Y-73068579D01*
X88808407Y-73108092D01*
X88836939Y-73175607D01*
X88855080Y-73348206D01*
X88855958Y-73356564D01*
X88914973Y-73538192D01*
X88918276Y-73543914D01*
X88918277Y-73543915D01*
X88926646Y-73558410D01*
X88949334Y-73597706D01*
X88953151Y-73604318D01*
X88969889Y-73673313D01*
X88953151Y-73730318D01*
X88944156Y-73745898D01*
X88923849Y-73781071D01*
X88914973Y-73796444D01*
X88855958Y-73978072D01*
X88855268Y-73984633D01*
X88855268Y-73984635D01*
X88844232Y-74089636D01*
X88835996Y-74168000D01*
X88836686Y-74174565D01*
X88855101Y-74349770D01*
X88855958Y-74357928D01*
X88914973Y-74539556D01*
X88918276Y-74545278D01*
X88918277Y-74545279D01*
X88961829Y-74620713D01*
X88978567Y-74689708D01*
X88961830Y-74746711D01*
X88914973Y-74827869D01*
X88855958Y-75009497D01*
X88855268Y-75016058D01*
X88855268Y-75016060D01*
X88843499Y-75128034D01*
X88835996Y-75199425D01*
X88855958Y-75389353D01*
X88914973Y-75570981D01*
X88947852Y-75627928D01*
X88957307Y-75644305D01*
X88974045Y-75713300D01*
X88957308Y-75770303D01*
X88914834Y-75843869D01*
X88855819Y-76025497D01*
X88835857Y-76215425D01*
X88836547Y-76221990D01*
X88852487Y-76373647D01*
X88855819Y-76405353D01*
X88914834Y-76586981D01*
X88916038Y-76589066D01*
X88925266Y-76657890D01*
X88909844Y-76701773D01*
X88838378Y-76825556D01*
X88827473Y-76844444D01*
X88768458Y-77026072D01*
X88767768Y-77032633D01*
X88767768Y-77032635D01*
X88749987Y-77201811D01*
X88748496Y-77216000D01*
X88749186Y-77222565D01*
X88755304Y-77280770D01*
X88768458Y-77405928D01*
X88827473Y-77587556D01*
X88830776Y-77593278D01*
X88830777Y-77593279D01*
X88869876Y-77661000D01*
X88886614Y-77729995D01*
X88869876Y-77787000D01*
X88848515Y-77823999D01*
X88827473Y-77860444D01*
X88768458Y-78042072D01*
X88767768Y-78048633D01*
X88767768Y-78048635D01*
X88749186Y-78225435D01*
X88748496Y-78232000D01*
X88768458Y-78421928D01*
X88827473Y-78603556D01*
X88922960Y-78768944D01*
X88927378Y-78773851D01*
X88927379Y-78773852D01*
X89046325Y-78905955D01*
X89050747Y-78910866D01*
X89205248Y-79023118D01*
X89211276Y-79025802D01*
X89211278Y-79025803D01*
X89262551Y-79048631D01*
X89379712Y-79100794D01*
X89473113Y-79120647D01*
X89560056Y-79139128D01*
X89560061Y-79139128D01*
X89566513Y-79140500D01*
X89757487Y-79140500D01*
X89763939Y-79139128D01*
X89763944Y-79139128D01*
X89850887Y-79120647D01*
X89944288Y-79100794D01*
X90061449Y-79048631D01*
X90112722Y-79025803D01*
X90112724Y-79025802D01*
X90118752Y-79023118D01*
X90164568Y-78989831D01*
X90223939Y-78946695D01*
X90290807Y-78922837D01*
X90359958Y-78938917D01*
X90409438Y-78989831D01*
X90424000Y-79048631D01*
X90424000Y-82170834D01*
X90403998Y-82238955D01*
X90350342Y-82285448D01*
X90280068Y-82295552D01*
X90215488Y-82266058D01*
X90188552Y-82233261D01*
X90159212Y-82181823D01*
X90157417Y-82178676D01*
X90151657Y-82170834D01*
X90061841Y-82048565D01*
X89952018Y-81899060D01*
X89715842Y-81644904D01*
X89452019Y-81419578D01*
X89164047Y-81226069D01*
X88855741Y-81066940D01*
X88531189Y-80944302D01*
X88527668Y-80943418D01*
X88527663Y-80943416D01*
X88366378Y-80902904D01*
X88194692Y-80859780D01*
X88172476Y-80856855D01*
X87854315Y-80814968D01*
X87854307Y-80814967D01*
X87850711Y-80814494D01*
X87562157Y-80809961D01*
X87494360Y-80788892D01*
X87448715Y-80734513D01*
X87439717Y-80664089D01*
X87447833Y-80636757D01*
X87448527Y-80635556D01*
X87507542Y-80453928D01*
X87527504Y-80264000D01*
X87507542Y-80074072D01*
X87448527Y-79892444D01*
X87353040Y-79727056D01*
X87225253Y-79585134D01*
X87070752Y-79472882D01*
X87064724Y-79470198D01*
X87064722Y-79470197D01*
X86902319Y-79397891D01*
X86902318Y-79397891D01*
X86896288Y-79395206D01*
X86802888Y-79375353D01*
X86715944Y-79356872D01*
X86715939Y-79356872D01*
X86709487Y-79355500D01*
X86518513Y-79355500D01*
X86512061Y-79356872D01*
X86512056Y-79356872D01*
X86425112Y-79375353D01*
X86331712Y-79395206D01*
X86325682Y-79397891D01*
X86325681Y-79397891D01*
X86163278Y-79470197D01*
X86163276Y-79470198D01*
X86157248Y-79472882D01*
X86053060Y-79548579D01*
X85986194Y-79572437D01*
X85917042Y-79556357D01*
X85904944Y-79548582D01*
X85800752Y-79472882D01*
X85794724Y-79470198D01*
X85794722Y-79470197D01*
X85632319Y-79397891D01*
X85632318Y-79397891D01*
X85626288Y-79395206D01*
X85532888Y-79375353D01*
X85445944Y-79356872D01*
X85445939Y-79356872D01*
X85439487Y-79355500D01*
X85248513Y-79355500D01*
X85242061Y-79356872D01*
X85242056Y-79356872D01*
X85155112Y-79375353D01*
X85061712Y-79395206D01*
X84887248Y-79472882D01*
X84816882Y-79482316D01*
X84784753Y-79472882D01*
X84784752Y-79472882D01*
X84610288Y-79395206D01*
X84516888Y-79375353D01*
X84429944Y-79356872D01*
X84429939Y-79356872D01*
X84423487Y-79355500D01*
X84232513Y-79355500D01*
X84226061Y-79356872D01*
X84226056Y-79356872D01*
X84139112Y-79375353D01*
X84045712Y-79395206D01*
X83871248Y-79472882D01*
X83800882Y-79482316D01*
X83768753Y-79472882D01*
X83768752Y-79472882D01*
X83594288Y-79395206D01*
X83500888Y-79375353D01*
X83413944Y-79356872D01*
X83413939Y-79356872D01*
X83407487Y-79355500D01*
X83216513Y-79355500D01*
X83210061Y-79356872D01*
X83210056Y-79356872D01*
X83123112Y-79375353D01*
X83029712Y-79395206D01*
X83023682Y-79397891D01*
X83023681Y-79397891D01*
X82861278Y-79470197D01*
X82861276Y-79470198D01*
X82855248Y-79472882D01*
X82700747Y-79585134D01*
X82572960Y-79727056D01*
X82477473Y-79892444D01*
X82418458Y-80074072D01*
X82398496Y-80264000D01*
X82418458Y-80453928D01*
X82477473Y-80635556D01*
X82480776Y-80641278D01*
X82480777Y-80641279D01*
X82514686Y-80700010D01*
X82572960Y-80800944D01*
X82577378Y-80805851D01*
X82577379Y-80805852D01*
X82580578Y-80809405D01*
X82700747Y-80942866D01*
X82799843Y-81014864D01*
X82822543Y-81031356D01*
X82855248Y-81055118D01*
X82861276Y-81057802D01*
X82861278Y-81057803D01*
X83000587Y-81119827D01*
X83029712Y-81132794D01*
X83123112Y-81152647D01*
X83210056Y-81171128D01*
X83210061Y-81171128D01*
X83216513Y-81172500D01*
X83351395Y-81172500D01*
X83419516Y-81192502D01*
X83466009Y-81246158D01*
X83476113Y-81316432D01*
X83445032Y-81382808D01*
X83334960Y-81505056D01*
X83331659Y-81510774D01*
X83254219Y-81644904D01*
X83239473Y-81670444D01*
X83180458Y-81852072D01*
X83160496Y-82042000D01*
X83180458Y-82231928D01*
X83239473Y-82413556D01*
X83242776Y-82419278D01*
X83242777Y-82419279D01*
X83281876Y-82487000D01*
X83298614Y-82555995D01*
X83281876Y-82613000D01*
X83239473Y-82686444D01*
X83180458Y-82868072D01*
X83160496Y-83058000D01*
X83161186Y-83064565D01*
X83168633Y-83135415D01*
X83180458Y-83247928D01*
X83239473Y-83429556D01*
X83242776Y-83435278D01*
X83242777Y-83435279D01*
X83281876Y-83503000D01*
X83298614Y-83571995D01*
X83281876Y-83629000D01*
X83239473Y-83702444D01*
X83180458Y-83884072D01*
X83179769Y-83890631D01*
X83179768Y-83890634D01*
X83161056Y-84068671D01*
X83134043Y-84134327D01*
X83075821Y-84174957D01*
X83035746Y-84181500D01*
X82962513Y-84181500D01*
X82956061Y-84182872D01*
X82956056Y-84182872D01*
X82869112Y-84201353D01*
X82775712Y-84221206D01*
X82769682Y-84223891D01*
X82769681Y-84223891D01*
X82607278Y-84296197D01*
X82607276Y-84296198D01*
X82601248Y-84298882D01*
X82595907Y-84302762D01*
X82595906Y-84302763D01*
X82561171Y-84328000D01*
X82446747Y-84411134D01*
X82442326Y-84416044D01*
X82442325Y-84416045D01*
X82344937Y-84524206D01*
X82318960Y-84553056D01*
X82223473Y-84718444D01*
X82164458Y-84900072D01*
X82144496Y-85090000D01*
X82164458Y-85279928D01*
X82223473Y-85461556D01*
X82226776Y-85467278D01*
X82226777Y-85467279D01*
X82265876Y-85535000D01*
X82282614Y-85603995D01*
X82265876Y-85661000D01*
X82223473Y-85734444D01*
X82164458Y-85916072D01*
X82163768Y-85922633D01*
X82163768Y-85922635D01*
X82145186Y-86099435D01*
X82144496Y-86106000D01*
X82145186Y-86112565D01*
X82159894Y-86252500D01*
X82164458Y-86295928D01*
X82166498Y-86302206D01*
X82214215Y-86449064D01*
X82216243Y-86520031D01*
X82179580Y-86580829D01*
X82115868Y-86612155D01*
X82094382Y-86614000D01*
X79449618Y-86614000D01*
X79381497Y-86593998D01*
X79335004Y-86540342D01*
X79324900Y-86470068D01*
X79329785Y-86449064D01*
X79377502Y-86302206D01*
X79379542Y-86295928D01*
X79384107Y-86252500D01*
X79398814Y-86112565D01*
X79399504Y-86106000D01*
X79398814Y-86099435D01*
X79380232Y-85922635D01*
X79380232Y-85922633D01*
X79379542Y-85916072D01*
X79320527Y-85734444D01*
X79278124Y-85661000D01*
X79261386Y-85592005D01*
X79278124Y-85535000D01*
X79317223Y-85467279D01*
X79317224Y-85467278D01*
X79320527Y-85461556D01*
X79379542Y-85279928D01*
X79399504Y-85090000D01*
X79379542Y-84900072D01*
X79320527Y-84718444D01*
X79278124Y-84645000D01*
X79261386Y-84576005D01*
X79278124Y-84519000D01*
X79317223Y-84451279D01*
X79317224Y-84451278D01*
X79320527Y-84445556D01*
X79379542Y-84263928D01*
X79384177Y-84219834D01*
X79398814Y-84080565D01*
X79399504Y-84074000D01*
X79379542Y-83884072D01*
X79320527Y-83702444D01*
X79278124Y-83629000D01*
X79261386Y-83560005D01*
X79278124Y-83503000D01*
X79317223Y-83435279D01*
X79317224Y-83435278D01*
X79320527Y-83429556D01*
X79379542Y-83247928D01*
X79391368Y-83135415D01*
X79398814Y-83064565D01*
X79399504Y-83058000D01*
X79379542Y-82868072D01*
X79320527Y-82686444D01*
X79278124Y-82613000D01*
X79261386Y-82544005D01*
X79278124Y-82487000D01*
X79317223Y-82419279D01*
X79317224Y-82419278D01*
X79320527Y-82413556D01*
X79379542Y-82231928D01*
X79399504Y-82042000D01*
X79379542Y-81852072D01*
X79320527Y-81670444D01*
X79305782Y-81644904D01*
X79228341Y-81510774D01*
X79225040Y-81505056D01*
X79097253Y-81363134D01*
X78942752Y-81250882D01*
X78936724Y-81248198D01*
X78936722Y-81248197D01*
X78774319Y-81175891D01*
X78774318Y-81175891D01*
X78768288Y-81173206D01*
X78674888Y-81153353D01*
X78587944Y-81134872D01*
X78587939Y-81134872D01*
X78581487Y-81133500D01*
X78390513Y-81133500D01*
X78384061Y-81134872D01*
X78384056Y-81134872D01*
X78297112Y-81153353D01*
X78203712Y-81173206D01*
X78197682Y-81175891D01*
X78197681Y-81175891D01*
X78035278Y-81248197D01*
X78035276Y-81248198D01*
X78029248Y-81250882D01*
X77874747Y-81363134D01*
X77746960Y-81505056D01*
X77743659Y-81510774D01*
X77666219Y-81644904D01*
X77651473Y-81670444D01*
X77592458Y-81852072D01*
X77572496Y-82042000D01*
X77592458Y-82231928D01*
X77651473Y-82413556D01*
X77654776Y-82419278D01*
X77654777Y-82419279D01*
X77693876Y-82487000D01*
X77710614Y-82555995D01*
X77693876Y-82613000D01*
X77651473Y-82686444D01*
X77592458Y-82868072D01*
X77572496Y-83058000D01*
X77573186Y-83064565D01*
X77580633Y-83135415D01*
X77592458Y-83247928D01*
X77651473Y-83429556D01*
X77654776Y-83435278D01*
X77654777Y-83435279D01*
X77693876Y-83503000D01*
X77710614Y-83571995D01*
X77693876Y-83629000D01*
X77651473Y-83702444D01*
X77592458Y-83884072D01*
X77572496Y-84074000D01*
X77573186Y-84080565D01*
X77587824Y-84219834D01*
X77592458Y-84263928D01*
X77651473Y-84445556D01*
X77654776Y-84451278D01*
X77654777Y-84451279D01*
X77693876Y-84519000D01*
X77710614Y-84587995D01*
X77693876Y-84645000D01*
X77651473Y-84718444D01*
X77592458Y-84900072D01*
X77572496Y-85090000D01*
X77592458Y-85279928D01*
X77651473Y-85461556D01*
X77654776Y-85467278D01*
X77654777Y-85467279D01*
X77693876Y-85535000D01*
X77710614Y-85603995D01*
X77693876Y-85661000D01*
X77651473Y-85734444D01*
X77592458Y-85916072D01*
X77591768Y-85922633D01*
X77591768Y-85922635D01*
X77573186Y-86099435D01*
X77572496Y-86106000D01*
X77573186Y-86112565D01*
X77587894Y-86252500D01*
X77592458Y-86295928D01*
X77594498Y-86302206D01*
X77642215Y-86449064D01*
X77644243Y-86520031D01*
X77607580Y-86580829D01*
X77543868Y-86612155D01*
X77522382Y-86614000D01*
X66671209Y-86614000D01*
X66603088Y-86593998D01*
X66556595Y-86540342D01*
X66546491Y-86470068D01*
X66575985Y-86405488D01*
X66607639Y-86379212D01*
X66688560Y-86331926D01*
X66688562Y-86331925D01*
X66691700Y-86330091D01*
X66694609Y-86327907D01*
X66966244Y-86123958D01*
X66966248Y-86123955D01*
X66969151Y-86121775D01*
X67220819Y-85882950D01*
X67443370Y-85616783D01*
X67493672Y-85540206D01*
X67598167Y-85381126D01*
X67622554Y-85344000D01*
X69190496Y-85344000D01*
X69210458Y-85533928D01*
X69269473Y-85715556D01*
X69364960Y-85880944D01*
X69369378Y-85885851D01*
X69369379Y-85885852D01*
X69407784Y-85928505D01*
X69492747Y-86022866D01*
X69591843Y-86094864D01*
X69631888Y-86123958D01*
X69647248Y-86135118D01*
X69653276Y-86137802D01*
X69653278Y-86137803D01*
X69815681Y-86210109D01*
X69821712Y-86212794D01*
X69915113Y-86232647D01*
X70002056Y-86251128D01*
X70002061Y-86251128D01*
X70008513Y-86252500D01*
X70199487Y-86252500D01*
X70205939Y-86251128D01*
X70205944Y-86251128D01*
X70292887Y-86232647D01*
X70386288Y-86212794D01*
X70392319Y-86210109D01*
X70554722Y-86137803D01*
X70554724Y-86137802D01*
X70560752Y-86135118D01*
X70576113Y-86123958D01*
X70616157Y-86094864D01*
X70715253Y-86022866D01*
X70800216Y-85928505D01*
X70838621Y-85885852D01*
X70838622Y-85885851D01*
X70843040Y-85880944D01*
X70938527Y-85715556D01*
X70997542Y-85533928D01*
X71017504Y-85344000D01*
X73000496Y-85344000D01*
X73020458Y-85533928D01*
X73079473Y-85715556D01*
X73174960Y-85880944D01*
X73179378Y-85885851D01*
X73179379Y-85885852D01*
X73217784Y-85928505D01*
X73302747Y-86022866D01*
X73401843Y-86094864D01*
X73441888Y-86123958D01*
X73457248Y-86135118D01*
X73463276Y-86137802D01*
X73463278Y-86137803D01*
X73625681Y-86210109D01*
X73631712Y-86212794D01*
X73725113Y-86232647D01*
X73812056Y-86251128D01*
X73812061Y-86251128D01*
X73818513Y-86252500D01*
X74009487Y-86252500D01*
X74015939Y-86251128D01*
X74015944Y-86251128D01*
X74102887Y-86232647D01*
X74196288Y-86212794D01*
X74202319Y-86210109D01*
X74364722Y-86137803D01*
X74364724Y-86137802D01*
X74370752Y-86135118D01*
X74386113Y-86123958D01*
X74426157Y-86094864D01*
X74525253Y-86022866D01*
X74610216Y-85928505D01*
X74648621Y-85885852D01*
X74648622Y-85885851D01*
X74653040Y-85880944D01*
X74748527Y-85715556D01*
X74807542Y-85533928D01*
X74827504Y-85344000D01*
X74820770Y-85279928D01*
X74808232Y-85160635D01*
X74808232Y-85160633D01*
X74807542Y-85154072D01*
X74748527Y-84972444D01*
X74722474Y-84927318D01*
X74706124Y-84899000D01*
X74689386Y-84830005D01*
X74706124Y-84773000D01*
X74745223Y-84705279D01*
X74745224Y-84705278D01*
X74748527Y-84699556D01*
X74807542Y-84517928D01*
X74819175Y-84407251D01*
X74826814Y-84334565D01*
X74827504Y-84328000D01*
X74816280Y-84221206D01*
X74808232Y-84144635D01*
X74808232Y-84144633D01*
X74807542Y-84138072D01*
X74748527Y-83956444D01*
X74653040Y-83791056D01*
X74573254Y-83702444D01*
X74529675Y-83654045D01*
X74529674Y-83654044D01*
X74525253Y-83649134D01*
X74370752Y-83536882D01*
X74364724Y-83534198D01*
X74364722Y-83534197D01*
X74202319Y-83461891D01*
X74202318Y-83461891D01*
X74196288Y-83459206D01*
X74083721Y-83435279D01*
X74015944Y-83420872D01*
X74015939Y-83420872D01*
X74009487Y-83419500D01*
X73818513Y-83419500D01*
X73812061Y-83420872D01*
X73812056Y-83420872D01*
X73744279Y-83435279D01*
X73631712Y-83459206D01*
X73625682Y-83461891D01*
X73625681Y-83461891D01*
X73463278Y-83534197D01*
X73463276Y-83534198D01*
X73457248Y-83536882D01*
X73302747Y-83649134D01*
X73298326Y-83654044D01*
X73298325Y-83654045D01*
X73254747Y-83702444D01*
X73174960Y-83791056D01*
X73079473Y-83956444D01*
X73020458Y-84138072D01*
X73019768Y-84144633D01*
X73019768Y-84144635D01*
X73011720Y-84221206D01*
X73000496Y-84328000D01*
X73001186Y-84334565D01*
X73008826Y-84407251D01*
X73020458Y-84517928D01*
X73079473Y-84699556D01*
X73082776Y-84705278D01*
X73082777Y-84705279D01*
X73121876Y-84773000D01*
X73138614Y-84841995D01*
X73121876Y-84899000D01*
X73105527Y-84927318D01*
X73079473Y-84972444D01*
X73020458Y-85154072D01*
X73019768Y-85160633D01*
X73019768Y-85160635D01*
X73007230Y-85279928D01*
X73000496Y-85344000D01*
X71017504Y-85344000D01*
X71010770Y-85279928D01*
X70998232Y-85160635D01*
X70998232Y-85160633D01*
X70997542Y-85154072D01*
X70938527Y-84972444D01*
X70912474Y-84927318D01*
X70896124Y-84899000D01*
X70879386Y-84830005D01*
X70896124Y-84773000D01*
X70935223Y-84705279D01*
X70935224Y-84705278D01*
X70938527Y-84699556D01*
X70997542Y-84517928D01*
X71009175Y-84407251D01*
X71016814Y-84334565D01*
X71017504Y-84328000D01*
X71006280Y-84221206D01*
X70998232Y-84144635D01*
X70998232Y-84144633D01*
X70997542Y-84138072D01*
X70938527Y-83956444D01*
X70896124Y-83883000D01*
X70879386Y-83814005D01*
X70896124Y-83757000D01*
X70935223Y-83689279D01*
X70935224Y-83689278D01*
X70938527Y-83683556D01*
X70997542Y-83501928D01*
X71002177Y-83457834D01*
X71016814Y-83318565D01*
X71017504Y-83312000D01*
X71010080Y-83241365D01*
X70998232Y-83128635D01*
X70998232Y-83128633D01*
X70997542Y-83122072D01*
X70938527Y-82940444D01*
X70896124Y-82867000D01*
X70879386Y-82798005D01*
X70896124Y-82741000D01*
X70935223Y-82673279D01*
X70935224Y-82673278D01*
X70938527Y-82667556D01*
X70997542Y-82485928D01*
X71017504Y-82296000D01*
X70997542Y-82106072D01*
X70938527Y-81924444D01*
X70843040Y-81759056D01*
X70763254Y-81670444D01*
X70719675Y-81622045D01*
X70719674Y-81622044D01*
X70715253Y-81617134D01*
X70560752Y-81504882D01*
X70554724Y-81502198D01*
X70554722Y-81502197D01*
X70392319Y-81429891D01*
X70392318Y-81429891D01*
X70386288Y-81427206D01*
X70292888Y-81407353D01*
X70205944Y-81388872D01*
X70205939Y-81388872D01*
X70199487Y-81387500D01*
X70008513Y-81387500D01*
X70002061Y-81388872D01*
X70002056Y-81388872D01*
X69915112Y-81407353D01*
X69821712Y-81427206D01*
X69815682Y-81429891D01*
X69815681Y-81429891D01*
X69653278Y-81502197D01*
X69653276Y-81502198D01*
X69647248Y-81504882D01*
X69492747Y-81617134D01*
X69488326Y-81622044D01*
X69488325Y-81622045D01*
X69444747Y-81670444D01*
X69364960Y-81759056D01*
X69269473Y-81924444D01*
X69210458Y-82106072D01*
X69190496Y-82296000D01*
X69210458Y-82485928D01*
X69269473Y-82667556D01*
X69272776Y-82673278D01*
X69272777Y-82673279D01*
X69311876Y-82741000D01*
X69328614Y-82809995D01*
X69311876Y-82867000D01*
X69269473Y-82940444D01*
X69210458Y-83122072D01*
X69209768Y-83128633D01*
X69209768Y-83128635D01*
X69197920Y-83241365D01*
X69190496Y-83312000D01*
X69191186Y-83318565D01*
X69205824Y-83457834D01*
X69210458Y-83501928D01*
X69269473Y-83683556D01*
X69272776Y-83689278D01*
X69272777Y-83689279D01*
X69311876Y-83757000D01*
X69328614Y-83825995D01*
X69311876Y-83883000D01*
X69269473Y-83956444D01*
X69210458Y-84138072D01*
X69209768Y-84144633D01*
X69209768Y-84144635D01*
X69201720Y-84221206D01*
X69190496Y-84328000D01*
X69191186Y-84334565D01*
X69198826Y-84407251D01*
X69210458Y-84517928D01*
X69269473Y-84699556D01*
X69272776Y-84705278D01*
X69272777Y-84705279D01*
X69311876Y-84773000D01*
X69328614Y-84841995D01*
X69311876Y-84899000D01*
X69295527Y-84927318D01*
X69269473Y-84972444D01*
X69210458Y-85154072D01*
X69209768Y-85160633D01*
X69209768Y-85160635D01*
X69197230Y-85279928D01*
X69190496Y-85344000D01*
X67622554Y-85344000D01*
X67633853Y-85326799D01*
X67749649Y-85096565D01*
X67788117Y-85020080D01*
X67788120Y-85020072D01*
X67789744Y-85016844D01*
X67805992Y-84972444D01*
X67907729Y-84694437D01*
X67907730Y-84694433D01*
X67908977Y-84691026D01*
X67909822Y-84687504D01*
X67909825Y-84687496D01*
X67989124Y-84357191D01*
X67989125Y-84357187D01*
X67989971Y-84353662D01*
X67992282Y-84334565D01*
X68031316Y-84012004D01*
X68031316Y-84011997D01*
X68031652Y-84009225D01*
X68037599Y-83820000D01*
X68037438Y-83817204D01*
X68017836Y-83477246D01*
X68017835Y-83477241D01*
X68017627Y-83473626D01*
X68004805Y-83400160D01*
X67958600Y-83135415D01*
X67958598Y-83135408D01*
X67957976Y-83131842D01*
X67953223Y-83115794D01*
X67899586Y-82934721D01*
X67859437Y-82799180D01*
X67723316Y-82480048D01*
X67620390Y-82299598D01*
X67553208Y-82181816D01*
X67551417Y-82178676D01*
X67545657Y-82170834D01*
X67455841Y-82048565D01*
X67346018Y-81899060D01*
X67109842Y-81644904D01*
X66846019Y-81419578D01*
X66558047Y-81226069D01*
X66249741Y-81066940D01*
X65925189Y-80944302D01*
X65921668Y-80943418D01*
X65921663Y-80943416D01*
X65760378Y-80902904D01*
X65588692Y-80859780D01*
X65566476Y-80856855D01*
X65248315Y-80814968D01*
X65248307Y-80814967D01*
X65244711Y-80814494D01*
X65100045Y-80812221D01*
X64901446Y-80809101D01*
X64901442Y-80809101D01*
X64897804Y-80809044D01*
X64894190Y-80809405D01*
X64894184Y-80809405D01*
X64650843Y-80833694D01*
X64552569Y-80843503D01*
X64314465Y-80895418D01*
X64217812Y-80916492D01*
X64213583Y-80917414D01*
X64210156Y-80918587D01*
X64210150Y-80918589D01*
X64032475Y-80979421D01*
X63885339Y-81029797D01*
X63572188Y-81179163D01*
X63278279Y-81363532D01*
X63275443Y-81365804D01*
X63275436Y-81365809D01*
X63094490Y-81510774D01*
X63007509Y-81580459D01*
X62763466Y-81827071D01*
X62761225Y-81829929D01*
X62594941Y-82042000D01*
X62549386Y-82100098D01*
X62547493Y-82103187D01*
X62547491Y-82103190D01*
X62463433Y-82240360D01*
X62410785Y-82287991D01*
X62340743Y-82299598D01*
X62275546Y-82271495D01*
X62235892Y-82212604D01*
X62230000Y-82174525D01*
X62230000Y-78486000D01*
X62586496Y-78486000D01*
X62606458Y-78675928D01*
X62665473Y-78857556D01*
X62760960Y-79022944D01*
X62765378Y-79027851D01*
X62765379Y-79027852D01*
X62828639Y-79098109D01*
X62888747Y-79164866D01*
X63043248Y-79277118D01*
X63049276Y-79279802D01*
X63049278Y-79279803D01*
X63211681Y-79352109D01*
X63217712Y-79354794D01*
X63311113Y-79374647D01*
X63398056Y-79393128D01*
X63398061Y-79393128D01*
X63404513Y-79394500D01*
X63595487Y-79394500D01*
X63601939Y-79393128D01*
X63601944Y-79393128D01*
X63688887Y-79374647D01*
X63782288Y-79354794D01*
X63788319Y-79352109D01*
X63950722Y-79279803D01*
X63950724Y-79279802D01*
X63956752Y-79277118D01*
X64111253Y-79164866D01*
X64171361Y-79098109D01*
X64234621Y-79027852D01*
X64234622Y-79027851D01*
X64239040Y-79022944D01*
X64334527Y-78857556D01*
X64393542Y-78675928D01*
X64413504Y-78486000D01*
X64393542Y-78296072D01*
X64334527Y-78114444D01*
X64292124Y-78041000D01*
X64275386Y-77972005D01*
X64292124Y-77915000D01*
X64331223Y-77847279D01*
X64331224Y-77847278D01*
X64334527Y-77841556D01*
X64393542Y-77659928D01*
X64413504Y-77470000D01*
X64406080Y-77399365D01*
X64394232Y-77286635D01*
X64394232Y-77286633D01*
X64393542Y-77280072D01*
X64372724Y-77216000D01*
X67920496Y-77216000D01*
X67921186Y-77222565D01*
X67927304Y-77280770D01*
X67940458Y-77405928D01*
X67999473Y-77587556D01*
X68094960Y-77752944D01*
X68099378Y-77757851D01*
X68099379Y-77757852D01*
X68186600Y-77854721D01*
X68222747Y-77894866D01*
X68377248Y-78007118D01*
X68383276Y-78009802D01*
X68383278Y-78009803D01*
X68455756Y-78042072D01*
X68551712Y-78084794D01*
X68645113Y-78104647D01*
X68732056Y-78123128D01*
X68732061Y-78123128D01*
X68738513Y-78124500D01*
X68929487Y-78124500D01*
X68935939Y-78123128D01*
X68935944Y-78123128D01*
X69022887Y-78104647D01*
X69116288Y-78084794D01*
X69212244Y-78042072D01*
X69284722Y-78009803D01*
X69284724Y-78009802D01*
X69290752Y-78007118D01*
X69445253Y-77894866D01*
X69481400Y-77854721D01*
X69568621Y-77757852D01*
X69568622Y-77757851D01*
X69573040Y-77752944D01*
X69668527Y-77587556D01*
X69727542Y-77405928D01*
X69740697Y-77280770D01*
X69746814Y-77222565D01*
X69747504Y-77216000D01*
X69746013Y-77201811D01*
X69728232Y-77032635D01*
X69728232Y-77032633D01*
X69727542Y-77026072D01*
X69668527Y-76844444D01*
X69573040Y-76679056D01*
X69564674Y-76669764D01*
X69449675Y-76542045D01*
X69449674Y-76542044D01*
X69445253Y-76537134D01*
X69330829Y-76454000D01*
X69296094Y-76428763D01*
X69296093Y-76428762D01*
X69290752Y-76424882D01*
X69284724Y-76422198D01*
X69284722Y-76422197D01*
X69122319Y-76349891D01*
X69122318Y-76349891D01*
X69116288Y-76347206D01*
X69022888Y-76327353D01*
X68935944Y-76308872D01*
X68935939Y-76308872D01*
X68929487Y-76307500D01*
X68738513Y-76307500D01*
X68732061Y-76308872D01*
X68732056Y-76308872D01*
X68645112Y-76327353D01*
X68551712Y-76347206D01*
X68545682Y-76349891D01*
X68545681Y-76349891D01*
X68383278Y-76422197D01*
X68383276Y-76422198D01*
X68377248Y-76424882D01*
X68371907Y-76428762D01*
X68371906Y-76428763D01*
X68337171Y-76454000D01*
X68222747Y-76537134D01*
X68218326Y-76542044D01*
X68218325Y-76542045D01*
X68103327Y-76669764D01*
X68094960Y-76679056D01*
X67999473Y-76844444D01*
X67940458Y-77026072D01*
X67939768Y-77032633D01*
X67939768Y-77032635D01*
X67921987Y-77201811D01*
X67920496Y-77216000D01*
X64372724Y-77216000D01*
X64334527Y-77098444D01*
X64325335Y-77082522D01*
X64292124Y-77025000D01*
X64275386Y-76956005D01*
X64292124Y-76899000D01*
X64331223Y-76831279D01*
X64331224Y-76831278D01*
X64334527Y-76825556D01*
X64393542Y-76643928D01*
X64400188Y-76580700D01*
X64412814Y-76460565D01*
X64413504Y-76454000D01*
X64407701Y-76398790D01*
X64397130Y-76298208D01*
X76640133Y-76298208D01*
X76640823Y-76304773D01*
X76653165Y-76422197D01*
X76660095Y-76488136D01*
X76719110Y-76669764D01*
X76814597Y-76835152D01*
X76819015Y-76840059D01*
X76819016Y-76840060D01*
X76881031Y-76908935D01*
X76942384Y-76977074D01*
X77096885Y-77089326D01*
X77102913Y-77092010D01*
X77102915Y-77092011D01*
X77265318Y-77164317D01*
X77271349Y-77167002D01*
X77364750Y-77186855D01*
X77451693Y-77205336D01*
X77451698Y-77205336D01*
X77458150Y-77206708D01*
X77649124Y-77206708D01*
X77655576Y-77205336D01*
X77655581Y-77205336D01*
X77742524Y-77186855D01*
X77835925Y-77167002D01*
X77896470Y-77140046D01*
X77955545Y-77113744D01*
X78025912Y-77104310D01*
X78080854Y-77126914D01*
X78089892Y-77133481D01*
X78089895Y-77133483D01*
X78095233Y-77137361D01*
X78101261Y-77140045D01*
X78101263Y-77140046D01*
X78263666Y-77212352D01*
X78269697Y-77215037D01*
X78363098Y-77234890D01*
X78450041Y-77253371D01*
X78450046Y-77253371D01*
X78456498Y-77254743D01*
X78647472Y-77254743D01*
X78653924Y-77253371D01*
X78653929Y-77253371D01*
X78740872Y-77234890D01*
X78834273Y-77215037D01*
X78840304Y-77212352D01*
X79002705Y-77140047D01*
X79002708Y-77140045D01*
X79008737Y-77137361D01*
X79009806Y-77136585D01*
X79076895Y-77120307D01*
X79122151Y-77131057D01*
X79281069Y-77201811D01*
X79347823Y-77216000D01*
X79461413Y-77240145D01*
X79461418Y-77240145D01*
X79467870Y-77241517D01*
X79658844Y-77241517D01*
X79665296Y-77240145D01*
X79665301Y-77240145D01*
X79778891Y-77216000D01*
X79845645Y-77201811D01*
X79851676Y-77199126D01*
X80014079Y-77126820D01*
X80014081Y-77126819D01*
X80020109Y-77124135D01*
X80037218Y-77111705D01*
X80146047Y-77032635D01*
X80174610Y-77011883D01*
X80255483Y-76922064D01*
X80297978Y-76874869D01*
X80297979Y-76874868D01*
X80302397Y-76869961D01*
X80339759Y-76805249D01*
X80355260Y-76778400D01*
X80406643Y-76729407D01*
X80464379Y-76715400D01*
X80497291Y-76715400D01*
X80565412Y-76735402D01*
X80611905Y-76789058D01*
X80622601Y-76854570D01*
X80616197Y-76915499D01*
X80616887Y-76922064D01*
X80635084Y-77095195D01*
X80636159Y-77105427D01*
X80695174Y-77287055D01*
X80790661Y-77452443D01*
X80795079Y-77457350D01*
X80795080Y-77457351D01*
X80906658Y-77581271D01*
X80918448Y-77594365D01*
X81072949Y-77706617D01*
X81078977Y-77709301D01*
X81078979Y-77709302D01*
X81188025Y-77757852D01*
X81247413Y-77784293D01*
X81340813Y-77804146D01*
X81427757Y-77822627D01*
X81427762Y-77822627D01*
X81434214Y-77823999D01*
X81625188Y-77823999D01*
X81631640Y-77822627D01*
X81631645Y-77822627D01*
X81718589Y-77804146D01*
X81811989Y-77784293D01*
X81871377Y-77757852D01*
X81980423Y-77709302D01*
X81980425Y-77709301D01*
X81986453Y-77706617D01*
X82140954Y-77594365D01*
X82152744Y-77581271D01*
X82264322Y-77457351D01*
X82264323Y-77457350D01*
X82268741Y-77452443D01*
X82364228Y-77287055D01*
X82423243Y-77105427D01*
X82424319Y-77095195D01*
X82442515Y-76922064D01*
X82443205Y-76915499D01*
X82436801Y-76854571D01*
X82423933Y-76732134D01*
X82423933Y-76732132D01*
X82423243Y-76725571D01*
X82364228Y-76543943D01*
X82268741Y-76378555D01*
X82202308Y-76304773D01*
X82145376Y-76241544D01*
X82145375Y-76241543D01*
X82140954Y-76236633D01*
X81986453Y-76124381D01*
X81980425Y-76121697D01*
X81980423Y-76121696D01*
X81818020Y-76049390D01*
X81818019Y-76049390D01*
X81811989Y-76046705D01*
X81712214Y-76025497D01*
X81631645Y-76008371D01*
X81631640Y-76008371D01*
X81625188Y-76006999D01*
X81445594Y-76006999D01*
X81377473Y-75986997D01*
X81330980Y-75933341D01*
X81320284Y-75867828D01*
X81325998Y-75813464D01*
X81326688Y-75806900D01*
X81322842Y-75770306D01*
X81307416Y-75623535D01*
X81307416Y-75623533D01*
X81306726Y-75616972D01*
X81247711Y-75435344D01*
X81152224Y-75269956D01*
X81106413Y-75219077D01*
X81028859Y-75132945D01*
X81028858Y-75132944D01*
X81024437Y-75128034D01*
X80869936Y-75015782D01*
X80863908Y-75013098D01*
X80863906Y-75013097D01*
X80701503Y-74940791D01*
X80701502Y-74940791D01*
X80695472Y-74938106D01*
X80602072Y-74918253D01*
X80515128Y-74899772D01*
X80515123Y-74899772D01*
X80508671Y-74898400D01*
X80317697Y-74898400D01*
X80311245Y-74899772D01*
X80311240Y-74899772D01*
X80224296Y-74918253D01*
X80130896Y-74938106D01*
X80124866Y-74940791D01*
X80124865Y-74940791D01*
X80118192Y-74943762D01*
X80047824Y-74953195D01*
X79983528Y-74923087D01*
X79945716Y-74862997D01*
X79947112Y-74789719D01*
X79968770Y-74723063D01*
X79988732Y-74533135D01*
X79981009Y-74459656D01*
X79993781Y-74389818D01*
X80042283Y-74337972D01*
X80111116Y-74320577D01*
X80175814Y-74342969D01*
X80176173Y-74342346D01*
X80179403Y-74344211D01*
X80180377Y-74344548D01*
X80181252Y-74345183D01*
X80187232Y-74349528D01*
X80193260Y-74352212D01*
X80193262Y-74352213D01*
X80355665Y-74424519D01*
X80361696Y-74427204D01*
X80455096Y-74447057D01*
X80542040Y-74465538D01*
X80542045Y-74465538D01*
X80548497Y-74466910D01*
X80739471Y-74466910D01*
X80745923Y-74465538D01*
X80745928Y-74465538D01*
X80832872Y-74447057D01*
X80926272Y-74427204D01*
X80932303Y-74424519D01*
X81094706Y-74352213D01*
X81094708Y-74352212D01*
X81100736Y-74349528D01*
X81106081Y-74345645D01*
X81156141Y-74309274D01*
X81255237Y-74237276D01*
X81259923Y-74232072D01*
X81378605Y-74100262D01*
X81378606Y-74100261D01*
X81383024Y-74095354D01*
X81458610Y-73964436D01*
X81475207Y-73935689D01*
X81475208Y-73935688D01*
X81478511Y-73929966D01*
X81537526Y-73748338D01*
X81543769Y-73688944D01*
X81556798Y-73564975D01*
X81556798Y-73564974D01*
X81557488Y-73558410D01*
X81553164Y-73517271D01*
X81538216Y-73375045D01*
X81538216Y-73375043D01*
X81537526Y-73368482D01*
X81478511Y-73186854D01*
X81466839Y-73166636D01*
X81396323Y-73044500D01*
X81383024Y-73021466D01*
X81368013Y-73004794D01*
X81259659Y-72884455D01*
X81259658Y-72884454D01*
X81255237Y-72879544D01*
X81100736Y-72767292D01*
X81094708Y-72764608D01*
X81094706Y-72764607D01*
X80932303Y-72692301D01*
X80932302Y-72692301D01*
X80926272Y-72689616D01*
X80820936Y-72667226D01*
X80745928Y-72651282D01*
X80745923Y-72651282D01*
X80739471Y-72649910D01*
X80548497Y-72649910D01*
X80542045Y-72651282D01*
X80542040Y-72651282D01*
X80467032Y-72667226D01*
X80361696Y-72689616D01*
X80355666Y-72692301D01*
X80355665Y-72692301D01*
X80193262Y-72764607D01*
X80193260Y-72764608D01*
X80187232Y-72767292D01*
X80032731Y-72879544D01*
X80028310Y-72884454D01*
X80028309Y-72884455D01*
X79919956Y-73004794D01*
X79904944Y-73021466D01*
X79891645Y-73044500D01*
X79821130Y-73166636D01*
X79809457Y-73186854D01*
X79750442Y-73368482D01*
X79749752Y-73375043D01*
X79749752Y-73375045D01*
X79734804Y-73517271D01*
X79730480Y-73558410D01*
X79737441Y-73624635D01*
X79738203Y-73631888D01*
X79725431Y-73701727D01*
X79676929Y-73753573D01*
X79608096Y-73770968D01*
X79543398Y-73748576D01*
X79543039Y-73749199D01*
X79539809Y-73747334D01*
X79538835Y-73746997D01*
X79537324Y-73745900D01*
X79531980Y-73742017D01*
X79525952Y-73739333D01*
X79525950Y-73739332D01*
X79363547Y-73667026D01*
X79363546Y-73667026D01*
X79357516Y-73664341D01*
X79264115Y-73644488D01*
X79177172Y-73626007D01*
X79177167Y-73626007D01*
X79170715Y-73624635D01*
X78979741Y-73624635D01*
X78973289Y-73626007D01*
X78973284Y-73626007D01*
X78886341Y-73644488D01*
X78792940Y-73664341D01*
X78786910Y-73667026D01*
X78786909Y-73667026D01*
X78624506Y-73739332D01*
X78624504Y-73739333D01*
X78618476Y-73742017D01*
X78613135Y-73745897D01*
X78613134Y-73745898D01*
X78578211Y-73771271D01*
X78463975Y-73854269D01*
X78459554Y-73859179D01*
X78459553Y-73859180D01*
X78353468Y-73977000D01*
X78336188Y-73996191D01*
X78240701Y-74161579D01*
X78181686Y-74343207D01*
X78180996Y-74349768D01*
X78180996Y-74349770D01*
X78173140Y-74424519D01*
X78161724Y-74533135D01*
X78181686Y-74723063D01*
X78240701Y-74904691D01*
X78336188Y-75070079D01*
X78340606Y-75074986D01*
X78340607Y-75074987D01*
X78458563Y-75205990D01*
X78463975Y-75212001D01*
X78472349Y-75218085D01*
X78473714Y-75219077D01*
X78517066Y-75275300D01*
X78523140Y-75346037D01*
X78490006Y-75408827D01*
X78425847Y-75444258D01*
X78424403Y-75444565D01*
X78269697Y-75477449D01*
X78263667Y-75480134D01*
X78263666Y-75480134D01*
X78150077Y-75530707D01*
X78079710Y-75540141D01*
X78024768Y-75517537D01*
X78015730Y-75510970D01*
X78015727Y-75510968D01*
X78010389Y-75507090D01*
X78004361Y-75504406D01*
X78004359Y-75504405D01*
X77841956Y-75432099D01*
X77841955Y-75432099D01*
X77835925Y-75429414D01*
X77739071Y-75408827D01*
X77655581Y-75391080D01*
X77655576Y-75391080D01*
X77649124Y-75389708D01*
X77458150Y-75389708D01*
X77451698Y-75391080D01*
X77451693Y-75391080D01*
X77368203Y-75408827D01*
X77271349Y-75429414D01*
X77265319Y-75432099D01*
X77265318Y-75432099D01*
X77102915Y-75504405D01*
X77102913Y-75504406D01*
X77096885Y-75507090D01*
X76942384Y-75619342D01*
X76814597Y-75761264D01*
X76770206Y-75838151D01*
X76744313Y-75883000D01*
X76719110Y-75926652D01*
X76660095Y-76108280D01*
X76659405Y-76114841D01*
X76659405Y-76114843D01*
X76644381Y-76257794D01*
X76640133Y-76298208D01*
X64397130Y-76298208D01*
X64394232Y-76270635D01*
X64394232Y-76270633D01*
X64393542Y-76264072D01*
X64334527Y-76082444D01*
X64292124Y-76009000D01*
X64275386Y-75940005D01*
X64292124Y-75883000D01*
X64331223Y-75815279D01*
X64331224Y-75815278D01*
X64334527Y-75809556D01*
X64393542Y-75627928D01*
X64394445Y-75619342D01*
X64412814Y-75444565D01*
X64413504Y-75438000D01*
X64407701Y-75382790D01*
X64394232Y-75254635D01*
X64394232Y-75254633D01*
X64393542Y-75248072D01*
X64334527Y-75066444D01*
X64292124Y-74993000D01*
X64275386Y-74924005D01*
X64292124Y-74867000D01*
X64331223Y-74799279D01*
X64331224Y-74799278D01*
X64334527Y-74793556D01*
X64393542Y-74611928D01*
X64397437Y-74574874D01*
X64412814Y-74428565D01*
X64413504Y-74422000D01*
X64393542Y-74232072D01*
X64334527Y-74050444D01*
X64292124Y-73977000D01*
X64275386Y-73908005D01*
X64292124Y-73851000D01*
X64292479Y-73850386D01*
X64334527Y-73777556D01*
X64393542Y-73595928D01*
X64396796Y-73564974D01*
X64412814Y-73412565D01*
X64413504Y-73406000D01*
X64393542Y-73216072D01*
X64372724Y-73152000D01*
X68174496Y-73152000D01*
X68194458Y-73341928D01*
X68253473Y-73523556D01*
X68348960Y-73688944D01*
X68353378Y-73693851D01*
X68353379Y-73693852D01*
X68440600Y-73790721D01*
X68476747Y-73830866D01*
X68631248Y-73943118D01*
X68637276Y-73945802D01*
X68637278Y-73945803D01*
X68750452Y-73996191D01*
X68805712Y-74020794D01*
X68899113Y-74040647D01*
X68986056Y-74059128D01*
X68986061Y-74059128D01*
X68992513Y-74060500D01*
X69183487Y-74060500D01*
X69189939Y-74059128D01*
X69189944Y-74059128D01*
X69276887Y-74040647D01*
X69370288Y-74020794D01*
X69425548Y-73996191D01*
X69538722Y-73945803D01*
X69538724Y-73945802D01*
X69544752Y-73943118D01*
X69699253Y-73830866D01*
X69735400Y-73790721D01*
X69744089Y-73781071D01*
X73587365Y-73781071D01*
X73588055Y-73787636D01*
X73604397Y-73943118D01*
X73607327Y-73970999D01*
X73666342Y-74152627D01*
X73669645Y-74158349D01*
X73669646Y-74158350D01*
X73679008Y-74174565D01*
X73761829Y-74318015D01*
X73766247Y-74322922D01*
X73766248Y-74322923D01*
X73861378Y-74428576D01*
X73889616Y-74459937D01*
X74044117Y-74572189D01*
X74050145Y-74574873D01*
X74050147Y-74574874D01*
X74147473Y-74618206D01*
X74218581Y-74649865D01*
X74311982Y-74669718D01*
X74398925Y-74688199D01*
X74398930Y-74688199D01*
X74405382Y-74689571D01*
X74596356Y-74689571D01*
X74602808Y-74688199D01*
X74602813Y-74688199D01*
X74689756Y-74669718D01*
X74783157Y-74649865D01*
X74854265Y-74618206D01*
X74951591Y-74574874D01*
X74951593Y-74574873D01*
X74957621Y-74572189D01*
X75112122Y-74459937D01*
X75140360Y-74428576D01*
X75235490Y-74322923D01*
X75235491Y-74322922D01*
X75239909Y-74318015D01*
X75322730Y-74174565D01*
X75332092Y-74158350D01*
X75332093Y-74158349D01*
X75335396Y-74152627D01*
X75394411Y-73970999D01*
X75397342Y-73943118D01*
X75413683Y-73787636D01*
X75414373Y-73781071D01*
X75401960Y-73662969D01*
X75395101Y-73597706D01*
X75395101Y-73597704D01*
X75394411Y-73591143D01*
X75335396Y-73409515D01*
X75239909Y-73244127D01*
X75208996Y-73209794D01*
X75116544Y-73107116D01*
X75116543Y-73107115D01*
X75112122Y-73102205D01*
X75000995Y-73021466D01*
X74962963Y-72993834D01*
X74962962Y-72993833D01*
X74957621Y-72989953D01*
X74951593Y-72987269D01*
X74951591Y-72987268D01*
X74789188Y-72914962D01*
X74789187Y-72914962D01*
X74783157Y-72912277D01*
X74652266Y-72884455D01*
X74602813Y-72873943D01*
X74602808Y-72873943D01*
X74596356Y-72872571D01*
X74405382Y-72872571D01*
X74398930Y-72873943D01*
X74398925Y-72873943D01*
X74349472Y-72884455D01*
X74218581Y-72912277D01*
X74212551Y-72914962D01*
X74212550Y-72914962D01*
X74050147Y-72987268D01*
X74050145Y-72987269D01*
X74044117Y-72989953D01*
X74038776Y-72993833D01*
X74038775Y-72993834D01*
X74000743Y-73021466D01*
X73889616Y-73102205D01*
X73885195Y-73107115D01*
X73885194Y-73107116D01*
X73792743Y-73209794D01*
X73761829Y-73244127D01*
X73666342Y-73409515D01*
X73607327Y-73591143D01*
X73606637Y-73597704D01*
X73606637Y-73597706D01*
X73599778Y-73662969D01*
X73587365Y-73781071D01*
X69744089Y-73781071D01*
X69822621Y-73693852D01*
X69822622Y-73693851D01*
X69827040Y-73688944D01*
X69922527Y-73523556D01*
X69981542Y-73341928D01*
X70001504Y-73152000D01*
X69992594Y-73067227D01*
X69982232Y-72968635D01*
X69982232Y-72968633D01*
X69981542Y-72962072D01*
X69922527Y-72780444D01*
X69917175Y-72771173D01*
X69885314Y-72715990D01*
X69827040Y-72615056D01*
X69801064Y-72586206D01*
X69703675Y-72478045D01*
X69703674Y-72478044D01*
X69699253Y-72473134D01*
X69584829Y-72390000D01*
X69550094Y-72364763D01*
X69550093Y-72364762D01*
X69544752Y-72360882D01*
X69538724Y-72358198D01*
X69538722Y-72358197D01*
X69376319Y-72285891D01*
X69376318Y-72285891D01*
X69370288Y-72283206D01*
X69276887Y-72263353D01*
X69189944Y-72244872D01*
X69189939Y-72244872D01*
X69183487Y-72243500D01*
X68992513Y-72243500D01*
X68986061Y-72244872D01*
X68986056Y-72244872D01*
X68899113Y-72263353D01*
X68805712Y-72283206D01*
X68799682Y-72285891D01*
X68799681Y-72285891D01*
X68637278Y-72358197D01*
X68637276Y-72358198D01*
X68631248Y-72360882D01*
X68625907Y-72364762D01*
X68625906Y-72364763D01*
X68591171Y-72390000D01*
X68476747Y-72473134D01*
X68472326Y-72478044D01*
X68472325Y-72478045D01*
X68374937Y-72586206D01*
X68348960Y-72615056D01*
X68290686Y-72715990D01*
X68258826Y-72771173D01*
X68253473Y-72780444D01*
X68194458Y-72962072D01*
X68193768Y-72968633D01*
X68193768Y-72968635D01*
X68183406Y-73067227D01*
X68174496Y-73152000D01*
X64372724Y-73152000D01*
X64334527Y-73034444D01*
X64330336Y-73027184D01*
X64292124Y-72961000D01*
X64275386Y-72892005D01*
X64292124Y-72835000D01*
X64331223Y-72767279D01*
X64331224Y-72767278D01*
X64334527Y-72761556D01*
X64393542Y-72579928D01*
X64405175Y-72469251D01*
X64412814Y-72396565D01*
X64413504Y-72390000D01*
X64406770Y-72325928D01*
X64394232Y-72206635D01*
X64394232Y-72206633D01*
X64393542Y-72200072D01*
X64334527Y-72018444D01*
X64239040Y-71853056D01*
X64179532Y-71786965D01*
X64115675Y-71716045D01*
X64115674Y-71716044D01*
X64111253Y-71711134D01*
X63971467Y-71609573D01*
X63962094Y-71602763D01*
X63962093Y-71602762D01*
X63956752Y-71598882D01*
X63950724Y-71596198D01*
X63950722Y-71596197D01*
X63788319Y-71523891D01*
X63788318Y-71523891D01*
X63782288Y-71521206D01*
X63688887Y-71501353D01*
X63601944Y-71482872D01*
X63601939Y-71482872D01*
X63595487Y-71481500D01*
X63404513Y-71481500D01*
X63398061Y-71482872D01*
X63398056Y-71482872D01*
X63311113Y-71501353D01*
X63217712Y-71521206D01*
X63211682Y-71523891D01*
X63211681Y-71523891D01*
X63049278Y-71596197D01*
X63049276Y-71596198D01*
X63043248Y-71598882D01*
X63037907Y-71602762D01*
X63037906Y-71602763D01*
X63028533Y-71609573D01*
X62888747Y-71711134D01*
X62884326Y-71716044D01*
X62884325Y-71716045D01*
X62820469Y-71786965D01*
X62760960Y-71853056D01*
X62665473Y-72018444D01*
X62606458Y-72200072D01*
X62605768Y-72206633D01*
X62605768Y-72206635D01*
X62593230Y-72325928D01*
X62586496Y-72390000D01*
X62587186Y-72396565D01*
X62594826Y-72469251D01*
X62606458Y-72579928D01*
X62665473Y-72761556D01*
X62668776Y-72767278D01*
X62668777Y-72767279D01*
X62707876Y-72835000D01*
X62724614Y-72903995D01*
X62707876Y-72961000D01*
X62669665Y-73027184D01*
X62665473Y-73034444D01*
X62606458Y-73216072D01*
X62586496Y-73406000D01*
X62587186Y-73412565D01*
X62603205Y-73564974D01*
X62606458Y-73595928D01*
X62665473Y-73777556D01*
X62707522Y-73850386D01*
X62707876Y-73851000D01*
X62724614Y-73919995D01*
X62707876Y-73977000D01*
X62665473Y-74050444D01*
X62606458Y-74232072D01*
X62586496Y-74422000D01*
X62587186Y-74428565D01*
X62602564Y-74574874D01*
X62606458Y-74611928D01*
X62665473Y-74793556D01*
X62668776Y-74799278D01*
X62668777Y-74799279D01*
X62707876Y-74867000D01*
X62724614Y-74935995D01*
X62707876Y-74993000D01*
X62665473Y-75066444D01*
X62606458Y-75248072D01*
X62605768Y-75254633D01*
X62605768Y-75254635D01*
X62592299Y-75382790D01*
X62586496Y-75438000D01*
X62587186Y-75444565D01*
X62605556Y-75619342D01*
X62606458Y-75627928D01*
X62665473Y-75809556D01*
X62668776Y-75815278D01*
X62668777Y-75815279D01*
X62707876Y-75883000D01*
X62724614Y-75951995D01*
X62707876Y-76009000D01*
X62665473Y-76082444D01*
X62606458Y-76264072D01*
X62605768Y-76270633D01*
X62605768Y-76270635D01*
X62592299Y-76398790D01*
X62586496Y-76454000D01*
X62587186Y-76460565D01*
X62599813Y-76580700D01*
X62606458Y-76643928D01*
X62665473Y-76825556D01*
X62668776Y-76831278D01*
X62668777Y-76831279D01*
X62707876Y-76899000D01*
X62724614Y-76967995D01*
X62707876Y-77025000D01*
X62674666Y-77082522D01*
X62665473Y-77098444D01*
X62606458Y-77280072D01*
X62605768Y-77286633D01*
X62605768Y-77286635D01*
X62593920Y-77399365D01*
X62586496Y-77470000D01*
X62606458Y-77659928D01*
X62665473Y-77841556D01*
X62668776Y-77847278D01*
X62668777Y-77847279D01*
X62707876Y-77915000D01*
X62724614Y-77983995D01*
X62707876Y-78041000D01*
X62665473Y-78114444D01*
X62606458Y-78296072D01*
X62586496Y-78486000D01*
X62230000Y-78486000D01*
X62230000Y-71069200D01*
X71425696Y-71069200D01*
X71445658Y-71259128D01*
X71504673Y-71440756D01*
X71507976Y-71446478D01*
X71507977Y-71446479D01*
X71525870Y-71477470D01*
X71600160Y-71606144D01*
X71604578Y-71611051D01*
X71604579Y-71611052D01*
X71691197Y-71707251D01*
X71727947Y-71748066D01*
X71781487Y-71786965D01*
X71872453Y-71853056D01*
X71882448Y-71860318D01*
X71888476Y-71863002D01*
X71888478Y-71863003D01*
X71903118Y-71869521D01*
X72056912Y-71937994D01*
X72150313Y-71957847D01*
X72237256Y-71976328D01*
X72237261Y-71976328D01*
X72243713Y-71977700D01*
X72434687Y-71977700D01*
X72441139Y-71976328D01*
X72441144Y-71976328D01*
X72528087Y-71957847D01*
X72621488Y-71937994D01*
X72775282Y-71869521D01*
X72789922Y-71863003D01*
X72789924Y-71863002D01*
X72795952Y-71860318D01*
X72805948Y-71853056D01*
X72896913Y-71786965D01*
X72905949Y-71780400D01*
X74815996Y-71780400D01*
X74816686Y-71786965D01*
X74834956Y-71960790D01*
X74835958Y-71970328D01*
X74894973Y-72151956D01*
X74990460Y-72317344D01*
X74994878Y-72322251D01*
X74994879Y-72322252D01*
X75055880Y-72390000D01*
X75118247Y-72459266D01*
X75137335Y-72473134D01*
X75243188Y-72550041D01*
X75272748Y-72571518D01*
X75278776Y-72574202D01*
X75278778Y-72574203D01*
X75370536Y-72615056D01*
X75447212Y-72649194D01*
X75540612Y-72669047D01*
X75627556Y-72687528D01*
X75627561Y-72687528D01*
X75634013Y-72688900D01*
X75824987Y-72688900D01*
X75831439Y-72687528D01*
X75831444Y-72687528D01*
X75918388Y-72669047D01*
X76011788Y-72649194D01*
X76088464Y-72615056D01*
X76180222Y-72574203D01*
X76180224Y-72574202D01*
X76186252Y-72571518D01*
X76215813Y-72550041D01*
X76321665Y-72473134D01*
X76340753Y-72459266D01*
X76403120Y-72390000D01*
X76464121Y-72322252D01*
X76464122Y-72322251D01*
X76468540Y-72317344D01*
X76564027Y-72151956D01*
X76565183Y-72152623D01*
X76606522Y-72103984D01*
X76674449Y-72083333D01*
X76742758Y-72102683D01*
X76749709Y-72107388D01*
X76753428Y-72110090D01*
X76759248Y-72114318D01*
X76765276Y-72117002D01*
X76765278Y-72117003D01*
X76902741Y-72178205D01*
X76933712Y-72191994D01*
X77027113Y-72211847D01*
X77114056Y-72230328D01*
X77114061Y-72230328D01*
X77120513Y-72231700D01*
X77311487Y-72231700D01*
X77317939Y-72230328D01*
X77317944Y-72230328D01*
X77404887Y-72211847D01*
X77498288Y-72191994D01*
X77529259Y-72178205D01*
X77624054Y-72136000D01*
X84938496Y-72136000D01*
X84939186Y-72142565D01*
X84953824Y-72281834D01*
X84958458Y-72325928D01*
X85017473Y-72507556D01*
X85020776Y-72513278D01*
X85020777Y-72513279D01*
X85034421Y-72536911D01*
X85112960Y-72672944D01*
X85117378Y-72677851D01*
X85117379Y-72677852D01*
X85236325Y-72809955D01*
X85240747Y-72814866D01*
X85268459Y-72835000D01*
X85369963Y-72908747D01*
X85395248Y-72927118D01*
X85401276Y-72929802D01*
X85401278Y-72929803D01*
X85536378Y-72989953D01*
X85569712Y-73004794D01*
X85663112Y-73024647D01*
X85750056Y-73043128D01*
X85750061Y-73043128D01*
X85756513Y-73044500D01*
X85947487Y-73044500D01*
X85953939Y-73043128D01*
X85953944Y-73043128D01*
X86040888Y-73024647D01*
X86134288Y-73004794D01*
X86167622Y-72989953D01*
X86302722Y-72929803D01*
X86302724Y-72929802D01*
X86308752Y-72927118D01*
X86334038Y-72908747D01*
X86435541Y-72835000D01*
X86463253Y-72814866D01*
X86467675Y-72809955D01*
X86586621Y-72677852D01*
X86586622Y-72677851D01*
X86591040Y-72672944D01*
X86669579Y-72536911D01*
X86683223Y-72513279D01*
X86683224Y-72513278D01*
X86686527Y-72507556D01*
X86745542Y-72325928D01*
X86750177Y-72281834D01*
X86764814Y-72142565D01*
X86765504Y-72136000D01*
X86759969Y-72083333D01*
X86746232Y-71952635D01*
X86746232Y-71952633D01*
X86745542Y-71946072D01*
X86686527Y-71764444D01*
X86591040Y-71599056D01*
X86473646Y-71468676D01*
X86467675Y-71462045D01*
X86467674Y-71462044D01*
X86463253Y-71457134D01*
X86364157Y-71385136D01*
X86314094Y-71348763D01*
X86314093Y-71348762D01*
X86308752Y-71344882D01*
X86302724Y-71342198D01*
X86302722Y-71342197D01*
X86140319Y-71269891D01*
X86140318Y-71269891D01*
X86134288Y-71267206D01*
X86040887Y-71247353D01*
X85953944Y-71228872D01*
X85953939Y-71228872D01*
X85947487Y-71227500D01*
X85756513Y-71227500D01*
X85750061Y-71228872D01*
X85750056Y-71228872D01*
X85663113Y-71247353D01*
X85569712Y-71267206D01*
X85563682Y-71269891D01*
X85563681Y-71269891D01*
X85401278Y-71342197D01*
X85401276Y-71342198D01*
X85395248Y-71344882D01*
X85389907Y-71348762D01*
X85389906Y-71348763D01*
X85339843Y-71385136D01*
X85240747Y-71457134D01*
X85236326Y-71462044D01*
X85236325Y-71462045D01*
X85230355Y-71468676D01*
X85112960Y-71599056D01*
X85017473Y-71764444D01*
X84958458Y-71946072D01*
X84957768Y-71952633D01*
X84957768Y-71952635D01*
X84944031Y-72083333D01*
X84938496Y-72136000D01*
X77624054Y-72136000D01*
X77666722Y-72117003D01*
X77666724Y-72117002D01*
X77672752Y-72114318D01*
X77682291Y-72107388D01*
X77796060Y-72024729D01*
X77827253Y-72002066D01*
X77861739Y-71963765D01*
X77950621Y-71865052D01*
X77950622Y-71865051D01*
X77955040Y-71860144D01*
X78050527Y-71694756D01*
X78109542Y-71513128D01*
X78129504Y-71323200D01*
X78109542Y-71133272D01*
X78050527Y-70951644D01*
X77955040Y-70786256D01*
X77892884Y-70717224D01*
X77831675Y-70649245D01*
X77831674Y-70649244D01*
X77827253Y-70644334D01*
X77680160Y-70537464D01*
X77678094Y-70535963D01*
X77678093Y-70535962D01*
X77672752Y-70532082D01*
X77666724Y-70529398D01*
X77666722Y-70529397D01*
X77504319Y-70457091D01*
X77504318Y-70457091D01*
X77498288Y-70454406D01*
X77404887Y-70434553D01*
X77317944Y-70416072D01*
X77317939Y-70416072D01*
X77311487Y-70414700D01*
X77301729Y-70414700D01*
X77299970Y-70414184D01*
X77298318Y-70414010D01*
X77298350Y-70413708D01*
X77233608Y-70394698D01*
X77192610Y-70351700D01*
X77167444Y-70308112D01*
X77123404Y-70231832D01*
X76995617Y-70089910D01*
X76841116Y-69977658D01*
X76835088Y-69974974D01*
X76835086Y-69974973D01*
X76672683Y-69902667D01*
X76672682Y-69902667D01*
X76666652Y-69899982D01*
X76573251Y-69880129D01*
X76486308Y-69861648D01*
X76486303Y-69861648D01*
X76479851Y-69860276D01*
X76288877Y-69860276D01*
X76282425Y-69861648D01*
X76282420Y-69861648D01*
X76195477Y-69880129D01*
X76102076Y-69899982D01*
X76096046Y-69902667D01*
X76096045Y-69902667D01*
X75933642Y-69974973D01*
X75933640Y-69974974D01*
X75927612Y-69977658D01*
X75773111Y-70089910D01*
X75645324Y-70231832D01*
X75601284Y-70308112D01*
X75553813Y-70390334D01*
X75549837Y-70397220D01*
X75490822Y-70578848D01*
X75470860Y-70768776D01*
X75472182Y-70781348D01*
X75474575Y-70804119D01*
X75461803Y-70873957D01*
X75413302Y-70925804D01*
X75400514Y-70932397D01*
X75278778Y-70986597D01*
X75278776Y-70986598D01*
X75272748Y-70989282D01*
X75118247Y-71101534D01*
X74990460Y-71243456D01*
X74894973Y-71408844D01*
X74835958Y-71590472D01*
X74835268Y-71597033D01*
X74835268Y-71597035D01*
X74831280Y-71634976D01*
X74815996Y-71780400D01*
X72905949Y-71780400D01*
X72950453Y-71748066D01*
X72987203Y-71707251D01*
X73073821Y-71611052D01*
X73073822Y-71611051D01*
X73078240Y-71606144D01*
X73152530Y-71477470D01*
X73170423Y-71446479D01*
X73170424Y-71446478D01*
X73173727Y-71440756D01*
X73232742Y-71259128D01*
X73252704Y-71069200D01*
X73237633Y-70925804D01*
X73233432Y-70885835D01*
X73233432Y-70885833D01*
X73232742Y-70879272D01*
X73173727Y-70697644D01*
X73163692Y-70680262D01*
X73081541Y-70537974D01*
X73078240Y-70532256D01*
X73058791Y-70510655D01*
X72954875Y-70395245D01*
X72954874Y-70395244D01*
X72950453Y-70390334D01*
X72837285Y-70308112D01*
X72801294Y-70281963D01*
X72801293Y-70281962D01*
X72795952Y-70278082D01*
X72789924Y-70275398D01*
X72789922Y-70275397D01*
X72627519Y-70203091D01*
X72627518Y-70203091D01*
X72621488Y-70200406D01*
X72506710Y-70176009D01*
X72441144Y-70162072D01*
X72441139Y-70162072D01*
X72434687Y-70160700D01*
X72243713Y-70160700D01*
X72237261Y-70162072D01*
X72237256Y-70162072D01*
X72171690Y-70176009D01*
X72056912Y-70200406D01*
X72050882Y-70203091D01*
X72050881Y-70203091D01*
X71888478Y-70275397D01*
X71888476Y-70275398D01*
X71882448Y-70278082D01*
X71877107Y-70281962D01*
X71877106Y-70281963D01*
X71841115Y-70308112D01*
X71727947Y-70390334D01*
X71723526Y-70395244D01*
X71723525Y-70395245D01*
X71619610Y-70510655D01*
X71600160Y-70532256D01*
X71596859Y-70537974D01*
X71514709Y-70680262D01*
X71504673Y-70697644D01*
X71445658Y-70879272D01*
X71444968Y-70885833D01*
X71444968Y-70885835D01*
X71440767Y-70925804D01*
X71425696Y-71069200D01*
X62230000Y-71069200D01*
X62230000Y-69432157D01*
X62250002Y-69364036D01*
X62303658Y-69317543D01*
X62373932Y-69307439D01*
X62438512Y-69336933D01*
X62449344Y-69348729D01*
X62449908Y-69348221D01*
X62536891Y-69444825D01*
X62577695Y-69490143D01*
X62732196Y-69602395D01*
X62738224Y-69605079D01*
X62738226Y-69605080D01*
X62900629Y-69677386D01*
X62906660Y-69680071D01*
X63000061Y-69699924D01*
X63087004Y-69718405D01*
X63087009Y-69718405D01*
X63093461Y-69719777D01*
X63284435Y-69719777D01*
X63290887Y-69718405D01*
X63290892Y-69718405D01*
X63377835Y-69699924D01*
X63471236Y-69680071D01*
X63477267Y-69677386D01*
X63586025Y-69628964D01*
X65043623Y-69628964D01*
X65044313Y-69635529D01*
X65062661Y-69810096D01*
X65063585Y-69818892D01*
X65122600Y-70000520D01*
X65218087Y-70165908D01*
X65345874Y-70307830D01*
X65353022Y-70313023D01*
X65494856Y-70416072D01*
X65500375Y-70420082D01*
X65506403Y-70422766D01*
X65506405Y-70422767D01*
X65663804Y-70492845D01*
X65674839Y-70497758D01*
X65758619Y-70515566D01*
X65855183Y-70536092D01*
X65855188Y-70536092D01*
X65861640Y-70537464D01*
X66052614Y-70537464D01*
X66059066Y-70536092D01*
X66059071Y-70536092D01*
X66155635Y-70515566D01*
X66239415Y-70497758D01*
X66250450Y-70492845D01*
X66407849Y-70422767D01*
X66407851Y-70422766D01*
X66413879Y-70420082D01*
X66419399Y-70416072D01*
X66561232Y-70313023D01*
X66568380Y-70307830D01*
X66696167Y-70165908D01*
X66791654Y-70000520D01*
X66844883Y-69836700D01*
X77814796Y-69836700D01*
X77815486Y-69843265D01*
X77832622Y-70006302D01*
X77834758Y-70026628D01*
X77893773Y-70208256D01*
X77989260Y-70373644D01*
X77993678Y-70378551D01*
X77993679Y-70378552D01*
X78102248Y-70499130D01*
X78117047Y-70515566D01*
X78271548Y-70627818D01*
X78277576Y-70630502D01*
X78277578Y-70630503D01*
X78439981Y-70702809D01*
X78446012Y-70705494D01*
X78539412Y-70725347D01*
X78626356Y-70743828D01*
X78626361Y-70743828D01*
X78632813Y-70745200D01*
X78823787Y-70745200D01*
X78830239Y-70743828D01*
X78830244Y-70743828D01*
X78917188Y-70725347D01*
X79010588Y-70705494D01*
X79016619Y-70702809D01*
X79179022Y-70630503D01*
X79179024Y-70630502D01*
X79185052Y-70627818D01*
X79339553Y-70515566D01*
X79354352Y-70499130D01*
X79462921Y-70378552D01*
X79462922Y-70378551D01*
X79467340Y-70373644D01*
X79562827Y-70208256D01*
X79621842Y-70026628D01*
X79623979Y-70006302D01*
X79641114Y-69843265D01*
X79641804Y-69836700D01*
X79639008Y-69810096D01*
X84471907Y-69810096D01*
X84491869Y-70000024D01*
X84550884Y-70181652D01*
X84554187Y-70187374D01*
X84554188Y-70187375D01*
X84561712Y-70200406D01*
X84646371Y-70347040D01*
X84650789Y-70351947D01*
X84650790Y-70351948D01*
X84741808Y-70453034D01*
X84774158Y-70488962D01*
X84928659Y-70601214D01*
X84934687Y-70603898D01*
X84934689Y-70603899D01*
X85097092Y-70676205D01*
X85103123Y-70678890D01*
X85191353Y-70697644D01*
X85283467Y-70717224D01*
X85283472Y-70717224D01*
X85289924Y-70718596D01*
X85480898Y-70718596D01*
X85487350Y-70717224D01*
X85487355Y-70717224D01*
X85579469Y-70697644D01*
X85667699Y-70678890D01*
X85673730Y-70676205D01*
X85836133Y-70603899D01*
X85836135Y-70603898D01*
X85842163Y-70601214D01*
X85881588Y-70572570D01*
X85977284Y-70503043D01*
X86044152Y-70479184D01*
X86102594Y-70489872D01*
X86114276Y-70495073D01*
X86131970Y-70502951D01*
X86191319Y-70515566D01*
X86312314Y-70541285D01*
X86312319Y-70541285D01*
X86318771Y-70542657D01*
X86509745Y-70542657D01*
X86516197Y-70541285D01*
X86516202Y-70541285D01*
X86637197Y-70515566D01*
X86696546Y-70502951D01*
X86702577Y-70500266D01*
X86864980Y-70427960D01*
X86864982Y-70427959D01*
X86871010Y-70425275D01*
X86886276Y-70414184D01*
X86949944Y-70367926D01*
X87025511Y-70313023D01*
X87153298Y-70171101D01*
X87248785Y-70005713D01*
X87307800Y-69824085D01*
X87327762Y-69634157D01*
X87307800Y-69444229D01*
X87248785Y-69262601D01*
X87237772Y-69243525D01*
X87191133Y-69162745D01*
X87153298Y-69097213D01*
X87086350Y-69022859D01*
X87029933Y-68960202D01*
X87029932Y-68960201D01*
X87025511Y-68955291D01*
X86908432Y-68870228D01*
X86876352Y-68846920D01*
X86876351Y-68846919D01*
X86871010Y-68843039D01*
X86864982Y-68840355D01*
X86864980Y-68840354D01*
X86702577Y-68768048D01*
X86702576Y-68768048D01*
X86696546Y-68765363D01*
X86603145Y-68745510D01*
X86516202Y-68727029D01*
X86516197Y-68727029D01*
X86509745Y-68725657D01*
X86318771Y-68725657D01*
X86312319Y-68727029D01*
X86312314Y-68727029D01*
X86225371Y-68745510D01*
X86131970Y-68765363D01*
X86125940Y-68768048D01*
X86125939Y-68768048D01*
X85963536Y-68840354D01*
X85963534Y-68840355D01*
X85957506Y-68843039D01*
X85952165Y-68846919D01*
X85952164Y-68846920D01*
X85822385Y-68941210D01*
X85755517Y-68965069D01*
X85697075Y-68954381D01*
X85673730Y-68943987D01*
X85673729Y-68943987D01*
X85667699Y-68941302D01*
X85574299Y-68921449D01*
X85487355Y-68902968D01*
X85487350Y-68902968D01*
X85480898Y-68901596D01*
X85289924Y-68901596D01*
X85283472Y-68902968D01*
X85283467Y-68902968D01*
X85196523Y-68921449D01*
X85103123Y-68941302D01*
X85097093Y-68943987D01*
X85097092Y-68943987D01*
X84934689Y-69016293D01*
X84934687Y-69016294D01*
X84928659Y-69018978D01*
X84923318Y-69022858D01*
X84923317Y-69022859D01*
X84892042Y-69045582D01*
X84774158Y-69131230D01*
X84769737Y-69136140D01*
X84769736Y-69136141D01*
X84727695Y-69182833D01*
X84646371Y-69273152D01*
X84550884Y-69438540D01*
X84491869Y-69620168D01*
X84491179Y-69626729D01*
X84491179Y-69626731D01*
X84489709Y-69640722D01*
X84471907Y-69810096D01*
X79639008Y-69810096D01*
X79621842Y-69646772D01*
X79562827Y-69465144D01*
X79538784Y-69423500D01*
X79522046Y-69354504D01*
X79545267Y-69287413D01*
X79601074Y-69243525D01*
X79647903Y-69234500D01*
X79823956Y-69234500D01*
X79830408Y-69233128D01*
X79830413Y-69233128D01*
X79917356Y-69214647D01*
X80010757Y-69194794D01*
X80037622Y-69182833D01*
X80179191Y-69119803D01*
X80179193Y-69119802D01*
X80185221Y-69117118D01*
X80339722Y-69004866D01*
X80354631Y-68988308D01*
X80463090Y-68867852D01*
X80463091Y-68867851D01*
X80467509Y-68862944D01*
X80562996Y-68697556D01*
X80622011Y-68515928D01*
X80632812Y-68413167D01*
X80641283Y-68332565D01*
X80641973Y-68326000D01*
X80630714Y-68218877D01*
X80622701Y-68142635D01*
X80622701Y-68142633D01*
X80622011Y-68136072D01*
X80562996Y-67954444D01*
X80557641Y-67945168D01*
X80501031Y-67847118D01*
X80467509Y-67789056D01*
X80422213Y-67738749D01*
X80344144Y-67652045D01*
X80344143Y-67652044D01*
X80339722Y-67647134D01*
X80185221Y-67534882D01*
X80179193Y-67532198D01*
X80179191Y-67532197D01*
X80016788Y-67459891D01*
X80016787Y-67459891D01*
X80010757Y-67457206D01*
X79891731Y-67431906D01*
X79830413Y-67418872D01*
X79830408Y-67418872D01*
X79823956Y-67417500D01*
X79632982Y-67417500D01*
X79626530Y-67418872D01*
X79626525Y-67418872D01*
X79565207Y-67431906D01*
X79446181Y-67457206D01*
X79440154Y-67459889D01*
X79440146Y-67459892D01*
X79381814Y-67485863D01*
X79311447Y-67495297D01*
X79256505Y-67472692D01*
X79197051Y-67429496D01*
X79197050Y-67429495D01*
X79191709Y-67425615D01*
X79185681Y-67422931D01*
X79185679Y-67422930D01*
X79023276Y-67350624D01*
X79023275Y-67350624D01*
X79017245Y-67347939D01*
X78923844Y-67328086D01*
X78836901Y-67309605D01*
X78836896Y-67309605D01*
X78830444Y-67308233D01*
X78639470Y-67308233D01*
X78633018Y-67309605D01*
X78633013Y-67309605D01*
X78546070Y-67328086D01*
X78452669Y-67347939D01*
X78446639Y-67350624D01*
X78446638Y-67350624D01*
X78284235Y-67422930D01*
X78284233Y-67422931D01*
X78278205Y-67425615D01*
X78123704Y-67537867D01*
X78119283Y-67542777D01*
X78119282Y-67542778D01*
X78017401Y-67655929D01*
X77995917Y-67679789D01*
X77979858Y-67707604D01*
X77905354Y-67836649D01*
X77900430Y-67845177D01*
X77841415Y-68026805D01*
X77840725Y-68033366D01*
X77840725Y-68033368D01*
X77830569Y-68129996D01*
X77821453Y-68216733D01*
X77822143Y-68223298D01*
X77839954Y-68392756D01*
X77841415Y-68406661D01*
X77900430Y-68588289D01*
X77995917Y-68753677D01*
X78000335Y-68758584D01*
X78000336Y-68758585D01*
X78100848Y-68870215D01*
X78123704Y-68895599D01*
X78129046Y-68899480D01*
X78129048Y-68899482D01*
X78160540Y-68922362D01*
X78203894Y-68978584D01*
X78209969Y-69049321D01*
X78176837Y-69112112D01*
X78160544Y-69126232D01*
X78117047Y-69157834D01*
X78112626Y-69162744D01*
X78112625Y-69162745D01*
X78000374Y-69287413D01*
X77989260Y-69299756D01*
X77893773Y-69465144D01*
X77834758Y-69646772D01*
X77814796Y-69836700D01*
X66844883Y-69836700D01*
X66850669Y-69818892D01*
X66851594Y-69810096D01*
X66869941Y-69635529D01*
X66870631Y-69628964D01*
X66856449Y-69494026D01*
X66851359Y-69445599D01*
X66851359Y-69445597D01*
X66850669Y-69439036D01*
X66791654Y-69257408D01*
X66696167Y-69092020D01*
X66638702Y-69028198D01*
X66572802Y-68955009D01*
X66572801Y-68955008D01*
X66568380Y-68950098D01*
X66438896Y-68856022D01*
X66419221Y-68841727D01*
X66419220Y-68841726D01*
X66413879Y-68837846D01*
X66407851Y-68835162D01*
X66407849Y-68835161D01*
X66245446Y-68762855D01*
X66245445Y-68762855D01*
X66239415Y-68760170D01*
X66146015Y-68740317D01*
X66059071Y-68721836D01*
X66059066Y-68721836D01*
X66052614Y-68720464D01*
X65861640Y-68720464D01*
X65855188Y-68721836D01*
X65855183Y-68721836D01*
X65768239Y-68740317D01*
X65674839Y-68760170D01*
X65668809Y-68762855D01*
X65668808Y-68762855D01*
X65506405Y-68835161D01*
X65506403Y-68835162D01*
X65500375Y-68837846D01*
X65495034Y-68841726D01*
X65495033Y-68841727D01*
X65475358Y-68856022D01*
X65345874Y-68950098D01*
X65341453Y-68955008D01*
X65341452Y-68955009D01*
X65275553Y-69028198D01*
X65218087Y-69092020D01*
X65122600Y-69257408D01*
X65063585Y-69439036D01*
X65062895Y-69445597D01*
X65062895Y-69445599D01*
X65057805Y-69494026D01*
X65043623Y-69628964D01*
X63586025Y-69628964D01*
X63639670Y-69605080D01*
X63639672Y-69605079D01*
X63645700Y-69602395D01*
X63800201Y-69490143D01*
X63840309Y-69445599D01*
X63923569Y-69353129D01*
X63923570Y-69353128D01*
X63927988Y-69348221D01*
X64016569Y-69194794D01*
X64020171Y-69188556D01*
X64020172Y-69188555D01*
X64023475Y-69182833D01*
X64082490Y-69001205D01*
X64087346Y-68955009D01*
X64101762Y-68817842D01*
X64102452Y-68811277D01*
X64093453Y-68725657D01*
X64083180Y-68627912D01*
X64083180Y-68627910D01*
X64082490Y-68621349D01*
X64023475Y-68439721D01*
X63927988Y-68274333D01*
X63800201Y-68132411D01*
X63656169Y-68027765D01*
X63651042Y-68024040D01*
X63651041Y-68024039D01*
X63647133Y-68021200D01*
X73508496Y-68021200D01*
X73509186Y-68027765D01*
X73520185Y-68132411D01*
X73528458Y-68211128D01*
X73587473Y-68392756D01*
X73682960Y-68558144D01*
X73687378Y-68563051D01*
X73687379Y-68563052D01*
X73755882Y-68639132D01*
X73810747Y-68700066D01*
X73875851Y-68747367D01*
X73942662Y-68795908D01*
X73965248Y-68812318D01*
X73971276Y-68815002D01*
X73971278Y-68815003D01*
X74133681Y-68887309D01*
X74139712Y-68889994D01*
X74200750Y-68902968D01*
X74320056Y-68928328D01*
X74320061Y-68928328D01*
X74326513Y-68929700D01*
X74517487Y-68929700D01*
X74523939Y-68928328D01*
X74523944Y-68928328D01*
X74643250Y-68902968D01*
X74704288Y-68889994D01*
X74710319Y-68887309D01*
X74872722Y-68815003D01*
X74872724Y-68815002D01*
X74878752Y-68812318D01*
X74901339Y-68795908D01*
X74968149Y-68747367D01*
X75033253Y-68700066D01*
X75088118Y-68639132D01*
X75156621Y-68563052D01*
X75156622Y-68563051D01*
X75161040Y-68558144D01*
X75256527Y-68392756D01*
X75315542Y-68211128D01*
X75323816Y-68132411D01*
X75334814Y-68027765D01*
X75335504Y-68021200D01*
X75329545Y-67964500D01*
X75316232Y-67837835D01*
X75316232Y-67837833D01*
X75315542Y-67831272D01*
X75256527Y-67649644D01*
X75161040Y-67484256D01*
X75108240Y-67425615D01*
X75037675Y-67347245D01*
X75037674Y-67347244D01*
X75033253Y-67342334D01*
X74878752Y-67230082D01*
X74872724Y-67227398D01*
X74872722Y-67227397D01*
X74710319Y-67155091D01*
X74710318Y-67155091D01*
X74704288Y-67152406D01*
X74601267Y-67130508D01*
X74523944Y-67114072D01*
X74523939Y-67114072D01*
X74517487Y-67112700D01*
X74326513Y-67112700D01*
X74320061Y-67114072D01*
X74320056Y-67114072D01*
X74242733Y-67130508D01*
X74139712Y-67152406D01*
X74133682Y-67155091D01*
X74133681Y-67155091D01*
X73971278Y-67227397D01*
X73971276Y-67227398D01*
X73965248Y-67230082D01*
X73810747Y-67342334D01*
X73806326Y-67347244D01*
X73806325Y-67347245D01*
X73735761Y-67425615D01*
X73682960Y-67484256D01*
X73587473Y-67649644D01*
X73528458Y-67831272D01*
X73527768Y-67837833D01*
X73527768Y-67837835D01*
X73514455Y-67964500D01*
X73508496Y-68021200D01*
X63647133Y-68021200D01*
X63645700Y-68020159D01*
X63639672Y-68017475D01*
X63639670Y-68017474D01*
X63477267Y-67945168D01*
X63477266Y-67945168D01*
X63471236Y-67942483D01*
X63360283Y-67918899D01*
X63290892Y-67904149D01*
X63290887Y-67904149D01*
X63284435Y-67902777D01*
X63093461Y-67902777D01*
X63087009Y-67904149D01*
X63087004Y-67904149D01*
X63017613Y-67918899D01*
X62906660Y-67942483D01*
X62900630Y-67945168D01*
X62900629Y-67945168D01*
X62738226Y-68017474D01*
X62738224Y-68017475D01*
X62732196Y-68020159D01*
X62726855Y-68024039D01*
X62726854Y-68024040D01*
X62721727Y-68027765D01*
X62577695Y-68132411D01*
X62449908Y-68274333D01*
X62447712Y-68272356D01*
X62401658Y-68307834D01*
X62330919Y-68313875D01*
X62268143Y-68280714D01*
X62233261Y-68218877D01*
X62230000Y-68190397D01*
X62230000Y-67056000D01*
X64364496Y-67056000D01*
X64365186Y-67062565D01*
X64382793Y-67230082D01*
X64384458Y-67245928D01*
X64443473Y-67427556D01*
X64538960Y-67592944D01*
X64543378Y-67597851D01*
X64543379Y-67597852D01*
X64622304Y-67685507D01*
X64666747Y-67734866D01*
X64734578Y-67784148D01*
X64806839Y-67836649D01*
X64821248Y-67847118D01*
X64827276Y-67849802D01*
X64827278Y-67849803D01*
X64989681Y-67922109D01*
X64995712Y-67924794D01*
X65072477Y-67941111D01*
X65176056Y-67963128D01*
X65176061Y-67963128D01*
X65182513Y-67964500D01*
X65373487Y-67964500D01*
X65379939Y-67963128D01*
X65379944Y-67963128D01*
X65483523Y-67941111D01*
X65560288Y-67924794D01*
X65566319Y-67922109D01*
X65728722Y-67849803D01*
X65728724Y-67849802D01*
X65734752Y-67847118D01*
X65749162Y-67836649D01*
X65821422Y-67784148D01*
X65889253Y-67734866D01*
X65933696Y-67685507D01*
X66012621Y-67597852D01*
X66012622Y-67597851D01*
X66017040Y-67592944D01*
X66112527Y-67427556D01*
X66171542Y-67245928D01*
X66173208Y-67230082D01*
X66190814Y-67062565D01*
X66191504Y-67056000D01*
X66171542Y-66866072D01*
X66137727Y-66762000D01*
X84631288Y-66762000D01*
X84650099Y-66977013D01*
X84651523Y-66982326D01*
X84651523Y-66982328D01*
X84673023Y-67062565D01*
X84705961Y-67185493D01*
X84708283Y-67190474D01*
X84708284Y-67190475D01*
X84794851Y-67376119D01*
X84794854Y-67376124D01*
X84797177Y-67381106D01*
X84823621Y-67418872D01*
X84910382Y-67542778D01*
X84920975Y-67557907D01*
X85073593Y-67710525D01*
X85078101Y-67713682D01*
X85078104Y-67713684D01*
X85108355Y-67734866D01*
X85250394Y-67834323D01*
X85255376Y-67836646D01*
X85255381Y-67836649D01*
X85400136Y-67904149D01*
X85446007Y-67925539D01*
X85451315Y-67926961D01*
X85451317Y-67926962D01*
X85649172Y-67979977D01*
X85649174Y-67979977D01*
X85654487Y-67981401D01*
X85869500Y-68000212D01*
X86084513Y-67981401D01*
X86089826Y-67979977D01*
X86089828Y-67979977D01*
X86287683Y-67926962D01*
X86287685Y-67926961D01*
X86292993Y-67925539D01*
X86338864Y-67904149D01*
X86483619Y-67836649D01*
X86483624Y-67836646D01*
X86488606Y-67834323D01*
X86630645Y-67734866D01*
X86660896Y-67713684D01*
X86660899Y-67713682D01*
X86665407Y-67710525D01*
X86818025Y-67557907D01*
X86828619Y-67542778D01*
X86888537Y-67457206D01*
X86906253Y-67431905D01*
X86961709Y-67387578D01*
X87032328Y-67380269D01*
X87095689Y-67412300D01*
X87131674Y-67473501D01*
X87134161Y-67522257D01*
X87112032Y-67674881D01*
X87107287Y-67707604D01*
X87117067Y-67918899D01*
X87118471Y-67924724D01*
X87118471Y-67924725D01*
X87141722Y-68021200D01*
X87166625Y-68124534D01*
X87169107Y-68129992D01*
X87169108Y-68129996D01*
X87212553Y-68225546D01*
X87254174Y-68317087D01*
X87376554Y-68489611D01*
X87529350Y-68635881D01*
X87707048Y-68750620D01*
X87730745Y-68760170D01*
X87897668Y-68827442D01*
X87897671Y-68827443D01*
X87903237Y-68829686D01*
X88110837Y-68870228D01*
X88116399Y-68870500D01*
X88972346Y-68870500D01*
X89130066Y-68855452D01*
X89333034Y-68795908D01*
X89395005Y-68763991D01*
X89515749Y-68701804D01*
X89515752Y-68701802D01*
X89521080Y-68699058D01*
X89687420Y-68568396D01*
X89691352Y-68563865D01*
X89691355Y-68563862D01*
X89822121Y-68413167D01*
X89826052Y-68408637D01*
X89829052Y-68403451D01*
X89829055Y-68403447D01*
X89928967Y-68230742D01*
X89931973Y-68225546D01*
X90001361Y-68025729D01*
X90017719Y-67912909D01*
X90030852Y-67822336D01*
X90030852Y-67822333D01*
X90031713Y-67816396D01*
X90021933Y-67605101D01*
X89972375Y-67399466D01*
X89964028Y-67381106D01*
X89917584Y-67278959D01*
X89884826Y-67206913D01*
X89762446Y-67034389D01*
X89609650Y-66888119D01*
X89431952Y-66773380D01*
X89371854Y-66749160D01*
X89241332Y-66696558D01*
X89241329Y-66696557D01*
X89235763Y-66694314D01*
X89028163Y-66653772D01*
X89022601Y-66653500D01*
X88166654Y-66653500D01*
X88008934Y-66668548D01*
X87805966Y-66728092D01*
X87800639Y-66730836D01*
X87800638Y-66730836D01*
X87623251Y-66822196D01*
X87623248Y-66822198D01*
X87617920Y-66824942D01*
X87451580Y-66955604D01*
X87447648Y-66960135D01*
X87447645Y-66960138D01*
X87358764Y-67062565D01*
X87312948Y-67115363D01*
X87309946Y-67120553D01*
X87304186Y-67130508D01*
X87252759Y-67179455D01*
X87183033Y-67192828D01*
X87117146Y-67166381D01*
X87076017Y-67108511D01*
X87073418Y-67034797D01*
X87087476Y-66982335D01*
X87087478Y-66982324D01*
X87088901Y-66977013D01*
X87107712Y-66762000D01*
X87088901Y-66546987D01*
X87033039Y-66338507D01*
X87011597Y-66292525D01*
X86944149Y-66147881D01*
X86944146Y-66147876D01*
X86941823Y-66142894D01*
X86836451Y-65992408D01*
X86821184Y-65970604D01*
X86821182Y-65970601D01*
X86818025Y-65966093D01*
X86665407Y-65813475D01*
X86488606Y-65689677D01*
X86483624Y-65687354D01*
X86483619Y-65687351D01*
X86297975Y-65600784D01*
X86297974Y-65600783D01*
X86292993Y-65598461D01*
X86287685Y-65597039D01*
X86287683Y-65597038D01*
X86089828Y-65544023D01*
X86089826Y-65544023D01*
X86084513Y-65542599D01*
X85869500Y-65523788D01*
X85654487Y-65542599D01*
X85649174Y-65544023D01*
X85649172Y-65544023D01*
X85451317Y-65597038D01*
X85451315Y-65597039D01*
X85446007Y-65598461D01*
X85441026Y-65600783D01*
X85441025Y-65600784D01*
X85255381Y-65687351D01*
X85255376Y-65687354D01*
X85250394Y-65689677D01*
X85073593Y-65813475D01*
X84920975Y-65966093D01*
X84917818Y-65970601D01*
X84917816Y-65970604D01*
X84902549Y-65992408D01*
X84797177Y-66142894D01*
X84794854Y-66147876D01*
X84794851Y-66147881D01*
X84727403Y-66292525D01*
X84705961Y-66338507D01*
X84650099Y-66546987D01*
X84631288Y-66762000D01*
X66137727Y-66762000D01*
X66112527Y-66684444D01*
X66103350Y-66668548D01*
X66020341Y-66524774D01*
X66017040Y-66519056D01*
X65889253Y-66377134D01*
X65734752Y-66264882D01*
X65728724Y-66262198D01*
X65728722Y-66262197D01*
X65566319Y-66189891D01*
X65566318Y-66189891D01*
X65560288Y-66187206D01*
X65466887Y-66167353D01*
X65379944Y-66148872D01*
X65379939Y-66148872D01*
X65373487Y-66147500D01*
X65182513Y-66147500D01*
X65176061Y-66148872D01*
X65176056Y-66148872D01*
X65089113Y-66167353D01*
X64995712Y-66187206D01*
X64989682Y-66189891D01*
X64989681Y-66189891D01*
X64827278Y-66262197D01*
X64827276Y-66262198D01*
X64821248Y-66264882D01*
X64666747Y-66377134D01*
X64538960Y-66519056D01*
X64535659Y-66524774D01*
X64452651Y-66668548D01*
X64443473Y-66684444D01*
X64384458Y-66866072D01*
X64364496Y-67056000D01*
X62230000Y-67056000D01*
X62230000Y-66094631D01*
X62250002Y-66026510D01*
X62303658Y-65980017D01*
X62373932Y-65969913D01*
X62430061Y-65992695D01*
X62435011Y-65996291D01*
X62535248Y-66069118D01*
X62541276Y-66071802D01*
X62541278Y-66071803D01*
X62690827Y-66138386D01*
X62709712Y-66146794D01*
X62803112Y-66166647D01*
X62890056Y-66185128D01*
X62890061Y-66185128D01*
X62896513Y-66186500D01*
X63087487Y-66186500D01*
X63093939Y-66185128D01*
X63093944Y-66185128D01*
X63180888Y-66166647D01*
X63274288Y-66146794D01*
X63293173Y-66138386D01*
X63442722Y-66071803D01*
X63442724Y-66071802D01*
X63448752Y-66069118D01*
X63603253Y-65956866D01*
X63699038Y-65850486D01*
X63726621Y-65819852D01*
X63726622Y-65819851D01*
X63731040Y-65814944D01*
X63809634Y-65678816D01*
X63823223Y-65655279D01*
X63823224Y-65655278D01*
X63826527Y-65649556D01*
X63885542Y-65467928D01*
X63887138Y-65452749D01*
X63894361Y-65384025D01*
X69212167Y-65384025D01*
X69212857Y-65390590D01*
X69228834Y-65542599D01*
X69232129Y-65573953D01*
X69291144Y-65755581D01*
X69386631Y-65920969D01*
X69391049Y-65925876D01*
X69391050Y-65925877D01*
X69439798Y-65980017D01*
X69514418Y-66062891D01*
X69613514Y-66134889D01*
X69626205Y-66144109D01*
X69668919Y-66175143D01*
X69674947Y-66177827D01*
X69674949Y-66177828D01*
X69774256Y-66222042D01*
X69843383Y-66252819D01*
X69936783Y-66272672D01*
X70023727Y-66291153D01*
X70023732Y-66291153D01*
X70030184Y-66292525D01*
X70221158Y-66292525D01*
X70227610Y-66291153D01*
X70227615Y-66291153D01*
X70314559Y-66272672D01*
X70407959Y-66252819D01*
X70477086Y-66222042D01*
X70576393Y-66177828D01*
X70576395Y-66177827D01*
X70582423Y-66175143D01*
X70625138Y-66144109D01*
X70637828Y-66134889D01*
X70736924Y-66062891D01*
X70811544Y-65980017D01*
X70860292Y-65925877D01*
X70860293Y-65925876D01*
X70864711Y-65920969D01*
X70960198Y-65755581D01*
X71019213Y-65573953D01*
X71022509Y-65542599D01*
X71038485Y-65390590D01*
X71039175Y-65384025D01*
X71037092Y-65364209D01*
X71019903Y-65200660D01*
X71019903Y-65200658D01*
X71019213Y-65194097D01*
X70960198Y-65012469D01*
X70864711Y-64847081D01*
X70806397Y-64782316D01*
X70741346Y-64710070D01*
X70741345Y-64710069D01*
X70736924Y-64705159D01*
X70582423Y-64592907D01*
X70576395Y-64590223D01*
X70576393Y-64590222D01*
X70413990Y-64517916D01*
X70413989Y-64517916D01*
X70409686Y-64516000D01*
X73254496Y-64516000D01*
X73255186Y-64522565D01*
X73262826Y-64595251D01*
X73274458Y-64705928D01*
X73333473Y-64887556D01*
X73428960Y-65052944D01*
X73433378Y-65057851D01*
X73433379Y-65057852D01*
X73486939Y-65117336D01*
X73556747Y-65194866D01*
X73655843Y-65266864D01*
X73680207Y-65284565D01*
X73711248Y-65307118D01*
X73717276Y-65309802D01*
X73717278Y-65309803D01*
X73816630Y-65354037D01*
X73885712Y-65384794D01*
X73979112Y-65404647D01*
X74066056Y-65423128D01*
X74066061Y-65423128D01*
X74072513Y-65424500D01*
X74263487Y-65424500D01*
X74269939Y-65423128D01*
X74269944Y-65423128D01*
X74356888Y-65404647D01*
X74450288Y-65384794D01*
X74456315Y-65382111D01*
X74456323Y-65382108D01*
X74594208Y-65320718D01*
X74664575Y-65311284D01*
X74728872Y-65341391D01*
X74739092Y-65351515D01*
X74803572Y-65423127D01*
X74826747Y-65448866D01*
X74901903Y-65503470D01*
X74955100Y-65542120D01*
X74981248Y-65561118D01*
X74987276Y-65563802D01*
X74987278Y-65563803D01*
X75149681Y-65636109D01*
X75155712Y-65638794D01*
X75249112Y-65658647D01*
X75336056Y-65677128D01*
X75336061Y-65677128D01*
X75342513Y-65678500D01*
X75533487Y-65678500D01*
X75539939Y-65677128D01*
X75539944Y-65677128D01*
X75626888Y-65658647D01*
X75720288Y-65638794D01*
X75726319Y-65636109D01*
X75888722Y-65563803D01*
X75888724Y-65563802D01*
X75894752Y-65561118D01*
X75920241Y-65542599D01*
X76043909Y-65452749D01*
X76043911Y-65452747D01*
X76049253Y-65448866D01*
X76053671Y-65443959D01*
X76053678Y-65443953D01*
X76068672Y-65427300D01*
X76129117Y-65390060D01*
X76188505Y-65388364D01*
X76352047Y-65423127D01*
X76352060Y-65423128D01*
X76358513Y-65424500D01*
X76549487Y-65424500D01*
X76555939Y-65423128D01*
X76555944Y-65423128D01*
X76642888Y-65404647D01*
X76736288Y-65384794D01*
X76805370Y-65354037D01*
X76904722Y-65309803D01*
X76904724Y-65309802D01*
X76910752Y-65307118D01*
X76941794Y-65284565D01*
X76966157Y-65266864D01*
X77065253Y-65194866D01*
X77135061Y-65117336D01*
X77188621Y-65057852D01*
X77188622Y-65057851D01*
X77193040Y-65052944D01*
X77288527Y-64887556D01*
X77347542Y-64705928D01*
X77359175Y-64595251D01*
X77362165Y-64566800D01*
X79452096Y-64566800D01*
X79452786Y-64573365D01*
X79467379Y-64712206D01*
X79472058Y-64756728D01*
X79531073Y-64938356D01*
X79626560Y-65103744D01*
X79630978Y-65108651D01*
X79630979Y-65108652D01*
X79712103Y-65198749D01*
X79754347Y-65245666D01*
X79786579Y-65269084D01*
X79886101Y-65341391D01*
X79908848Y-65357918D01*
X79914874Y-65360601D01*
X79914881Y-65360605D01*
X80068373Y-65428943D01*
X80122469Y-65474923D01*
X80136958Y-65505112D01*
X80195439Y-65685098D01*
X80290926Y-65850486D01*
X80295344Y-65855393D01*
X80295345Y-65855394D01*
X80407556Y-65980017D01*
X80418713Y-65992408D01*
X80573214Y-66104660D01*
X80579242Y-66107344D01*
X80579244Y-66107345D01*
X80741647Y-66179651D01*
X80747678Y-66182336D01*
X80841078Y-66202189D01*
X80928022Y-66220670D01*
X80928027Y-66220670D01*
X80934479Y-66222042D01*
X81125453Y-66222042D01*
X81131905Y-66220670D01*
X81131910Y-66220670D01*
X81218854Y-66202189D01*
X81312254Y-66182336D01*
X81318285Y-66179651D01*
X81480688Y-66107345D01*
X81480690Y-66107344D01*
X81486718Y-66104660D01*
X81641219Y-65992408D01*
X81652376Y-65980017D01*
X81764587Y-65855394D01*
X81764588Y-65855393D01*
X81769006Y-65850486D01*
X81864493Y-65685098D01*
X81923508Y-65503470D01*
X81926509Y-65474923D01*
X81942780Y-65320107D01*
X81943470Y-65313542D01*
X81923508Y-65123614D01*
X81864493Y-64941986D01*
X81847602Y-64912729D01*
X81772307Y-64782316D01*
X81769006Y-64776598D01*
X81742153Y-64746774D01*
X81645641Y-64639587D01*
X81645640Y-64639586D01*
X81641219Y-64634676D01*
X81486718Y-64522424D01*
X81480692Y-64519741D01*
X81480685Y-64519737D01*
X81327193Y-64451399D01*
X81273097Y-64405419D01*
X81258608Y-64375229D01*
X81256747Y-64369500D01*
X81200127Y-64195244D01*
X81104640Y-64029856D01*
X81054481Y-63974148D01*
X80981275Y-63892845D01*
X80981274Y-63892844D01*
X80976853Y-63887934D01*
X80822352Y-63775682D01*
X80816324Y-63772998D01*
X80816322Y-63772997D01*
X80653919Y-63700691D01*
X80653918Y-63700691D01*
X80647888Y-63698006D01*
X80554487Y-63678153D01*
X80467544Y-63659672D01*
X80467539Y-63659672D01*
X80461087Y-63658300D01*
X80270113Y-63658300D01*
X80263661Y-63659672D01*
X80263656Y-63659672D01*
X80176713Y-63678153D01*
X80083312Y-63698006D01*
X80077282Y-63700691D01*
X80077281Y-63700691D01*
X79914878Y-63772997D01*
X79914876Y-63772998D01*
X79908848Y-63775682D01*
X79754347Y-63887934D01*
X79749926Y-63892844D01*
X79749925Y-63892845D01*
X79676720Y-63974148D01*
X79626560Y-64029856D01*
X79531073Y-64195244D01*
X79472058Y-64376872D01*
X79471368Y-64383433D01*
X79471368Y-64383435D01*
X79464924Y-64444748D01*
X79452096Y-64566800D01*
X77362165Y-64566800D01*
X77366814Y-64522565D01*
X77367504Y-64516000D01*
X77356280Y-64409206D01*
X77348232Y-64332635D01*
X77348232Y-64332633D01*
X77347542Y-64326072D01*
X77288527Y-64144444D01*
X77193040Y-63979056D01*
X77170273Y-63953770D01*
X77069675Y-63842045D01*
X77069674Y-63842044D01*
X77065253Y-63837134D01*
X76910752Y-63724882D01*
X76904724Y-63722198D01*
X76904722Y-63722197D01*
X76742319Y-63649891D01*
X76742318Y-63649891D01*
X76736288Y-63647206D01*
X76642887Y-63627353D01*
X76555944Y-63608872D01*
X76555939Y-63608872D01*
X76549487Y-63607500D01*
X76358513Y-63607500D01*
X76352061Y-63608872D01*
X76352056Y-63608872D01*
X76265113Y-63627353D01*
X76171712Y-63647206D01*
X76165682Y-63649891D01*
X76165681Y-63649891D01*
X76003278Y-63722197D01*
X76003276Y-63722198D01*
X75997248Y-63724882D01*
X75991907Y-63728762D01*
X75991906Y-63728763D01*
X75873940Y-63814471D01*
X75842747Y-63837134D01*
X75838329Y-63842041D01*
X75838322Y-63842047D01*
X75823328Y-63858700D01*
X75762883Y-63895940D01*
X75703495Y-63897636D01*
X75539953Y-63862873D01*
X75539940Y-63862872D01*
X75533487Y-63861500D01*
X75342513Y-63861500D01*
X75336061Y-63862872D01*
X75336056Y-63862872D01*
X75249112Y-63881353D01*
X75155712Y-63901206D01*
X75149685Y-63903889D01*
X75149677Y-63903892D01*
X75011792Y-63965282D01*
X74941425Y-63974716D01*
X74877128Y-63944609D01*
X74866908Y-63934485D01*
X74783675Y-63842045D01*
X74783674Y-63842044D01*
X74779253Y-63837134D01*
X74624752Y-63724882D01*
X74618724Y-63722198D01*
X74618722Y-63722197D01*
X74456319Y-63649891D01*
X74456318Y-63649891D01*
X74450288Y-63647206D01*
X74356887Y-63627353D01*
X74269944Y-63608872D01*
X74269939Y-63608872D01*
X74263487Y-63607500D01*
X74072513Y-63607500D01*
X74066061Y-63608872D01*
X74066056Y-63608872D01*
X73979113Y-63627353D01*
X73885712Y-63647206D01*
X73879682Y-63649891D01*
X73879681Y-63649891D01*
X73717278Y-63722197D01*
X73717276Y-63722198D01*
X73711248Y-63724882D01*
X73556747Y-63837134D01*
X73552326Y-63842044D01*
X73552325Y-63842045D01*
X73451728Y-63953770D01*
X73428960Y-63979056D01*
X73333473Y-64144444D01*
X73274458Y-64326072D01*
X73273768Y-64332633D01*
X73273768Y-64332635D01*
X73265720Y-64409206D01*
X73254496Y-64516000D01*
X70409686Y-64516000D01*
X70407959Y-64515231D01*
X70292847Y-64490763D01*
X70227615Y-64476897D01*
X70227610Y-64476897D01*
X70221158Y-64475525D01*
X70030184Y-64475525D01*
X70023732Y-64476897D01*
X70023727Y-64476897D01*
X69958495Y-64490763D01*
X69843383Y-64515231D01*
X69837353Y-64517916D01*
X69837352Y-64517916D01*
X69674949Y-64590222D01*
X69674947Y-64590223D01*
X69668919Y-64592907D01*
X69514418Y-64705159D01*
X69509997Y-64710069D01*
X69509996Y-64710070D01*
X69444946Y-64782316D01*
X69386631Y-64847081D01*
X69291144Y-65012469D01*
X69232129Y-65194097D01*
X69231439Y-65200658D01*
X69231439Y-65200660D01*
X69214250Y-65364209D01*
X69212167Y-65384025D01*
X63894361Y-65384025D01*
X63904814Y-65284565D01*
X63905504Y-65278000D01*
X63897375Y-65200660D01*
X63886232Y-65094635D01*
X63886232Y-65094633D01*
X63885542Y-65088072D01*
X63826527Y-64906444D01*
X63731040Y-64741056D01*
X63705064Y-64712206D01*
X63607675Y-64604045D01*
X63607674Y-64604044D01*
X63603253Y-64599134D01*
X63493973Y-64519737D01*
X63454094Y-64490763D01*
X63454093Y-64490762D01*
X63448752Y-64486882D01*
X63442724Y-64484198D01*
X63442722Y-64484197D01*
X63280319Y-64411891D01*
X63280318Y-64411891D01*
X63274288Y-64409206D01*
X63153046Y-64383435D01*
X63093944Y-64370872D01*
X63093939Y-64370872D01*
X63087487Y-64369500D01*
X62896513Y-64369500D01*
X62890061Y-64370872D01*
X62890056Y-64370872D01*
X62830954Y-64383435D01*
X62709712Y-64409206D01*
X62703682Y-64411891D01*
X62703681Y-64411891D01*
X62541278Y-64484197D01*
X62541276Y-64484198D01*
X62535248Y-64486882D01*
X62529907Y-64490762D01*
X62529906Y-64490763D01*
X62430061Y-64563305D01*
X62363193Y-64587163D01*
X62294042Y-64571083D01*
X62244562Y-64520169D01*
X62230000Y-64461369D01*
X62230000Y-63449200D01*
X81329496Y-63449200D01*
X81330186Y-63455765D01*
X81345967Y-63605909D01*
X81349458Y-63639128D01*
X81408473Y-63820756D01*
X81503960Y-63986144D01*
X81631747Y-64128066D01*
X81786248Y-64240318D01*
X81792276Y-64243002D01*
X81792278Y-64243003D01*
X81954681Y-64315309D01*
X81960712Y-64317994D01*
X82054112Y-64337847D01*
X82141056Y-64356328D01*
X82141061Y-64356328D01*
X82147513Y-64357700D01*
X82338487Y-64357700D01*
X82344939Y-64356328D01*
X82344944Y-64356328D01*
X82431888Y-64337847D01*
X82525288Y-64317994D01*
X82531319Y-64315309D01*
X82693722Y-64243003D01*
X82693724Y-64243002D01*
X82699752Y-64240318D01*
X82854253Y-64128066D01*
X82982040Y-63986144D01*
X83070786Y-63832432D01*
X83122167Y-63783440D01*
X83191881Y-63770004D01*
X83257792Y-63796390D01*
X83289023Y-63832433D01*
X83359077Y-63953770D01*
X83359080Y-63953775D01*
X83362379Y-63959488D01*
X83366797Y-63964395D01*
X83366798Y-63964396D01*
X83430887Y-64035574D01*
X83490166Y-64101410D01*
X83644667Y-64213662D01*
X83650695Y-64216346D01*
X83650697Y-64216347D01*
X83710568Y-64243003D01*
X83819131Y-64291338D01*
X83912531Y-64311191D01*
X83999475Y-64329672D01*
X83999480Y-64329672D01*
X84005932Y-64331044D01*
X84196906Y-64331044D01*
X84203358Y-64329672D01*
X84203363Y-64329672D01*
X84290307Y-64311191D01*
X84383707Y-64291338D01*
X84492270Y-64243003D01*
X84552141Y-64216347D01*
X84552143Y-64216346D01*
X84558171Y-64213662D01*
X84712672Y-64101410D01*
X84771951Y-64035574D01*
X84836040Y-63964396D01*
X84836041Y-63964395D01*
X84840459Y-63959488D01*
X84935946Y-63794100D01*
X84994961Y-63612472D01*
X85014923Y-63422544D01*
X85014233Y-63415979D01*
X84995651Y-63239179D01*
X84995651Y-63239177D01*
X84994961Y-63232616D01*
X84935946Y-63050988D01*
X84840459Y-62885600D01*
X84832347Y-62876590D01*
X84717094Y-62748589D01*
X84717093Y-62748588D01*
X84712672Y-62743678D01*
X84558171Y-62631426D01*
X84552143Y-62628742D01*
X84552141Y-62628741D01*
X84389738Y-62556435D01*
X84389737Y-62556435D01*
X84383707Y-62553750D01*
X84276414Y-62530944D01*
X84203363Y-62515416D01*
X84203358Y-62515416D01*
X84196906Y-62514044D01*
X84005932Y-62514044D01*
X83999480Y-62515416D01*
X83999475Y-62515416D01*
X83926424Y-62530944D01*
X83819131Y-62553750D01*
X83813101Y-62556435D01*
X83813100Y-62556435D01*
X83650697Y-62628741D01*
X83650695Y-62628742D01*
X83644667Y-62631426D01*
X83490166Y-62743678D01*
X83485745Y-62748588D01*
X83485744Y-62748589D01*
X83370492Y-62876590D01*
X83362379Y-62885600D01*
X83273634Y-63039311D01*
X83222252Y-63088304D01*
X83152538Y-63101740D01*
X83086627Y-63075354D01*
X83055396Y-63039311D01*
X82985342Y-62917974D01*
X82985339Y-62917969D01*
X82982040Y-62912256D01*
X82963188Y-62891318D01*
X82858675Y-62775245D01*
X82858674Y-62775244D01*
X82854253Y-62770334D01*
X82699752Y-62658082D01*
X82693724Y-62655398D01*
X82693722Y-62655397D01*
X82531319Y-62583091D01*
X82531318Y-62583091D01*
X82525288Y-62580406D01*
X82412514Y-62556435D01*
X82344944Y-62542072D01*
X82344939Y-62542072D01*
X82338487Y-62540700D01*
X82147513Y-62540700D01*
X82141061Y-62542072D01*
X82141056Y-62542072D01*
X82073486Y-62556435D01*
X81960712Y-62580406D01*
X81954682Y-62583091D01*
X81954681Y-62583091D01*
X81792278Y-62655397D01*
X81792276Y-62655398D01*
X81786248Y-62658082D01*
X81631747Y-62770334D01*
X81627326Y-62775244D01*
X81627325Y-62775245D01*
X81522813Y-62891318D01*
X81503960Y-62912256D01*
X81408473Y-63077644D01*
X81349458Y-63259272D01*
X81329496Y-63449200D01*
X62230000Y-63449200D01*
X62230000Y-63192324D01*
X62250002Y-63124203D01*
X62303658Y-63077710D01*
X62373932Y-63067606D01*
X62407249Y-63077217D01*
X62422325Y-63083929D01*
X62455712Y-63098794D01*
X62549113Y-63118647D01*
X62636056Y-63137128D01*
X62636061Y-63137128D01*
X62642513Y-63138500D01*
X62833487Y-63138500D01*
X62839939Y-63137128D01*
X62839944Y-63137128D01*
X62926887Y-63118647D01*
X63020288Y-63098794D01*
X63043849Y-63088304D01*
X63188722Y-63023803D01*
X63188724Y-63023802D01*
X63194752Y-63021118D01*
X63211854Y-63008693D01*
X63250157Y-62980864D01*
X63349253Y-62908866D01*
X63374621Y-62880692D01*
X63472621Y-62771852D01*
X63472622Y-62771851D01*
X63477040Y-62766944D01*
X63572527Y-62601556D01*
X63631542Y-62419928D01*
X63636147Y-62376119D01*
X63650814Y-62236565D01*
X63651504Y-62230000D01*
X71222496Y-62230000D01*
X71223186Y-62236565D01*
X71237854Y-62376119D01*
X71242458Y-62419928D01*
X71301473Y-62601556D01*
X71396960Y-62766944D01*
X71401378Y-62771851D01*
X71401379Y-62771852D01*
X71499379Y-62880692D01*
X71524747Y-62908866D01*
X71623843Y-62980864D01*
X71662147Y-63008693D01*
X71679248Y-63021118D01*
X71685276Y-63023802D01*
X71685278Y-63023803D01*
X71830151Y-63088304D01*
X71853712Y-63098794D01*
X71947113Y-63118647D01*
X72034056Y-63137128D01*
X72034061Y-63137128D01*
X72040513Y-63138500D01*
X72231487Y-63138500D01*
X72237939Y-63137128D01*
X72237944Y-63137128D01*
X72324887Y-63118647D01*
X72418288Y-63098794D01*
X72441849Y-63088304D01*
X72586722Y-63023803D01*
X72586724Y-63023802D01*
X72592752Y-63021118D01*
X72609854Y-63008693D01*
X72648157Y-62980864D01*
X72747253Y-62908866D01*
X72772621Y-62880692D01*
X72870621Y-62771852D01*
X72870622Y-62771851D01*
X72875040Y-62766944D01*
X72970527Y-62601556D01*
X73029542Y-62419928D01*
X73034147Y-62376119D01*
X73038496Y-62334738D01*
X76701433Y-62334738D01*
X76702123Y-62341303D01*
X76720279Y-62514044D01*
X76721395Y-62524666D01*
X76780410Y-62706294D01*
X76783713Y-62712016D01*
X76783714Y-62712017D01*
X76799752Y-62739795D01*
X76875897Y-62871682D01*
X76880315Y-62876589D01*
X76880316Y-62876590D01*
X76991626Y-63000212D01*
X77003684Y-63013604D01*
X77063789Y-63057273D01*
X77120938Y-63098794D01*
X77158185Y-63125856D01*
X77164213Y-63128540D01*
X77164215Y-63128541D01*
X77307475Y-63192324D01*
X77332649Y-63203532D01*
X77426049Y-63223385D01*
X77512993Y-63241866D01*
X77512998Y-63241866D01*
X77519450Y-63243238D01*
X77710424Y-63243238D01*
X77716876Y-63241866D01*
X77716881Y-63241866D01*
X77803825Y-63223385D01*
X77897225Y-63203532D01*
X77922399Y-63192324D01*
X78065659Y-63128541D01*
X78065661Y-63128540D01*
X78071689Y-63125856D01*
X78108937Y-63098794D01*
X78166085Y-63057273D01*
X78226190Y-63013604D01*
X78238248Y-63000212D01*
X78349558Y-62876590D01*
X78349559Y-62876589D01*
X78353977Y-62871682D01*
X78430122Y-62739795D01*
X78446160Y-62712017D01*
X78446161Y-62712016D01*
X78449464Y-62706294D01*
X78508479Y-62524666D01*
X78509596Y-62514044D01*
X78527751Y-62341303D01*
X78528441Y-62334738D01*
X78508479Y-62144810D01*
X78449464Y-61963182D01*
X78353977Y-61797794D01*
X78311502Y-61750620D01*
X78262832Y-61696567D01*
X78232114Y-61632560D01*
X78240879Y-61562106D01*
X78262832Y-61527947D01*
X78368715Y-61410352D01*
X78368716Y-61410351D01*
X78373134Y-61405444D01*
X78468621Y-61240056D01*
X78527636Y-61058428D01*
X78530478Y-61031393D01*
X78546908Y-60875065D01*
X78547598Y-60868500D01*
X78531318Y-60713601D01*
X78528326Y-60685135D01*
X78528326Y-60685133D01*
X78527636Y-60678572D01*
X78468621Y-60496944D01*
X78455739Y-60474631D01*
X83274085Y-60474631D01*
X83274775Y-60481195D01*
X83274775Y-60481196D01*
X83288878Y-60615374D01*
X83294047Y-60664559D01*
X83353062Y-60846187D01*
X83448549Y-61011575D01*
X83452967Y-61016482D01*
X83452968Y-61016483D01*
X83566789Y-61142894D01*
X83576336Y-61153497D01*
X83730837Y-61265749D01*
X83736865Y-61268433D01*
X83736867Y-61268434D01*
X83880062Y-61332188D01*
X83905301Y-61343425D01*
X83982499Y-61359834D01*
X84085645Y-61381759D01*
X84085650Y-61381759D01*
X84092102Y-61383131D01*
X84283076Y-61383131D01*
X84289528Y-61381759D01*
X84289533Y-61381759D01*
X84392679Y-61359834D01*
X84469877Y-61343425D01*
X84475904Y-61340742D01*
X84475912Y-61340739D01*
X84495116Y-61332188D01*
X84565482Y-61322753D01*
X84629780Y-61352858D01*
X84667594Y-61412947D01*
X84668073Y-61479904D01*
X84655201Y-61527947D01*
X84650099Y-61546987D01*
X84631288Y-61762000D01*
X84650099Y-61977013D01*
X84651523Y-61982326D01*
X84651523Y-61982328D01*
X84696819Y-62151373D01*
X84705961Y-62185493D01*
X84708283Y-62190474D01*
X84708284Y-62190475D01*
X84794851Y-62376119D01*
X84794854Y-62376124D01*
X84797177Y-62381106D01*
X84800334Y-62385614D01*
X84917104Y-62552378D01*
X84920975Y-62557907D01*
X85073593Y-62710525D01*
X85078101Y-62713682D01*
X85078104Y-62713684D01*
X85120940Y-62743678D01*
X85250394Y-62834323D01*
X85255376Y-62836646D01*
X85255381Y-62836649D01*
X85441025Y-62923216D01*
X85446007Y-62925539D01*
X85451315Y-62926961D01*
X85451317Y-62926962D01*
X85649172Y-62979977D01*
X85649174Y-62979977D01*
X85654487Y-62981401D01*
X85869500Y-63000212D01*
X86084513Y-62981401D01*
X86089826Y-62979977D01*
X86089828Y-62979977D01*
X86287683Y-62926962D01*
X86287685Y-62926961D01*
X86292993Y-62925539D01*
X86297975Y-62923216D01*
X86483619Y-62836649D01*
X86483624Y-62836646D01*
X86488606Y-62834323D01*
X86618060Y-62743678D01*
X86660896Y-62713684D01*
X86660899Y-62713682D01*
X86665407Y-62710525D01*
X86818025Y-62557907D01*
X86821897Y-62552378D01*
X86938666Y-62385614D01*
X86941823Y-62381106D01*
X86944146Y-62376124D01*
X86944149Y-62376119D01*
X87030716Y-62190475D01*
X87030717Y-62190474D01*
X87033039Y-62185493D01*
X87042182Y-62151373D01*
X87087477Y-61982328D01*
X87087477Y-61982326D01*
X87088901Y-61977013D01*
X87107712Y-61762000D01*
X87088901Y-61546987D01*
X87086935Y-61539648D01*
X87071278Y-61481216D01*
X87072968Y-61410239D01*
X87112762Y-61351444D01*
X87178027Y-61323496D01*
X87248040Y-61335270D01*
X87295754Y-61375704D01*
X87338665Y-61436197D01*
X87359806Y-61466000D01*
X87376554Y-61489611D01*
X87529350Y-61635881D01*
X87707048Y-61750620D01*
X87735286Y-61762000D01*
X87897668Y-61827442D01*
X87897671Y-61827443D01*
X87903237Y-61829686D01*
X88110837Y-61870228D01*
X88116399Y-61870500D01*
X88972346Y-61870500D01*
X89130066Y-61855452D01*
X89333034Y-61795908D01*
X89388240Y-61767475D01*
X89515749Y-61701804D01*
X89515752Y-61701802D01*
X89521080Y-61699058D01*
X89687420Y-61568396D01*
X89691352Y-61563865D01*
X89691355Y-61563862D01*
X89822121Y-61413167D01*
X89826052Y-61408637D01*
X89829052Y-61403451D01*
X89829055Y-61403447D01*
X89928967Y-61230742D01*
X89931973Y-61225546D01*
X90001361Y-61025729D01*
X90021726Y-60885274D01*
X90030852Y-60822336D01*
X90030852Y-60822333D01*
X90031713Y-60816396D01*
X90021933Y-60605101D01*
X89972375Y-60399466D01*
X89947705Y-60345206D01*
X89887306Y-60212368D01*
X89884826Y-60206913D01*
X89762446Y-60034389D01*
X89609650Y-59888119D01*
X89431952Y-59773380D01*
X89332431Y-59733272D01*
X89241332Y-59696558D01*
X89241329Y-59696557D01*
X89235763Y-59694314D01*
X89028163Y-59653772D01*
X89022601Y-59653500D01*
X88166654Y-59653500D01*
X88008934Y-59668548D01*
X87805966Y-59728092D01*
X87800639Y-59730836D01*
X87800638Y-59730836D01*
X87623251Y-59822196D01*
X87623248Y-59822198D01*
X87617920Y-59824942D01*
X87451580Y-59955604D01*
X87447648Y-59960135D01*
X87447645Y-59960138D01*
X87329054Y-60096802D01*
X87312948Y-60115363D01*
X87309948Y-60120549D01*
X87309945Y-60120553D01*
X87221075Y-60274171D01*
X87207027Y-60298454D01*
X87137639Y-60498271D01*
X87136778Y-60504206D01*
X87136778Y-60504208D01*
X87109023Y-60695633D01*
X87107287Y-60707604D01*
X87117067Y-60918899D01*
X87118471Y-60924724D01*
X87118471Y-60924725D01*
X87135491Y-60995347D01*
X87132006Y-61066258D01*
X87090737Y-61124028D01*
X87024786Y-61150315D01*
X86955093Y-61136774D01*
X86909785Y-61097139D01*
X86821184Y-60970604D01*
X86821182Y-60970601D01*
X86818025Y-60966093D01*
X86665407Y-60813475D01*
X86488606Y-60689677D01*
X86483624Y-60687354D01*
X86483619Y-60687351D01*
X86297975Y-60600784D01*
X86297974Y-60600783D01*
X86292993Y-60598461D01*
X86287685Y-60597039D01*
X86287683Y-60597038D01*
X86089828Y-60544023D01*
X86089826Y-60544023D01*
X86084513Y-60542599D01*
X85869500Y-60523788D01*
X85654487Y-60542599D01*
X85649174Y-60544023D01*
X85649172Y-60544023D01*
X85451317Y-60597038D01*
X85451315Y-60597039D01*
X85446007Y-60598461D01*
X85441026Y-60600783D01*
X85441025Y-60600784D01*
X85271470Y-60679849D01*
X85201278Y-60690510D01*
X85136466Y-60661530D01*
X85097609Y-60602110D01*
X85092910Y-60552486D01*
X85101093Y-60474631D01*
X85087346Y-60343834D01*
X85081821Y-60291266D01*
X85081821Y-60291264D01*
X85081131Y-60284703D01*
X85022116Y-60103075D01*
X84926629Y-59937687D01*
X84798842Y-59795765D01*
X84676609Y-59706957D01*
X84649683Y-59687394D01*
X84649682Y-59687393D01*
X84644341Y-59683513D01*
X84638313Y-59680829D01*
X84638311Y-59680828D01*
X84475908Y-59608522D01*
X84475907Y-59608522D01*
X84469877Y-59605837D01*
X84376476Y-59585984D01*
X84289533Y-59567503D01*
X84289528Y-59567503D01*
X84283076Y-59566131D01*
X84092102Y-59566131D01*
X84085650Y-59567503D01*
X84085645Y-59567503D01*
X83998702Y-59585984D01*
X83905301Y-59605837D01*
X83899271Y-59608522D01*
X83899270Y-59608522D01*
X83736867Y-59680828D01*
X83736865Y-59680829D01*
X83730837Y-59683513D01*
X83725496Y-59687393D01*
X83725495Y-59687394D01*
X83698569Y-59706957D01*
X83576336Y-59795765D01*
X83448549Y-59937687D01*
X83353062Y-60103075D01*
X83294047Y-60284703D01*
X83293357Y-60291264D01*
X83293357Y-60291266D01*
X83287832Y-60343834D01*
X83274085Y-60474631D01*
X78455739Y-60474631D01*
X78373134Y-60331556D01*
X78350909Y-60306872D01*
X78249769Y-60194545D01*
X78249768Y-60194544D01*
X78245347Y-60189634D01*
X78090846Y-60077382D01*
X78084818Y-60074698D01*
X78084816Y-60074697D01*
X77922413Y-60002391D01*
X77922412Y-60002391D01*
X77916382Y-59999706D01*
X77822981Y-59979853D01*
X77736038Y-59961372D01*
X77736033Y-59961372D01*
X77729581Y-59960000D01*
X77538607Y-59960000D01*
X77532155Y-59961372D01*
X77532150Y-59961372D01*
X77445207Y-59979853D01*
X77351806Y-59999706D01*
X77345776Y-60002391D01*
X77345775Y-60002391D01*
X77183372Y-60074697D01*
X77183370Y-60074698D01*
X77177342Y-60077382D01*
X77022841Y-60189634D01*
X77018420Y-60194544D01*
X77018419Y-60194545D01*
X76917280Y-60306872D01*
X76895054Y-60331556D01*
X76799567Y-60496944D01*
X76740552Y-60678572D01*
X76739862Y-60685133D01*
X76739862Y-60685135D01*
X76736870Y-60713601D01*
X76720590Y-60868500D01*
X76721280Y-60875065D01*
X76737711Y-61031393D01*
X76740552Y-61058428D01*
X76799567Y-61240056D01*
X76895054Y-61405444D01*
X76899472Y-61410351D01*
X76899473Y-61410352D01*
X76986199Y-61506671D01*
X77016917Y-61570678D01*
X77008152Y-61641132D01*
X76986199Y-61675291D01*
X76918373Y-61750620D01*
X76875897Y-61797794D01*
X76780410Y-61963182D01*
X76721395Y-62144810D01*
X76701433Y-62334738D01*
X73038496Y-62334738D01*
X73048814Y-62236565D01*
X73049504Y-62230000D01*
X73040550Y-62144810D01*
X73030232Y-62046635D01*
X73030232Y-62046633D01*
X73029542Y-62040072D01*
X73009373Y-61977998D01*
X73007345Y-61907032D01*
X73035570Y-61854753D01*
X73124621Y-61755852D01*
X73124622Y-61755851D01*
X73129040Y-61750944D01*
X73224527Y-61585556D01*
X73283542Y-61403928D01*
X73285765Y-61382783D01*
X73302814Y-61220565D01*
X73303504Y-61214000D01*
X73286463Y-61051865D01*
X73284232Y-61030635D01*
X73284232Y-61030633D01*
X73283542Y-61024072D01*
X73224527Y-60842444D01*
X73129040Y-60677056D01*
X73123441Y-60670837D01*
X73005675Y-60540045D01*
X73005674Y-60540044D01*
X73001253Y-60535134D01*
X72846752Y-60422882D01*
X72840724Y-60420198D01*
X72840722Y-60420197D01*
X72678319Y-60347891D01*
X72678318Y-60347891D01*
X72672288Y-60345206D01*
X72571567Y-60323797D01*
X72491944Y-60306872D01*
X72491939Y-60306872D01*
X72485487Y-60305500D01*
X72294513Y-60305500D01*
X72288061Y-60306872D01*
X72288056Y-60306872D01*
X72208433Y-60323797D01*
X72107712Y-60345206D01*
X72101682Y-60347891D01*
X72101681Y-60347891D01*
X71939278Y-60420197D01*
X71939276Y-60420198D01*
X71933248Y-60422882D01*
X71778747Y-60535134D01*
X71774326Y-60540044D01*
X71774325Y-60540045D01*
X71656560Y-60670837D01*
X71650960Y-60677056D01*
X71555473Y-60842444D01*
X71496458Y-61024072D01*
X71495768Y-61030633D01*
X71495768Y-61030635D01*
X71493537Y-61051865D01*
X71476496Y-61214000D01*
X71477186Y-61220565D01*
X71494236Y-61382783D01*
X71496458Y-61403928D01*
X71516627Y-61466002D01*
X71518655Y-61536968D01*
X71490430Y-61589247D01*
X71430441Y-61655872D01*
X71396960Y-61693056D01*
X71363725Y-61750620D01*
X71317413Y-61830836D01*
X71301473Y-61858444D01*
X71242458Y-62040072D01*
X71241768Y-62046633D01*
X71241768Y-62046635D01*
X71231450Y-62144810D01*
X71222496Y-62230000D01*
X63651504Y-62230000D01*
X63642550Y-62144810D01*
X63632232Y-62046635D01*
X63632232Y-62046633D01*
X63631542Y-62040072D01*
X63572527Y-61858444D01*
X63556588Y-61830836D01*
X63510275Y-61750620D01*
X63477040Y-61693056D01*
X63461045Y-61675291D01*
X63353675Y-61556045D01*
X63353674Y-61556044D01*
X63349253Y-61551134D01*
X63194752Y-61438882D01*
X63188724Y-61436198D01*
X63188722Y-61436197D01*
X63026319Y-61363891D01*
X63026318Y-61363891D01*
X63020288Y-61361206D01*
X62923999Y-61340739D01*
X62839944Y-61322872D01*
X62839939Y-61322872D01*
X62833487Y-61321500D01*
X62642513Y-61321500D01*
X62636061Y-61322872D01*
X62636056Y-61322872D01*
X62552001Y-61340739D01*
X62455712Y-61361206D01*
X62449682Y-61363891D01*
X62449681Y-61363891D01*
X62407249Y-61382783D01*
X62336882Y-61392217D01*
X62272585Y-61362110D01*
X62234771Y-61302022D01*
X62230000Y-61267676D01*
X62230000Y-60689068D01*
X64669296Y-60689068D01*
X64669986Y-60695633D01*
X64685810Y-60846187D01*
X64689258Y-60878996D01*
X64748273Y-61060624D01*
X64843760Y-61226012D01*
X64848178Y-61230919D01*
X64848179Y-61230920D01*
X64964254Y-61359834D01*
X64971547Y-61367934D01*
X65126048Y-61480186D01*
X65132076Y-61482870D01*
X65132078Y-61482871D01*
X65294481Y-61555177D01*
X65300512Y-61557862D01*
X65367506Y-61572102D01*
X65480856Y-61596196D01*
X65480861Y-61596196D01*
X65487313Y-61597568D01*
X65678287Y-61597568D01*
X65684739Y-61596196D01*
X65684744Y-61596196D01*
X65798094Y-61572102D01*
X65865088Y-61557862D01*
X65877206Y-61552467D01*
X66005684Y-61495265D01*
X66076051Y-61485831D01*
X66108182Y-61495265D01*
X66236661Y-61552467D01*
X66248778Y-61557862D01*
X66315772Y-61572102D01*
X66429122Y-61596196D01*
X66429127Y-61596196D01*
X66435579Y-61597568D01*
X66626553Y-61597568D01*
X66633005Y-61596196D01*
X66633010Y-61596196D01*
X66746360Y-61572102D01*
X66813354Y-61557862D01*
X66825472Y-61552467D01*
X66953950Y-61495265D01*
X67024317Y-61485831D01*
X67056448Y-61495265D01*
X67184927Y-61552467D01*
X67197044Y-61557862D01*
X67264038Y-61572102D01*
X67377388Y-61596196D01*
X67377393Y-61596196D01*
X67383845Y-61597568D01*
X67574819Y-61597568D01*
X67581271Y-61596196D01*
X67581276Y-61596196D01*
X67694626Y-61572102D01*
X67761620Y-61557862D01*
X67767651Y-61555177D01*
X67930054Y-61482871D01*
X67930056Y-61482870D01*
X67936084Y-61480186D01*
X68090585Y-61367934D01*
X68097878Y-61359834D01*
X68213953Y-61230920D01*
X68213954Y-61230919D01*
X68218372Y-61226012D01*
X68313859Y-61060624D01*
X68372874Y-60878996D01*
X68384267Y-60770594D01*
X68411280Y-60704938D01*
X68469501Y-60664308D01*
X68509577Y-60657765D01*
X68523087Y-60657765D01*
X68529539Y-60656393D01*
X68529544Y-60656393D01*
X68616488Y-60637912D01*
X68709888Y-60618059D01*
X68715919Y-60615374D01*
X68878322Y-60543068D01*
X68878324Y-60543067D01*
X68884352Y-60540383D01*
X69038853Y-60428131D01*
X69120661Y-60337274D01*
X69162221Y-60291117D01*
X69162222Y-60291116D01*
X69166640Y-60286209D01*
X69262127Y-60120821D01*
X69321142Y-59939193D01*
X69325445Y-59898257D01*
X69340414Y-59755830D01*
X69341104Y-59749265D01*
X69335564Y-59696558D01*
X69321832Y-59565900D01*
X69321832Y-59565898D01*
X69321142Y-59559337D01*
X69262127Y-59377709D01*
X69236832Y-59333898D01*
X69220095Y-59264904D01*
X69236832Y-59207900D01*
X69262127Y-59164088D01*
X69321142Y-58982460D01*
X69322251Y-58971915D01*
X69340414Y-58799097D01*
X69341104Y-58792532D01*
X69338832Y-58770915D01*
X69321832Y-58609167D01*
X69321832Y-58609165D01*
X69321142Y-58602604D01*
X69262127Y-58420976D01*
X69236832Y-58377165D01*
X69220095Y-58308171D01*
X69224535Y-58293049D01*
X71151884Y-58293049D01*
X71152574Y-58299614D01*
X71165330Y-58420976D01*
X71171846Y-58482977D01*
X71230861Y-58664605D01*
X71326348Y-58829993D01*
X71330766Y-58834900D01*
X71330767Y-58834901D01*
X71449713Y-58967004D01*
X71454135Y-58971915D01*
X71531454Y-59028091D01*
X71583362Y-59065804D01*
X71608636Y-59084167D01*
X71614664Y-59086851D01*
X71614666Y-59086852D01*
X71774026Y-59157803D01*
X71783100Y-59161843D01*
X71789555Y-59163215D01*
X71789564Y-59163218D01*
X71813986Y-59168409D01*
X71876459Y-59202137D01*
X71907621Y-59252718D01*
X71955361Y-59399647D01*
X72050848Y-59565035D01*
X72055266Y-59569942D01*
X72055267Y-59569943D01*
X72130747Y-59653772D01*
X72178635Y-59706957D01*
X72227831Y-59742700D01*
X72307628Y-59800676D01*
X72333136Y-59819209D01*
X72339164Y-59821893D01*
X72339166Y-59821894D01*
X72480609Y-59884868D01*
X72507600Y-59896885D01*
X72600525Y-59916637D01*
X72687944Y-59935219D01*
X72687949Y-59935219D01*
X72694401Y-59936591D01*
X72885375Y-59936591D01*
X72891827Y-59935219D01*
X72891832Y-59935219D01*
X72979251Y-59916637D01*
X73072176Y-59896885D01*
X73099167Y-59884868D01*
X73240610Y-59821894D01*
X73240612Y-59821893D01*
X73246640Y-59819209D01*
X73272149Y-59800676D01*
X73351945Y-59742700D01*
X73401141Y-59706957D01*
X73449029Y-59653772D01*
X73524509Y-59569943D01*
X73524510Y-59569942D01*
X73528928Y-59565035D01*
X73624415Y-59399647D01*
X73683430Y-59218019D01*
X73685988Y-59193686D01*
X73702702Y-59034656D01*
X73703392Y-59028091D01*
X73683430Y-58838163D01*
X73624415Y-58656535D01*
X73528928Y-58491147D01*
X73515663Y-58476414D01*
X73405563Y-58354136D01*
X73405562Y-58354135D01*
X73401141Y-58349225D01*
X73246640Y-58236973D01*
X73240612Y-58234289D01*
X73240610Y-58234288D01*
X73078207Y-58161982D01*
X73078206Y-58161982D01*
X73072176Y-58159297D01*
X73065721Y-58157925D01*
X73065712Y-58157922D01*
X73041290Y-58152731D01*
X72978817Y-58119003D01*
X72947655Y-58068421D01*
X72934414Y-58027668D01*
X72899915Y-57921493D01*
X72882427Y-57891202D01*
X72859977Y-57852318D01*
X72804428Y-57756105D01*
X72798584Y-57749614D01*
X72681063Y-57619094D01*
X72681062Y-57619093D01*
X72676641Y-57614183D01*
X72522140Y-57501931D01*
X72516112Y-57499247D01*
X72516110Y-57499246D01*
X72353707Y-57426940D01*
X72353706Y-57426940D01*
X72347676Y-57424255D01*
X72254275Y-57404402D01*
X72167332Y-57385921D01*
X72167327Y-57385921D01*
X72160875Y-57384549D01*
X71969901Y-57384549D01*
X71963449Y-57385921D01*
X71963444Y-57385921D01*
X71876501Y-57404402D01*
X71783100Y-57424255D01*
X71777070Y-57426940D01*
X71777069Y-57426940D01*
X71614666Y-57499246D01*
X71614664Y-57499247D01*
X71608636Y-57501931D01*
X71454135Y-57614183D01*
X71449714Y-57619093D01*
X71449713Y-57619094D01*
X71332193Y-57749614D01*
X71326348Y-57756105D01*
X71270799Y-57852318D01*
X71248350Y-57891202D01*
X71230861Y-57921493D01*
X71171846Y-58103121D01*
X71171156Y-58109682D01*
X71171156Y-58109684D01*
X71159154Y-58223874D01*
X71151884Y-58293049D01*
X69224535Y-58293049D01*
X69236832Y-58251167D01*
X69246577Y-58234288D01*
X69262127Y-58207355D01*
X69321142Y-58025727D01*
X69341104Y-57835799D01*
X69336911Y-57795906D01*
X69321832Y-57652434D01*
X69321832Y-57652432D01*
X69321142Y-57645871D01*
X69262127Y-57464243D01*
X69236832Y-57420432D01*
X69220095Y-57351438D01*
X69236832Y-57294434D01*
X69244709Y-57280791D01*
X69262127Y-57250622D01*
X69321142Y-57068994D01*
X69321867Y-57062102D01*
X69340414Y-56885631D01*
X69341104Y-56879066D01*
X69337741Y-56847065D01*
X69321832Y-56695701D01*
X69321831Y-56695698D01*
X69321142Y-56689138D01*
X69262127Y-56507510D01*
X69236832Y-56463699D01*
X69220095Y-56394705D01*
X69236832Y-56337701D01*
X69238620Y-56334604D01*
X69262127Y-56293889D01*
X69321142Y-56112261D01*
X69322428Y-56100032D01*
X69340414Y-55928898D01*
X69341104Y-55922333D01*
X69321142Y-55732405D01*
X69262127Y-55550777D01*
X69233573Y-55501321D01*
X69216836Y-55432329D01*
X69233574Y-55375323D01*
X69258823Y-55331591D01*
X69258824Y-55331590D01*
X69262127Y-55325868D01*
X69321142Y-55144240D01*
X69323900Y-55118000D01*
X73254496Y-55118000D01*
X73255186Y-55124562D01*
X73271803Y-55282663D01*
X73274458Y-55307928D01*
X73333473Y-55489556D01*
X73336776Y-55495278D01*
X73336777Y-55495279D01*
X73355410Y-55527552D01*
X73428960Y-55654944D01*
X73433378Y-55659851D01*
X73433379Y-55659852D01*
X73482042Y-55713898D01*
X73556747Y-55796866D01*
X73711248Y-55909118D01*
X73717276Y-55911802D01*
X73717278Y-55911803D01*
X73879681Y-55984109D01*
X73885712Y-55986794D01*
X73979113Y-56006647D01*
X74066056Y-56025128D01*
X74066061Y-56025128D01*
X74072513Y-56026500D01*
X74263487Y-56026500D01*
X74269939Y-56025128D01*
X74269944Y-56025128D01*
X74356887Y-56006647D01*
X74450288Y-55986794D01*
X74456319Y-55984109D01*
X74618722Y-55911803D01*
X74618724Y-55911802D01*
X74624752Y-55909118D01*
X74779253Y-55796866D01*
X74853958Y-55713898D01*
X74902621Y-55659852D01*
X74902622Y-55659851D01*
X74907040Y-55654944D01*
X74980590Y-55527552D01*
X74999223Y-55495279D01*
X74999224Y-55495278D01*
X75002527Y-55489556D01*
X75061542Y-55307928D01*
X75064198Y-55282663D01*
X75080814Y-55124562D01*
X75081504Y-55118000D01*
X75061542Y-54928072D01*
X75002527Y-54746444D01*
X74946927Y-54650142D01*
X77517166Y-54650142D01*
X77517856Y-54656707D01*
X77524075Y-54715873D01*
X77537128Y-54840070D01*
X77596143Y-55021698D01*
X77691630Y-55187086D01*
X77696048Y-55191993D01*
X77696049Y-55191994D01*
X77806089Y-55314206D01*
X77819417Y-55329008D01*
X77874746Y-55369207D01*
X77966929Y-55436182D01*
X77973918Y-55441260D01*
X77979946Y-55443944D01*
X77979948Y-55443945D01*
X78064460Y-55481572D01*
X78118556Y-55527552D01*
X78139205Y-55595480D01*
X78122331Y-55659678D01*
X78100007Y-55698344D01*
X78040992Y-55879972D01*
X78040302Y-55886533D01*
X78040302Y-55886535D01*
X78037825Y-55910104D01*
X78021030Y-56069900D01*
X78040992Y-56259828D01*
X78100007Y-56441456D01*
X78103310Y-56447178D01*
X78103311Y-56447179D01*
X78188498Y-56594727D01*
X78205236Y-56663722D01*
X78182016Y-56730814D01*
X78153440Y-56759663D01*
X78033142Y-56847065D01*
X78028721Y-56851975D01*
X78028720Y-56851976D01*
X78016187Y-56865896D01*
X77905355Y-56988987D01*
X77888233Y-57018643D01*
X77836922Y-57107517D01*
X77809868Y-57154375D01*
X77750853Y-57336003D01*
X77750163Y-57342564D01*
X77750163Y-57342566D01*
X77735785Y-57479363D01*
X77730891Y-57525931D01*
X77731581Y-57532496D01*
X77747297Y-57682022D01*
X77750853Y-57715859D01*
X77809868Y-57897487D01*
X77813171Y-57903209D01*
X77813172Y-57903210D01*
X77847081Y-57961941D01*
X77905355Y-58062875D01*
X77909773Y-58067782D01*
X77909774Y-58067783D01*
X78022740Y-58193244D01*
X78033142Y-58204797D01*
X78082770Y-58240854D01*
X78175424Y-58308171D01*
X78187643Y-58317049D01*
X78193671Y-58319733D01*
X78193673Y-58319734D01*
X78356076Y-58392040D01*
X78362107Y-58394725D01*
X78513297Y-58426862D01*
X78575769Y-58460589D01*
X78606932Y-58511171D01*
X78634309Y-58595430D01*
X78729796Y-58760818D01*
X78734214Y-58765725D01*
X78734215Y-58765726D01*
X78853161Y-58897829D01*
X78857583Y-58902740D01*
X78946591Y-58967408D01*
X78991286Y-58999881D01*
X79012084Y-59014992D01*
X79018112Y-59017676D01*
X79018114Y-59017677D01*
X79126210Y-59065804D01*
X79186548Y-59092668D01*
X79279948Y-59112521D01*
X79366892Y-59131002D01*
X79366897Y-59131002D01*
X79373349Y-59132374D01*
X79564323Y-59132374D01*
X79570775Y-59131002D01*
X79570780Y-59131002D01*
X79657724Y-59112521D01*
X79751124Y-59092668D01*
X79811462Y-59065804D01*
X79919558Y-59017677D01*
X79919560Y-59017676D01*
X79925588Y-59014992D01*
X79946387Y-58999881D01*
X79991081Y-58967408D01*
X80080089Y-58902740D01*
X80084511Y-58897829D01*
X80203457Y-58765726D01*
X80203458Y-58765725D01*
X80207876Y-58760818D01*
X80303363Y-58595430D01*
X80362378Y-58413802D01*
X80366229Y-58377167D01*
X80381650Y-58230439D01*
X80382340Y-58223874D01*
X80370338Y-58109684D01*
X80363068Y-58040509D01*
X80363068Y-58040507D01*
X80362378Y-58033946D01*
X80303363Y-57852318D01*
X80294809Y-57837501D01*
X80211177Y-57692648D01*
X80207876Y-57686930D01*
X80170907Y-57645871D01*
X80084511Y-57549919D01*
X80084510Y-57549918D01*
X80080089Y-57545008D01*
X79980306Y-57472511D01*
X79930930Y-57436637D01*
X79930929Y-57436636D01*
X79925588Y-57432756D01*
X79919560Y-57430072D01*
X79919558Y-57430071D01*
X79757155Y-57357765D01*
X79757154Y-57357765D01*
X79751124Y-57355080D01*
X79599934Y-57322943D01*
X79537462Y-57289216D01*
X79506299Y-57238633D01*
X79501766Y-57224680D01*
X79478922Y-57154375D01*
X79454704Y-57112428D01*
X79390431Y-57001104D01*
X79373693Y-56932109D01*
X79396913Y-56865017D01*
X79425489Y-56836168D01*
X79476876Y-56798833D01*
X79545787Y-56748766D01*
X79673574Y-56606844D01*
X79769061Y-56441456D01*
X79828076Y-56259828D01*
X79848038Y-56069900D01*
X79831243Y-55910104D01*
X79828766Y-55886535D01*
X79828766Y-55886533D01*
X79828076Y-55879972D01*
X79769061Y-55698344D01*
X79765004Y-55691316D01*
X79695393Y-55570748D01*
X79673574Y-55532956D01*
X79660951Y-55518936D01*
X79550209Y-55395945D01*
X79550208Y-55395944D01*
X79545787Y-55391034D01*
X79391286Y-55278782D01*
X79385258Y-55276098D01*
X79385256Y-55276097D01*
X79300744Y-55238470D01*
X79246648Y-55192490D01*
X79225999Y-55124562D01*
X79242873Y-55060364D01*
X79265197Y-55021698D01*
X79324212Y-54840070D01*
X79337266Y-54715873D01*
X79343484Y-54656707D01*
X79344174Y-54650142D01*
X79338442Y-54595605D01*
X79324902Y-54466777D01*
X79324902Y-54466775D01*
X79324212Y-54460214D01*
X79265197Y-54278586D01*
X79248235Y-54249206D01*
X79173011Y-54118916D01*
X79169710Y-54113198D01*
X79147205Y-54088203D01*
X79046345Y-53976187D01*
X79046344Y-53976186D01*
X79041923Y-53971276D01*
X78887422Y-53859024D01*
X78881394Y-53856340D01*
X78881392Y-53856339D01*
X78718989Y-53784033D01*
X78718988Y-53784033D01*
X78712958Y-53781348D01*
X78619558Y-53761495D01*
X78532614Y-53743014D01*
X78532609Y-53743014D01*
X78526157Y-53741642D01*
X78335183Y-53741642D01*
X78328731Y-53743014D01*
X78328726Y-53743014D01*
X78241782Y-53761495D01*
X78148382Y-53781348D01*
X78142352Y-53784033D01*
X78142351Y-53784033D01*
X77979948Y-53856339D01*
X77979946Y-53856340D01*
X77973918Y-53859024D01*
X77819417Y-53971276D01*
X77814996Y-53976186D01*
X77814995Y-53976187D01*
X77714136Y-54088203D01*
X77691630Y-54113198D01*
X77688329Y-54118916D01*
X77613106Y-54249206D01*
X77596143Y-54278586D01*
X77537128Y-54460214D01*
X77536438Y-54466775D01*
X77536438Y-54466777D01*
X77522898Y-54595605D01*
X77517166Y-54650142D01*
X74946927Y-54650142D01*
X74907040Y-54581056D01*
X74798234Y-54460214D01*
X74783675Y-54444045D01*
X74783674Y-54444044D01*
X74779253Y-54439134D01*
X74624752Y-54326882D01*
X74618724Y-54324198D01*
X74618722Y-54324197D01*
X74456319Y-54251891D01*
X74456318Y-54251891D01*
X74450288Y-54249206D01*
X74337740Y-54225283D01*
X74269944Y-54210872D01*
X74269939Y-54210872D01*
X74263487Y-54209500D01*
X74072513Y-54209500D01*
X74066061Y-54210872D01*
X74066056Y-54210872D01*
X73998260Y-54225283D01*
X73885712Y-54249206D01*
X73879682Y-54251891D01*
X73879681Y-54251891D01*
X73717278Y-54324197D01*
X73717276Y-54324198D01*
X73711248Y-54326882D01*
X73556747Y-54439134D01*
X73552326Y-54444044D01*
X73552325Y-54444045D01*
X73537767Y-54460214D01*
X73428960Y-54581056D01*
X73333473Y-54746444D01*
X73274458Y-54928072D01*
X73254496Y-55118000D01*
X69323900Y-55118000D01*
X69326931Y-55089166D01*
X69340414Y-54960877D01*
X69341104Y-54954312D01*
X69321142Y-54764384D01*
X69262127Y-54582756D01*
X69166640Y-54417368D01*
X69038853Y-54275446D01*
X68884352Y-54163194D01*
X68878324Y-54160510D01*
X68878322Y-54160509D01*
X68715919Y-54088203D01*
X68715918Y-54088203D01*
X68709888Y-54085518D01*
X68616487Y-54065665D01*
X68529544Y-54047184D01*
X68529539Y-54047184D01*
X68523087Y-54045812D01*
X68332113Y-54045812D01*
X68325661Y-54047184D01*
X68325656Y-54047184D01*
X68238713Y-54065665D01*
X68145312Y-54085518D01*
X68004713Y-54148116D01*
X67934348Y-54157550D01*
X67902220Y-54148117D01*
X67761620Y-54085518D01*
X67668219Y-54065665D01*
X67581276Y-54047184D01*
X67581271Y-54047184D01*
X67574819Y-54045812D01*
X67383845Y-54045812D01*
X67377393Y-54047184D01*
X67377388Y-54047184D01*
X67290445Y-54065665D01*
X67197044Y-54085518D01*
X67191014Y-54088203D01*
X67191013Y-54088203D01*
X67056448Y-54148115D01*
X66986081Y-54157549D01*
X66953950Y-54148115D01*
X66819385Y-54088203D01*
X66819384Y-54088203D01*
X66813354Y-54085518D01*
X66719953Y-54065665D01*
X66633010Y-54047184D01*
X66633005Y-54047184D01*
X66626553Y-54045812D01*
X66435579Y-54045812D01*
X66429127Y-54047184D01*
X66429122Y-54047184D01*
X66342179Y-54065665D01*
X66248778Y-54085518D01*
X66242748Y-54088203D01*
X66242747Y-54088203D01*
X66108182Y-54148115D01*
X66037815Y-54157549D01*
X66005684Y-54148115D01*
X65871119Y-54088203D01*
X65871118Y-54088203D01*
X65865088Y-54085518D01*
X65771687Y-54065665D01*
X65684744Y-54047184D01*
X65684739Y-54047184D01*
X65678287Y-54045812D01*
X65487313Y-54045812D01*
X65480861Y-54047184D01*
X65480856Y-54047184D01*
X65393913Y-54065665D01*
X65300512Y-54085518D01*
X65294482Y-54088203D01*
X65294481Y-54088203D01*
X65132078Y-54160509D01*
X65132076Y-54160510D01*
X65126048Y-54163194D01*
X64971547Y-54275446D01*
X64843760Y-54417368D01*
X64748273Y-54582756D01*
X64689258Y-54764384D01*
X64669296Y-54954312D01*
X64669986Y-54960877D01*
X64683470Y-55089166D01*
X64689258Y-55144240D01*
X64748273Y-55325868D01*
X64773297Y-55369210D01*
X64790034Y-55438202D01*
X64773297Y-55495206D01*
X64748273Y-55538548D01*
X64689258Y-55720176D01*
X64688568Y-55726737D01*
X64688568Y-55726739D01*
X64678625Y-55821340D01*
X64669296Y-55910104D01*
X64669986Y-55916669D01*
X64681530Y-56026500D01*
X64689258Y-56100032D01*
X64748273Y-56281660D01*
X64773297Y-56325002D01*
X64790034Y-56393994D01*
X64773297Y-56450998D01*
X64748273Y-56494340D01*
X64689258Y-56675968D01*
X64688568Y-56682529D01*
X64688568Y-56682531D01*
X64671683Y-56843182D01*
X64669296Y-56865896D01*
X64669986Y-56872461D01*
X64686812Y-57032548D01*
X64689258Y-57055824D01*
X64748273Y-57237452D01*
X64773297Y-57280794D01*
X64790034Y-57349786D01*
X64773297Y-57406790D01*
X64748273Y-57450132D01*
X64689258Y-57631760D01*
X64669296Y-57821688D01*
X64669986Y-57828253D01*
X64684790Y-57969101D01*
X64689258Y-58011616D01*
X64748273Y-58193244D01*
X64773297Y-58236586D01*
X64790034Y-58305578D01*
X64773297Y-58362582D01*
X64748273Y-58405924D01*
X64689258Y-58587552D01*
X64688568Y-58594113D01*
X64688568Y-58594115D01*
X64671648Y-58755100D01*
X64669296Y-58777480D01*
X64669986Y-58784045D01*
X64685968Y-58936102D01*
X64689258Y-58967408D01*
X64748273Y-59149036D01*
X64773297Y-59192378D01*
X64790034Y-59261370D01*
X64773297Y-59318374D01*
X64748273Y-59361716D01*
X64689258Y-59543344D01*
X64688568Y-59549905D01*
X64688568Y-59549907D01*
X64677680Y-59653500D01*
X64669296Y-59733272D01*
X64669986Y-59739837D01*
X64686007Y-59892264D01*
X64689258Y-59923200D01*
X64748273Y-60104828D01*
X64773298Y-60148172D01*
X64790035Y-60217164D01*
X64773298Y-60274168D01*
X64748273Y-60317512D01*
X64689258Y-60499140D01*
X64688568Y-60505701D01*
X64688568Y-60505703D01*
X64678121Y-60605101D01*
X64669296Y-60689068D01*
X62230000Y-60689068D01*
X62230000Y-52847373D01*
X78970923Y-52847373D01*
X78971613Y-52853938D01*
X78987135Y-53001617D01*
X78990885Y-53037301D01*
X79049900Y-53218929D01*
X79145387Y-53384317D01*
X79149805Y-53389224D01*
X79149806Y-53389225D01*
X79182337Y-53425354D01*
X79273174Y-53526239D01*
X79427675Y-53638491D01*
X79433703Y-53641175D01*
X79433705Y-53641176D01*
X79582562Y-53707451D01*
X79602139Y-53716167D01*
X79695539Y-53736020D01*
X79782483Y-53754501D01*
X79782488Y-53754501D01*
X79788940Y-53755873D01*
X79979914Y-53755873D01*
X79986366Y-53754501D01*
X79986371Y-53754501D01*
X80073315Y-53736020D01*
X80166715Y-53716167D01*
X80186292Y-53707451D01*
X80335149Y-53641176D01*
X80335151Y-53641175D01*
X80341179Y-53638491D01*
X80422732Y-53579239D01*
X80489600Y-53555381D01*
X80558751Y-53571461D01*
X80608231Y-53622375D01*
X80622331Y-53691957D01*
X80619256Y-53707290D01*
X80620014Y-53707451D01*
X80618640Y-53713912D01*
X80616601Y-53720189D01*
X80615911Y-53726750D01*
X80615911Y-53726752D01*
X80610317Y-53779976D01*
X80596639Y-53910117D01*
X80597329Y-53916682D01*
X80609142Y-54029072D01*
X80616601Y-54100045D01*
X80675616Y-54281673D01*
X80771103Y-54447061D01*
X80775521Y-54451968D01*
X80775522Y-54451969D01*
X80893283Y-54582756D01*
X80898890Y-54588983D01*
X80949443Y-54625712D01*
X81032147Y-54685800D01*
X81053391Y-54701235D01*
X81059419Y-54703919D01*
X81059421Y-54703920D01*
X81209967Y-54770947D01*
X81227855Y-54778911D01*
X81321256Y-54798764D01*
X81408199Y-54817245D01*
X81408204Y-54817245D01*
X81414656Y-54818617D01*
X81605630Y-54818617D01*
X81612082Y-54817245D01*
X81612087Y-54817245D01*
X81699030Y-54798764D01*
X81792431Y-54778911D01*
X81810319Y-54770947D01*
X81960865Y-54703920D01*
X81960867Y-54703919D01*
X81966895Y-54701235D01*
X81988140Y-54685800D01*
X82099297Y-54605039D01*
X82113481Y-54594734D01*
X82180347Y-54570876D01*
X82250545Y-54587553D01*
X82256062Y-54590739D01*
X82261407Y-54594622D01*
X82267436Y-54597306D01*
X82267439Y-54597308D01*
X82429840Y-54669613D01*
X82435871Y-54672298D01*
X82499393Y-54685800D01*
X82616215Y-54710632D01*
X82616220Y-54710632D01*
X82622672Y-54712004D01*
X82813646Y-54712004D01*
X82820098Y-54710632D01*
X82820103Y-54710632D01*
X82936925Y-54685800D01*
X83000447Y-54672298D01*
X83050211Y-54650142D01*
X83151514Y-54605039D01*
X83221881Y-54595605D01*
X83286178Y-54625712D01*
X83323992Y-54685800D01*
X83328073Y-54733316D01*
X83310634Y-54899238D01*
X83330596Y-55089166D01*
X83389611Y-55270794D01*
X83392914Y-55276516D01*
X83392915Y-55276517D01*
X83407261Y-55301365D01*
X83485098Y-55436182D01*
X83489516Y-55441089D01*
X83489517Y-55441090D01*
X83577269Y-55538548D01*
X83612885Y-55578104D01*
X83618227Y-55581985D01*
X83618229Y-55581987D01*
X83691325Y-55635094D01*
X83734679Y-55691316D01*
X83740754Y-55762052D01*
X83710902Y-55821339D01*
X83643120Y-55896618D01*
X83603764Y-55964784D01*
X83568925Y-56025128D01*
X83547633Y-56062006D01*
X83488618Y-56243634D01*
X83487928Y-56250195D01*
X83487928Y-56250197D01*
X83483336Y-56293889D01*
X83468656Y-56433562D01*
X83469346Y-56440127D01*
X83476888Y-56511881D01*
X83488618Y-56623490D01*
X83547633Y-56805118D01*
X83550936Y-56810840D01*
X83550937Y-56810841D01*
X83578933Y-56859331D01*
X83643120Y-56970506D01*
X83647538Y-56975413D01*
X83647539Y-56975414D01*
X83751078Y-57090406D01*
X83770907Y-57112428D01*
X83925408Y-57224680D01*
X83931436Y-57227364D01*
X83931438Y-57227365D01*
X84093841Y-57299671D01*
X84099872Y-57302356D01*
X84181017Y-57319604D01*
X84280216Y-57340690D01*
X84280221Y-57340690D01*
X84286673Y-57342062D01*
X84477647Y-57342062D01*
X84484099Y-57340690D01*
X84484104Y-57340690D01*
X84524115Y-57332185D01*
X84594906Y-57337587D01*
X84651539Y-57380404D01*
X84672019Y-57422820D01*
X84699648Y-57525931D01*
X84705961Y-57549493D01*
X84708283Y-57554474D01*
X84708284Y-57554475D01*
X84794851Y-57740119D01*
X84794854Y-57740124D01*
X84797177Y-57745106D01*
X84856084Y-57829234D01*
X84916678Y-57915770D01*
X84920975Y-57921907D01*
X85073593Y-58074525D01*
X85250394Y-58198323D01*
X85255376Y-58200646D01*
X85255381Y-58200649D01*
X85441025Y-58287216D01*
X85446007Y-58289539D01*
X85451315Y-58290961D01*
X85451317Y-58290962D01*
X85649172Y-58343977D01*
X85649174Y-58343977D01*
X85654487Y-58345401D01*
X85869500Y-58364212D01*
X86084513Y-58345401D01*
X86089826Y-58343977D01*
X86089828Y-58343977D01*
X86287683Y-58290962D01*
X86287685Y-58290961D01*
X86292993Y-58289539D01*
X86297975Y-58287216D01*
X86483619Y-58200649D01*
X86483624Y-58200646D01*
X86488606Y-58198323D01*
X86665407Y-58074525D01*
X86818025Y-57921907D01*
X86822323Y-57915770D01*
X86882916Y-57829234D01*
X86906253Y-57795905D01*
X86961709Y-57751578D01*
X87032328Y-57744269D01*
X87095689Y-57776300D01*
X87131674Y-57837501D01*
X87134161Y-57886257D01*
X87108553Y-58062875D01*
X87107287Y-58071604D01*
X87117067Y-58282899D01*
X87118471Y-58288724D01*
X87118471Y-58288725D01*
X87150344Y-58420976D01*
X87166625Y-58488534D01*
X87169107Y-58493992D01*
X87169108Y-58493996D01*
X87211646Y-58587552D01*
X87254174Y-58681087D01*
X87376554Y-58853611D01*
X87380881Y-58857753D01*
X87504193Y-58975798D01*
X87529350Y-58999881D01*
X87707048Y-59114620D01*
X87712614Y-59116863D01*
X87897668Y-59191442D01*
X87897671Y-59191443D01*
X87903237Y-59193686D01*
X88110837Y-59234228D01*
X88116399Y-59234500D01*
X88972346Y-59234500D01*
X89130066Y-59219452D01*
X89333034Y-59159908D01*
X89343041Y-59154754D01*
X89515749Y-59065804D01*
X89515752Y-59065802D01*
X89521080Y-59063058D01*
X89687420Y-58932396D01*
X89691352Y-58927865D01*
X89691355Y-58927862D01*
X89822121Y-58777167D01*
X89826052Y-58772637D01*
X89829052Y-58767451D01*
X89829055Y-58767447D01*
X89928967Y-58594742D01*
X89931973Y-58589546D01*
X90001361Y-58389729D01*
X90002222Y-58383792D01*
X90030852Y-58186336D01*
X90030852Y-58186333D01*
X90031713Y-58180396D01*
X90021933Y-57969101D01*
X89987989Y-57828253D01*
X89973781Y-57769299D01*
X89973780Y-57769297D01*
X89972375Y-57763466D01*
X89969029Y-57756105D01*
X89887306Y-57576368D01*
X89884826Y-57570913D01*
X89762446Y-57398389D01*
X89609650Y-57252119D01*
X89431952Y-57137380D01*
X89357852Y-57107517D01*
X89241332Y-57060558D01*
X89241329Y-57060557D01*
X89235763Y-57058314D01*
X89028163Y-57017772D01*
X89022601Y-57017500D01*
X88166654Y-57017500D01*
X88008934Y-57032548D01*
X87805966Y-57092092D01*
X87800639Y-57094836D01*
X87800638Y-57094836D01*
X87623251Y-57186196D01*
X87623248Y-57186198D01*
X87617920Y-57188942D01*
X87451580Y-57319604D01*
X87447648Y-57324135D01*
X87447645Y-57324138D01*
X87350024Y-57436637D01*
X87312948Y-57479363D01*
X87309946Y-57484553D01*
X87304186Y-57494508D01*
X87252759Y-57543455D01*
X87183033Y-57556828D01*
X87117146Y-57530381D01*
X87076017Y-57472511D01*
X87073418Y-57398797D01*
X87087476Y-57346335D01*
X87087478Y-57346324D01*
X87088901Y-57341013D01*
X87107712Y-57126000D01*
X87088901Y-56910987D01*
X87076819Y-56865896D01*
X87034462Y-56707817D01*
X87034461Y-56707815D01*
X87033039Y-56702507D01*
X87026805Y-56689138D01*
X86944149Y-56511881D01*
X86944146Y-56511876D01*
X86941823Y-56506894D01*
X86858572Y-56388000D01*
X86821184Y-56334604D01*
X86821182Y-56334601D01*
X86818025Y-56330093D01*
X86665407Y-56177475D01*
X86488606Y-56053677D01*
X86483624Y-56051354D01*
X86483619Y-56051351D01*
X86297975Y-55964784D01*
X86297974Y-55964783D01*
X86292993Y-55962461D01*
X86287685Y-55961039D01*
X86287683Y-55961038D01*
X86089828Y-55908023D01*
X86089826Y-55908023D01*
X86084513Y-55906599D01*
X85869500Y-55887788D01*
X85654487Y-55906599D01*
X85649174Y-55908023D01*
X85649172Y-55908023D01*
X85451317Y-55961038D01*
X85451315Y-55961039D01*
X85446007Y-55962461D01*
X85441026Y-55964783D01*
X85441025Y-55964784D01*
X85324688Y-56019033D01*
X85254496Y-56029694D01*
X85189684Y-56000714D01*
X85162319Y-55967838D01*
X85139837Y-55928898D01*
X85121200Y-55896618D01*
X85113250Y-55887788D01*
X84997835Y-55759607D01*
X84997834Y-55759606D01*
X84993413Y-55754696D01*
X84971766Y-55738968D01*
X84914973Y-55697706D01*
X84871619Y-55641484D01*
X84865544Y-55570748D01*
X84895397Y-55511460D01*
X84963178Y-55436182D01*
X85041015Y-55301365D01*
X85055361Y-55276517D01*
X85055362Y-55276516D01*
X85058665Y-55270794D01*
X85117680Y-55089166D01*
X85137642Y-54899238D01*
X85131423Y-54840070D01*
X85118370Y-54715873D01*
X85118370Y-54715871D01*
X85117680Y-54709310D01*
X85058665Y-54527682D01*
X84963178Y-54362294D01*
X84934788Y-54330763D01*
X84839813Y-54225283D01*
X84839812Y-54225282D01*
X84835391Y-54220372D01*
X84735938Y-54148115D01*
X84686232Y-54112001D01*
X84686231Y-54112000D01*
X84680890Y-54108120D01*
X84674862Y-54105436D01*
X84674860Y-54105435D01*
X84512457Y-54033129D01*
X84512456Y-54033129D01*
X84506426Y-54030444D01*
X84413026Y-54010591D01*
X84326082Y-53992110D01*
X84326077Y-53992110D01*
X84319625Y-53990738D01*
X84128651Y-53990738D01*
X84122199Y-53992110D01*
X84122194Y-53992110D01*
X84035251Y-54010591D01*
X83941850Y-54030444D01*
X83935820Y-54033129D01*
X83935819Y-54033129D01*
X83790783Y-54097703D01*
X83720416Y-54107137D01*
X83656119Y-54077030D01*
X83618305Y-54016942D01*
X83614224Y-53969425D01*
X83619768Y-53916682D01*
X83631663Y-53803504D01*
X83626513Y-53754501D01*
X83621992Y-53711486D01*
X83634764Y-53641648D01*
X83673240Y-53596381D01*
X83714706Y-53566253D01*
X83714707Y-53566252D01*
X83720053Y-53562368D01*
X83741489Y-53538561D01*
X83843421Y-53425354D01*
X83843422Y-53425353D01*
X83847840Y-53420446D01*
X83943327Y-53255058D01*
X84002342Y-53073430D01*
X84004801Y-53050039D01*
X84021614Y-52890067D01*
X84022304Y-52883502D01*
X84002342Y-52693574D01*
X83943327Y-52511946D01*
X83847840Y-52346558D01*
X83815310Y-52310429D01*
X83724475Y-52209547D01*
X83724474Y-52209546D01*
X83720053Y-52204636D01*
X83611820Y-52126000D01*
X84631288Y-52126000D01*
X84650099Y-52341013D01*
X84651523Y-52346326D01*
X84651523Y-52346328D01*
X84687904Y-52482102D01*
X84705961Y-52549493D01*
X84708283Y-52554474D01*
X84708284Y-52554475D01*
X84794851Y-52740119D01*
X84794854Y-52740124D01*
X84797177Y-52745106D01*
X84800334Y-52749614D01*
X84889487Y-52876937D01*
X84920975Y-52921907D01*
X85073593Y-53074525D01*
X85078101Y-53077682D01*
X85078104Y-53077684D01*
X85136945Y-53118885D01*
X85250394Y-53198323D01*
X85255376Y-53200646D01*
X85255381Y-53200649D01*
X85358584Y-53248773D01*
X85446007Y-53289539D01*
X85451315Y-53290961D01*
X85451317Y-53290962D01*
X85649172Y-53343977D01*
X85649174Y-53343977D01*
X85654487Y-53345401D01*
X85869500Y-53364212D01*
X86084513Y-53345401D01*
X86089826Y-53343977D01*
X86089828Y-53343977D01*
X86287683Y-53290962D01*
X86287685Y-53290961D01*
X86292993Y-53289539D01*
X86380416Y-53248773D01*
X86483619Y-53200649D01*
X86483624Y-53200646D01*
X86488606Y-53198323D01*
X86602055Y-53118885D01*
X86660896Y-53077684D01*
X86660899Y-53077682D01*
X86665407Y-53074525D01*
X86818025Y-52921907D01*
X86849514Y-52876937D01*
X86938666Y-52749614D01*
X86941823Y-52745106D01*
X86944146Y-52740124D01*
X86944149Y-52740119D01*
X87030716Y-52554475D01*
X87030717Y-52554474D01*
X87033039Y-52549493D01*
X87051097Y-52482102D01*
X87087477Y-52346328D01*
X87087477Y-52346326D01*
X87088901Y-52341013D01*
X87107712Y-52126000D01*
X87088901Y-51910987D01*
X87071278Y-51845216D01*
X87072968Y-51774239D01*
X87112762Y-51715444D01*
X87178027Y-51687496D01*
X87248040Y-51699270D01*
X87295754Y-51739704D01*
X87376554Y-51853611D01*
X87529350Y-51999881D01*
X87707048Y-52114620D01*
X87735286Y-52126000D01*
X87897668Y-52191442D01*
X87897671Y-52191443D01*
X87903237Y-52193686D01*
X88110837Y-52234228D01*
X88116399Y-52234500D01*
X88972346Y-52234500D01*
X89130066Y-52219452D01*
X89333034Y-52159908D01*
X89388240Y-52131475D01*
X89515749Y-52065804D01*
X89515752Y-52065802D01*
X89521080Y-52063058D01*
X89687420Y-51932396D01*
X89691352Y-51927865D01*
X89691355Y-51927862D01*
X89822121Y-51777167D01*
X89826052Y-51772637D01*
X89829052Y-51767451D01*
X89829055Y-51767447D01*
X89928967Y-51594742D01*
X89931973Y-51589546D01*
X90001361Y-51389729D01*
X90031713Y-51180396D01*
X90021933Y-50969101D01*
X89972375Y-50763466D01*
X89968875Y-50755767D01*
X89887306Y-50576368D01*
X89884826Y-50570913D01*
X89762446Y-50398389D01*
X89609650Y-50252119D01*
X89431952Y-50137380D01*
X89371854Y-50113160D01*
X89241332Y-50060558D01*
X89241329Y-50060557D01*
X89235763Y-50058314D01*
X89028163Y-50017772D01*
X89022601Y-50017500D01*
X88166654Y-50017500D01*
X88008934Y-50032548D01*
X87805966Y-50092092D01*
X87800639Y-50094836D01*
X87800638Y-50094836D01*
X87623251Y-50186196D01*
X87623248Y-50186198D01*
X87617920Y-50188942D01*
X87451580Y-50319604D01*
X87447648Y-50324135D01*
X87447645Y-50324138D01*
X87378974Y-50403275D01*
X87312948Y-50479363D01*
X87309948Y-50484549D01*
X87309945Y-50484553D01*
X87262812Y-50566026D01*
X87207027Y-50662454D01*
X87137639Y-50862271D01*
X87136778Y-50868206D01*
X87136778Y-50868208D01*
X87109429Y-51056834D01*
X87107287Y-51071604D01*
X87117067Y-51282899D01*
X87118471Y-51288724D01*
X87118471Y-51288725D01*
X87135491Y-51359347D01*
X87132006Y-51430258D01*
X87090737Y-51488028D01*
X87024786Y-51514315D01*
X86955093Y-51500774D01*
X86909785Y-51461139D01*
X86821184Y-51334604D01*
X86821182Y-51334601D01*
X86818025Y-51330093D01*
X86665407Y-51177475D01*
X86488606Y-51053677D01*
X86483624Y-51051354D01*
X86483619Y-51051351D01*
X86297975Y-50964784D01*
X86297974Y-50964783D01*
X86292993Y-50962461D01*
X86287685Y-50961039D01*
X86287683Y-50961038D01*
X86089828Y-50908023D01*
X86089826Y-50908023D01*
X86084513Y-50906599D01*
X85869500Y-50887788D01*
X85654487Y-50906599D01*
X85649174Y-50908023D01*
X85649172Y-50908023D01*
X85451317Y-50961038D01*
X85451315Y-50961039D01*
X85446007Y-50962461D01*
X85441026Y-50964783D01*
X85441025Y-50964784D01*
X85255381Y-51051351D01*
X85255376Y-51051354D01*
X85250394Y-51053677D01*
X85073593Y-51177475D01*
X84920975Y-51330093D01*
X84797177Y-51506894D01*
X84794854Y-51511876D01*
X84794851Y-51511881D01*
X84715949Y-51681087D01*
X84705961Y-51702507D01*
X84704539Y-51707815D01*
X84704538Y-51707817D01*
X84695994Y-51739705D01*
X84650099Y-51910987D01*
X84631288Y-52126000D01*
X83611820Y-52126000D01*
X83565552Y-52092384D01*
X83559524Y-52089700D01*
X83559522Y-52089699D01*
X83397119Y-52017393D01*
X83397118Y-52017393D01*
X83391088Y-52014708D01*
X83297687Y-51994855D01*
X83210744Y-51976374D01*
X83210739Y-51976374D01*
X83204287Y-51975002D01*
X83013313Y-51975002D01*
X83006861Y-51976374D01*
X83006856Y-51976374D01*
X82919913Y-51994855D01*
X82826512Y-52014708D01*
X82820482Y-52017393D01*
X82820481Y-52017393D01*
X82658078Y-52089699D01*
X82658076Y-52089700D01*
X82652048Y-52092384D01*
X82497547Y-52204636D01*
X82493126Y-52209546D01*
X82493125Y-52209547D01*
X82402291Y-52310429D01*
X82369760Y-52346558D01*
X82274273Y-52511946D01*
X82215258Y-52693574D01*
X82195296Y-52883502D01*
X82195986Y-52890067D01*
X82204967Y-52975520D01*
X82192195Y-53045358D01*
X82153720Y-53090624D01*
X82114824Y-53118885D01*
X82047957Y-53142745D01*
X81977757Y-53126068D01*
X81972240Y-53122882D01*
X81966895Y-53118999D01*
X81960866Y-53116315D01*
X81960863Y-53116313D01*
X81798462Y-53044008D01*
X81798461Y-53044008D01*
X81792431Y-53041323D01*
X81699030Y-53021470D01*
X81612087Y-53002989D01*
X81612082Y-53002989D01*
X81605630Y-53001617D01*
X81414656Y-53001617D01*
X81408204Y-53002989D01*
X81408199Y-53002989D01*
X81321255Y-53021470D01*
X81227855Y-53041323D01*
X81221825Y-53044008D01*
X81221824Y-53044008D01*
X81059421Y-53116314D01*
X81059419Y-53116315D01*
X81053391Y-53118999D01*
X81048050Y-53122879D01*
X81048049Y-53122880D01*
X80971838Y-53178251D01*
X80904970Y-53202109D01*
X80835819Y-53186029D01*
X80786339Y-53135115D01*
X80772239Y-53065533D01*
X80775314Y-53050200D01*
X80774556Y-53050039D01*
X80775930Y-53043578D01*
X80777969Y-53037301D01*
X80781720Y-53001617D01*
X80797241Y-52853938D01*
X80797931Y-52847373D01*
X80787656Y-52749614D01*
X80778659Y-52664008D01*
X80778659Y-52664006D01*
X80777969Y-52657445D01*
X80718954Y-52475817D01*
X80623467Y-52310429D01*
X80554856Y-52234228D01*
X80500102Y-52173418D01*
X80500101Y-52173417D01*
X80495680Y-52168507D01*
X80354322Y-52065804D01*
X80346521Y-52060136D01*
X80346520Y-52060135D01*
X80341179Y-52056255D01*
X80335151Y-52053571D01*
X80335149Y-52053570D01*
X80172746Y-51981264D01*
X80172745Y-51981264D01*
X80166715Y-51978579D01*
X80073314Y-51958726D01*
X79986371Y-51940245D01*
X79986366Y-51940245D01*
X79979914Y-51938873D01*
X79788940Y-51938873D01*
X79782488Y-51940245D01*
X79782483Y-51940245D01*
X79695539Y-51958726D01*
X79602139Y-51978579D01*
X79596109Y-51981264D01*
X79596108Y-51981264D01*
X79433705Y-52053570D01*
X79433703Y-52053571D01*
X79427675Y-52056255D01*
X79422334Y-52060135D01*
X79422333Y-52060136D01*
X79414532Y-52065804D01*
X79273174Y-52168507D01*
X79268753Y-52173417D01*
X79268752Y-52173418D01*
X79213999Y-52234228D01*
X79145387Y-52310429D01*
X79049900Y-52475817D01*
X78990885Y-52657445D01*
X78990195Y-52664006D01*
X78990195Y-52664008D01*
X78981198Y-52749614D01*
X78970923Y-52847373D01*
X62230000Y-52847373D01*
X62230000Y-49885600D01*
X69800096Y-49885600D01*
X69800786Y-49892165D01*
X69818485Y-50060558D01*
X69820058Y-50075528D01*
X69879073Y-50257156D01*
X69974560Y-50422544D01*
X70102347Y-50564466D01*
X70118729Y-50576368D01*
X70245017Y-50668122D01*
X70256848Y-50676718D01*
X70262876Y-50679402D01*
X70262878Y-50679403D01*
X70389836Y-50735928D01*
X70431312Y-50754394D01*
X70437767Y-50755766D01*
X70437770Y-50755767D01*
X70493267Y-50767563D01*
X70528531Y-50775058D01*
X70591004Y-50808786D01*
X70622167Y-50859369D01*
X70641073Y-50917556D01*
X70736560Y-51082944D01*
X70740978Y-51087851D01*
X70740979Y-51087852D01*
X70818906Y-51174399D01*
X70864347Y-51224866D01*
X71018848Y-51337118D01*
X71024876Y-51339802D01*
X71024878Y-51339803D01*
X71149736Y-51395393D01*
X71193312Y-51414794D01*
X71286713Y-51434647D01*
X71373656Y-51453128D01*
X71373661Y-51453128D01*
X71380113Y-51454500D01*
X71571087Y-51454500D01*
X71577539Y-51453128D01*
X71577544Y-51453128D01*
X71664488Y-51434647D01*
X71757888Y-51414794D01*
X71801464Y-51395393D01*
X71926322Y-51339803D01*
X71926324Y-51339802D01*
X71932352Y-51337118D01*
X72086853Y-51224866D01*
X72132294Y-51174399D01*
X72210221Y-51087852D01*
X72210222Y-51087851D01*
X72214640Y-51082944D01*
X72310127Y-50917556D01*
X72369142Y-50735928D01*
X72377411Y-50657258D01*
X72388414Y-50552565D01*
X72389104Y-50546000D01*
X72376644Y-50427452D01*
X72369832Y-50362635D01*
X72369832Y-50362633D01*
X72369142Y-50356072D01*
X72310127Y-50174444D01*
X72214640Y-50009056D01*
X72086853Y-49867134D01*
X71932352Y-49754882D01*
X71926324Y-49752198D01*
X71926322Y-49752197D01*
X71763919Y-49679891D01*
X71763918Y-49679891D01*
X71757888Y-49677206D01*
X71751433Y-49675834D01*
X71751430Y-49675833D01*
X71695933Y-49664037D01*
X71660669Y-49656542D01*
X71598196Y-49622814D01*
X71567033Y-49572231D01*
X71550169Y-49520329D01*
X71548127Y-49514044D01*
X71452640Y-49348656D01*
X71324853Y-49206734D01*
X71170352Y-49094482D01*
X71164324Y-49091798D01*
X71164322Y-49091797D01*
X71001919Y-49019491D01*
X71001918Y-49019491D01*
X70995888Y-49016806D01*
X70902488Y-48996953D01*
X70815544Y-48978472D01*
X70815539Y-48978472D01*
X70809087Y-48977100D01*
X70618113Y-48977100D01*
X70611661Y-48978472D01*
X70611656Y-48978472D01*
X70524712Y-48996953D01*
X70431312Y-49016806D01*
X70425282Y-49019491D01*
X70425281Y-49019491D01*
X70262878Y-49091797D01*
X70262876Y-49091798D01*
X70256848Y-49094482D01*
X70102347Y-49206734D01*
X69974560Y-49348656D01*
X69879073Y-49514044D01*
X69820058Y-49695672D01*
X69800096Y-49885600D01*
X62230000Y-49885600D01*
X62230000Y-45086230D01*
X62250002Y-45018109D01*
X62303658Y-44971616D01*
X62373932Y-44961512D01*
X62438512Y-44991006D01*
X62459840Y-45014863D01*
X62640733Y-45278064D01*
X62640739Y-45278071D01*
X62642790Y-45281056D01*
X62751030Y-45405134D01*
X62813750Y-45477031D01*
X62870866Y-45542505D01*
X62955940Y-45619916D01*
X63083268Y-45735775D01*
X63127481Y-45776006D01*
X63409233Y-45978466D01*
X63712388Y-46147200D01*
X64032928Y-46279972D01*
X64036422Y-46280967D01*
X64036424Y-46280968D01*
X64363103Y-46374025D01*
X64363108Y-46374026D01*
X64366604Y-46375022D01*
X64563304Y-46407233D01*
X64705412Y-46430504D01*
X64705419Y-46430505D01*
X64708993Y-46431090D01*
X64882276Y-46439262D01*
X65051931Y-46447263D01*
X65051932Y-46447263D01*
X65055558Y-46447434D01*
X65064415Y-46446830D01*
X65398073Y-46424084D01*
X65398081Y-46424083D01*
X65401704Y-46423836D01*
X65405279Y-46423173D01*
X65405282Y-46423173D01*
X65739279Y-46361270D01*
X65739283Y-46361269D01*
X65742844Y-46360609D01*
X66074456Y-46258592D01*
X66392145Y-46119136D01*
X66636511Y-45976341D01*
X66688560Y-45945926D01*
X66688562Y-45945925D01*
X66691700Y-45944091D01*
X66792915Y-45868097D01*
X66966244Y-45737958D01*
X66966248Y-45737955D01*
X66969151Y-45735775D01*
X67220819Y-45496950D01*
X67297589Y-45405134D01*
X71158500Y-45405134D01*
X71165255Y-45467316D01*
X71216385Y-45603705D01*
X71303739Y-45720261D01*
X71420295Y-45807615D01*
X71556684Y-45858745D01*
X71618866Y-45865500D01*
X73415134Y-45865500D01*
X73477316Y-45858745D01*
X73613705Y-45807615D01*
X73730261Y-45720261D01*
X73817615Y-45603705D01*
X73839799Y-45544529D01*
X73861598Y-45486382D01*
X73904240Y-45429618D01*
X73970802Y-45404918D01*
X74040150Y-45420126D01*
X74074817Y-45448114D01*
X74103250Y-45480938D01*
X74275126Y-45623632D01*
X74468000Y-45736338D01*
X74676692Y-45816030D01*
X74681760Y-45817061D01*
X74681763Y-45817062D01*
X74776862Y-45836410D01*
X74895597Y-45860567D01*
X74900772Y-45860757D01*
X74900774Y-45860757D01*
X75113673Y-45868564D01*
X75113677Y-45868564D01*
X75118837Y-45868753D01*
X75123957Y-45868097D01*
X75123959Y-45868097D01*
X75335288Y-45841025D01*
X75335289Y-45841025D01*
X75340416Y-45840368D01*
X75345366Y-45838883D01*
X75549429Y-45777661D01*
X75549434Y-45777659D01*
X75554384Y-45776174D01*
X75754994Y-45677896D01*
X75936860Y-45548173D01*
X75945294Y-45539769D01*
X76080616Y-45404918D01*
X76095096Y-45390489D01*
X76225453Y-45209077D01*
X76226776Y-45210028D01*
X76273645Y-45166857D01*
X76343580Y-45154625D01*
X76409026Y-45182144D01*
X76436875Y-45213994D01*
X76496987Y-45312088D01*
X76643250Y-45480938D01*
X76815126Y-45623632D01*
X77008000Y-45736338D01*
X77216692Y-45816030D01*
X77221760Y-45817061D01*
X77221763Y-45817062D01*
X77316862Y-45836410D01*
X77435597Y-45860567D01*
X77440772Y-45860757D01*
X77440774Y-45860757D01*
X77653673Y-45868564D01*
X77653677Y-45868564D01*
X77658837Y-45868753D01*
X77663957Y-45868097D01*
X77663959Y-45868097D01*
X77875288Y-45841025D01*
X77875289Y-45841025D01*
X77880416Y-45840368D01*
X77885366Y-45838883D01*
X78089429Y-45777661D01*
X78089434Y-45777659D01*
X78094384Y-45776174D01*
X78294994Y-45677896D01*
X78476860Y-45548173D01*
X78485294Y-45539769D01*
X78620616Y-45404918D01*
X78635096Y-45390489D01*
X78765453Y-45209077D01*
X78766640Y-45209930D01*
X78813960Y-45166362D01*
X78883897Y-45154145D01*
X78949338Y-45181678D01*
X78977166Y-45213511D01*
X79034694Y-45307388D01*
X79040777Y-45315699D01*
X79180213Y-45476667D01*
X79187580Y-45483883D01*
X79351434Y-45619916D01*
X79359881Y-45625831D01*
X79543756Y-45733279D01*
X79553042Y-45737729D01*
X79752001Y-45813703D01*
X79761899Y-45816579D01*
X79865250Y-45837606D01*
X79879299Y-45836410D01*
X79883000Y-45826065D01*
X79883000Y-45825517D01*
X80391000Y-45825517D01*
X80395064Y-45839359D01*
X80408478Y-45841393D01*
X80415184Y-45840534D01*
X80425262Y-45838392D01*
X80629255Y-45777191D01*
X80638842Y-45773433D01*
X80830095Y-45679739D01*
X80838945Y-45674464D01*
X81012328Y-45550792D01*
X81020200Y-45544139D01*
X81171052Y-45393812D01*
X81177730Y-45385965D01*
X81302003Y-45213020D01*
X81307313Y-45204183D01*
X81401670Y-45013267D01*
X81405469Y-45003672D01*
X81467377Y-44799910D01*
X81469555Y-44789837D01*
X81470986Y-44778962D01*
X81468775Y-44764778D01*
X81455617Y-44761000D01*
X80409115Y-44761000D01*
X80393876Y-44765475D01*
X80392671Y-44766865D01*
X80391000Y-44774548D01*
X80391000Y-45825517D01*
X79883000Y-45825517D01*
X79883000Y-44234885D01*
X80391000Y-44234885D01*
X80395475Y-44250124D01*
X80396865Y-44251329D01*
X80404548Y-44253000D01*
X81455344Y-44253000D01*
X81468875Y-44249027D01*
X81470180Y-44239947D01*
X81428214Y-44072875D01*
X81424894Y-44063124D01*
X81339972Y-43867814D01*
X81335105Y-43858739D01*
X81219426Y-43679926D01*
X81213136Y-43671757D01*
X81069806Y-43514240D01*
X81062273Y-43507215D01*
X80895139Y-43375222D01*
X80886552Y-43369517D01*
X80700117Y-43266599D01*
X80690705Y-43262369D01*
X80489959Y-43191280D01*
X80479988Y-43188646D01*
X80408837Y-43175972D01*
X80395540Y-43177432D01*
X80391000Y-43191989D01*
X80391000Y-44234885D01*
X79883000Y-44234885D01*
X79883000Y-43190102D01*
X79879082Y-43176758D01*
X79864806Y-43174771D01*
X79826324Y-43180660D01*
X79816288Y-43183051D01*
X79613868Y-43249212D01*
X79604359Y-43253209D01*
X79415463Y-43351542D01*
X79406738Y-43357036D01*
X79236433Y-43484905D01*
X79228726Y-43491748D01*
X79081590Y-43645717D01*
X79075109Y-43653722D01*
X78970498Y-43807074D01*
X78915587Y-43852076D01*
X78845062Y-43860247D01*
X78781315Y-43828993D01*
X78760618Y-43804509D01*
X78679822Y-43679617D01*
X78679820Y-43679614D01*
X78677014Y-43675277D01*
X78526670Y-43510051D01*
X78522619Y-43506852D01*
X78522615Y-43506848D01*
X78355414Y-43374800D01*
X78355410Y-43374798D01*
X78351359Y-43371598D01*
X78315028Y-43351542D01*
X78286366Y-43335720D01*
X78155789Y-43263638D01*
X78150920Y-43261914D01*
X78150916Y-43261912D01*
X77950087Y-43190795D01*
X77950083Y-43190794D01*
X77945212Y-43189069D01*
X77940119Y-43188162D01*
X77940116Y-43188161D01*
X77730373Y-43150800D01*
X77730367Y-43150799D01*
X77725284Y-43149894D01*
X77651452Y-43148992D01*
X77507081Y-43147228D01*
X77507079Y-43147228D01*
X77501911Y-43147165D01*
X77281091Y-43180955D01*
X77068756Y-43250357D01*
X76995757Y-43288358D01*
X76890845Y-43342972D01*
X76870607Y-43353507D01*
X76866474Y-43356610D01*
X76866471Y-43356612D01*
X76714817Y-43470477D01*
X76691965Y-43487635D01*
X76688393Y-43491373D01*
X76580729Y-43604037D01*
X76537629Y-43649138D01*
X76430201Y-43806621D01*
X76375293Y-43851621D01*
X76304768Y-43859792D01*
X76241021Y-43828538D01*
X76220324Y-43804054D01*
X76139822Y-43679617D01*
X76139820Y-43679614D01*
X76137014Y-43675277D01*
X75986670Y-43510051D01*
X75982619Y-43506852D01*
X75982615Y-43506848D01*
X75815414Y-43374800D01*
X75815410Y-43374798D01*
X75811359Y-43371598D01*
X75775028Y-43351542D01*
X75746366Y-43335720D01*
X75615789Y-43263638D01*
X75610920Y-43261914D01*
X75610916Y-43261912D01*
X75410087Y-43190795D01*
X75410083Y-43190794D01*
X75405212Y-43189069D01*
X75400119Y-43188162D01*
X75400116Y-43188161D01*
X75190373Y-43150800D01*
X75190367Y-43150799D01*
X75185284Y-43149894D01*
X75111452Y-43148992D01*
X74967081Y-43147228D01*
X74967079Y-43147228D01*
X74961911Y-43147165D01*
X74741091Y-43180955D01*
X74528756Y-43250357D01*
X74455757Y-43288358D01*
X74350845Y-43342972D01*
X74330607Y-43353507D01*
X74326474Y-43356610D01*
X74326471Y-43356612D01*
X74174817Y-43470477D01*
X74151965Y-43487635D01*
X74095537Y-43546684D01*
X74071283Y-43572064D01*
X74009759Y-43607494D01*
X73938846Y-43604037D01*
X73881060Y-43562791D01*
X73862207Y-43529243D01*
X73820767Y-43418703D01*
X73817615Y-43410295D01*
X73730261Y-43293739D01*
X73613705Y-43206385D01*
X73477316Y-43155255D01*
X73415134Y-43148500D01*
X71618866Y-43148500D01*
X71556684Y-43155255D01*
X71420295Y-43206385D01*
X71303739Y-43293739D01*
X71216385Y-43410295D01*
X71165255Y-43546684D01*
X71158500Y-43608866D01*
X71158500Y-45405134D01*
X67297589Y-45405134D01*
X67443370Y-45230783D01*
X67454399Y-45213994D01*
X67585202Y-45014863D01*
X67633853Y-44940799D01*
X67715248Y-44778962D01*
X67788117Y-44634080D01*
X67788120Y-44634072D01*
X67789744Y-44630844D01*
X67908977Y-44305026D01*
X67909822Y-44301504D01*
X67909825Y-44301496D01*
X67989124Y-43971191D01*
X67989125Y-43971187D01*
X67989971Y-43967662D01*
X68003958Y-43852076D01*
X68031316Y-43626004D01*
X68031316Y-43625997D01*
X68031652Y-43623225D01*
X68032104Y-43608866D01*
X68037511Y-43436797D01*
X68037599Y-43434000D01*
X68036717Y-43418703D01*
X68017836Y-43091246D01*
X68017835Y-43091241D01*
X68017627Y-43087626D01*
X67957976Y-42745842D01*
X67941379Y-42689809D01*
X67917482Y-42609137D01*
X67859437Y-42413180D01*
X67723316Y-42094048D01*
X67673569Y-42006831D01*
X67553208Y-41795816D01*
X67551417Y-41792676D01*
X67346018Y-41513060D01*
X67109842Y-41258904D01*
X66846019Y-41033578D01*
X66603455Y-40870582D01*
X66558070Y-40815986D01*
X66549407Y-40745520D01*
X66580215Y-40681556D01*
X66640714Y-40644403D01*
X66673731Y-40640000D01*
X85984380Y-40640000D01*
X86052501Y-40660002D01*
G37*
%TD.AperFunction*%
%TD*%
M02*
