%TF.GenerationSoftware,KiCad,Pcbnew,(6.0.2)*%
%TF.CreationDate,2022-06-16T18:16:31+10:00*%
%TF.ProjectId,RFM95_Serial_Converter_PCB,52464d39-355f-4536-9572-69616c5f436f,rev?*%
%TF.SameCoordinates,Original*%
%TF.FileFunction,Legend,Bot*%
%TF.FilePolarity,Positive*%
%FSLAX46Y46*%
G04 Gerber Fmt 4.6, Leading zero omitted, Abs format (unit mm)*
G04 Created by KiCad (PCBNEW (6.0.2)) date 2022-06-16 18:16:31*
%MOMM*%
%LPD*%
G01*
G04 APERTURE LIST*
%ADD10C,0.200000*%
%ADD11C,0.300000*%
%ADD12C,0.150000*%
%ADD13C,0.120000*%
G04 APERTURE END LIST*
D10*
X82483523Y-60033904D02*
X82483523Y-59233904D01*
X82293047Y-59233904D01*
X82178761Y-59272000D01*
X82102571Y-59348190D01*
X82064476Y-59424380D01*
X82026380Y-59576761D01*
X82026380Y-59691047D01*
X82064476Y-59843428D01*
X82102571Y-59919619D01*
X82178761Y-59995809D01*
X82293047Y-60033904D01*
X82483523Y-60033904D01*
X81378761Y-59995809D02*
X81454952Y-60033904D01*
X81607333Y-60033904D01*
X81683523Y-59995809D01*
X81721619Y-59919619D01*
X81721619Y-59614857D01*
X81683523Y-59538666D01*
X81607333Y-59500571D01*
X81454952Y-59500571D01*
X81378761Y-59538666D01*
X81340666Y-59614857D01*
X81340666Y-59691047D01*
X81721619Y-59767238D01*
X81035904Y-59995809D02*
X80959714Y-60033904D01*
X80807333Y-60033904D01*
X80731142Y-59995809D01*
X80693047Y-59919619D01*
X80693047Y-59881523D01*
X80731142Y-59805333D01*
X80807333Y-59767238D01*
X80921619Y-59767238D01*
X80997809Y-59729142D01*
X81035904Y-59652952D01*
X81035904Y-59614857D01*
X80997809Y-59538666D01*
X80921619Y-59500571D01*
X80807333Y-59500571D01*
X80731142Y-59538666D01*
X80350190Y-60033904D02*
X80350190Y-59500571D01*
X80350190Y-59233904D02*
X80388285Y-59272000D01*
X80350190Y-59310095D01*
X80312095Y-59272000D01*
X80350190Y-59233904D01*
X80350190Y-59310095D01*
X79626380Y-59500571D02*
X79626380Y-60148190D01*
X79664476Y-60224380D01*
X79702571Y-60262476D01*
X79778761Y-60300571D01*
X79893047Y-60300571D01*
X79969238Y-60262476D01*
X79626380Y-59995809D02*
X79702571Y-60033904D01*
X79854952Y-60033904D01*
X79931142Y-59995809D01*
X79969238Y-59957714D01*
X80007333Y-59881523D01*
X80007333Y-59652952D01*
X79969238Y-59576761D01*
X79931142Y-59538666D01*
X79854952Y-59500571D01*
X79702571Y-59500571D01*
X79626380Y-59538666D01*
X79245428Y-59500571D02*
X79245428Y-60033904D01*
X79245428Y-59576761D02*
X79207333Y-59538666D01*
X79131142Y-59500571D01*
X79016857Y-59500571D01*
X78940666Y-59538666D01*
X78902571Y-59614857D01*
X78902571Y-60033904D01*
X78216857Y-59995809D02*
X78293047Y-60033904D01*
X78445428Y-60033904D01*
X78521619Y-59995809D01*
X78559714Y-59919619D01*
X78559714Y-59614857D01*
X78521619Y-59538666D01*
X78445428Y-59500571D01*
X78293047Y-59500571D01*
X78216857Y-59538666D01*
X78178761Y-59614857D01*
X78178761Y-59691047D01*
X78559714Y-59767238D01*
X77493047Y-60033904D02*
X77493047Y-59233904D01*
X77493047Y-59995809D02*
X77569238Y-60033904D01*
X77721619Y-60033904D01*
X77797809Y-59995809D01*
X77835904Y-59957714D01*
X77874000Y-59881523D01*
X77874000Y-59652952D01*
X77835904Y-59576761D01*
X77797809Y-59538666D01*
X77721619Y-59500571D01*
X77569238Y-59500571D01*
X77493047Y-59538666D01*
X76502571Y-60033904D02*
X76502571Y-59233904D01*
X76502571Y-59538666D02*
X76426380Y-59500571D01*
X76274000Y-59500571D01*
X76197809Y-59538666D01*
X76159714Y-59576761D01*
X76121619Y-59652952D01*
X76121619Y-59881523D01*
X76159714Y-59957714D01*
X76197809Y-59995809D01*
X76274000Y-60033904D01*
X76426380Y-60033904D01*
X76502571Y-59995809D01*
X75854952Y-59500571D02*
X75664476Y-60033904D01*
X75474000Y-59500571D02*
X75664476Y-60033904D01*
X75740666Y-60224380D01*
X75778761Y-60262476D01*
X75854952Y-60300571D01*
X82521619Y-61093333D02*
X82140666Y-61093333D01*
X82597809Y-61321904D02*
X82331142Y-60521904D01*
X82064476Y-61321904D01*
X81797809Y-60788571D02*
X81797809Y-61321904D01*
X81797809Y-60864761D02*
X81759714Y-60826666D01*
X81683523Y-60788571D01*
X81569238Y-60788571D01*
X81493047Y-60826666D01*
X81454952Y-60902857D01*
X81454952Y-61321904D01*
X80731142Y-60788571D02*
X80731142Y-61436190D01*
X80769238Y-61512380D01*
X80807333Y-61550476D01*
X80883523Y-61588571D01*
X80997809Y-61588571D01*
X81074000Y-61550476D01*
X80731142Y-61283809D02*
X80807333Y-61321904D01*
X80959714Y-61321904D01*
X81035904Y-61283809D01*
X81074000Y-61245714D01*
X81112095Y-61169523D01*
X81112095Y-60940952D01*
X81074000Y-60864761D01*
X81035904Y-60826666D01*
X80959714Y-60788571D01*
X80807333Y-60788571D01*
X80731142Y-60826666D01*
X80007333Y-60788571D02*
X80007333Y-61321904D01*
X80350190Y-60788571D02*
X80350190Y-61207619D01*
X80312095Y-61283809D01*
X80235904Y-61321904D01*
X80121619Y-61321904D01*
X80045428Y-61283809D01*
X80007333Y-61245714D01*
X79664476Y-61283809D02*
X79588285Y-61321904D01*
X79435904Y-61321904D01*
X79359714Y-61283809D01*
X79321619Y-61207619D01*
X79321619Y-61169523D01*
X79359714Y-61093333D01*
X79435904Y-61055238D01*
X79550190Y-61055238D01*
X79626380Y-61017142D01*
X79664476Y-60940952D01*
X79664476Y-60902857D01*
X79626380Y-60826666D01*
X79550190Y-60788571D01*
X79435904Y-60788571D01*
X79359714Y-60826666D01*
X78369238Y-61321904D02*
X78369238Y-60521904D01*
X78102571Y-61093333D01*
X77835904Y-60521904D01*
X77835904Y-61321904D01*
X77112095Y-61283809D02*
X77188285Y-61321904D01*
X77340666Y-61321904D01*
X77416857Y-61283809D01*
X77454952Y-61245714D01*
X77493047Y-61169523D01*
X77493047Y-60940952D01*
X77454952Y-60864761D01*
X77416857Y-60826666D01*
X77340666Y-60788571D01*
X77188285Y-60788571D01*
X77112095Y-60826666D01*
X76388285Y-61321904D02*
X76769238Y-61321904D01*
X76769238Y-60521904D01*
X75816857Y-61283809D02*
X75893047Y-61321904D01*
X76045428Y-61321904D01*
X76121619Y-61283809D01*
X76159714Y-61207619D01*
X76159714Y-60902857D01*
X76121619Y-60826666D01*
X76045428Y-60788571D01*
X75893047Y-60788571D01*
X75816857Y-60826666D01*
X75778761Y-60902857D01*
X75778761Y-60979047D01*
X76159714Y-61055238D01*
X75435904Y-60788571D02*
X75435904Y-61321904D01*
X75435904Y-60864761D02*
X75397809Y-60826666D01*
X75321619Y-60788571D01*
X75207333Y-60788571D01*
X75131142Y-60826666D01*
X75093047Y-60902857D01*
X75093047Y-61321904D01*
X74712095Y-60788571D02*
X74712095Y-61321904D01*
X74712095Y-60864761D02*
X74674000Y-60826666D01*
X74597809Y-60788571D01*
X74483523Y-60788571D01*
X74407333Y-60826666D01*
X74369238Y-60902857D01*
X74369238Y-61321904D01*
X73645428Y-61321904D02*
X73645428Y-60902857D01*
X73683523Y-60826666D01*
X73759714Y-60788571D01*
X73912095Y-60788571D01*
X73988285Y-60826666D01*
X73645428Y-61283809D02*
X73721619Y-61321904D01*
X73912095Y-61321904D01*
X73988285Y-61283809D01*
X74026380Y-61207619D01*
X74026380Y-61131428D01*
X73988285Y-61055238D01*
X73912095Y-61017142D01*
X73721619Y-61017142D01*
X73645428Y-60979047D01*
X73264476Y-60788571D02*
X73264476Y-61321904D01*
X73264476Y-60864761D02*
X73226380Y-60826666D01*
X73150190Y-60788571D01*
X73035904Y-60788571D01*
X72959714Y-60826666D01*
X72921619Y-60902857D01*
X72921619Y-61321904D01*
X82254952Y-61809904D02*
X82254952Y-62381333D01*
X82293047Y-62495619D01*
X82369238Y-62571809D01*
X82483523Y-62609904D01*
X82559714Y-62609904D01*
X81531142Y-62076571D02*
X81531142Y-62609904D01*
X81874000Y-62076571D02*
X81874000Y-62495619D01*
X81835904Y-62571809D01*
X81759714Y-62609904D01*
X81645428Y-62609904D01*
X81569238Y-62571809D01*
X81531142Y-62533714D01*
X81150190Y-62076571D02*
X81150190Y-62609904D01*
X81150190Y-62152761D02*
X81112095Y-62114666D01*
X81035904Y-62076571D01*
X80921619Y-62076571D01*
X80845428Y-62114666D01*
X80807333Y-62190857D01*
X80807333Y-62609904D01*
X79854952Y-61886095D02*
X79816857Y-61848000D01*
X79740666Y-61809904D01*
X79550190Y-61809904D01*
X79474000Y-61848000D01*
X79435904Y-61886095D01*
X79397809Y-61962285D01*
X79397809Y-62038476D01*
X79435904Y-62152761D01*
X79893047Y-62609904D01*
X79397809Y-62609904D01*
X78902571Y-61809904D02*
X78826380Y-61809904D01*
X78750190Y-61848000D01*
X78712095Y-61886095D01*
X78674000Y-61962285D01*
X78635904Y-62114666D01*
X78635904Y-62305142D01*
X78674000Y-62457523D01*
X78712095Y-62533714D01*
X78750190Y-62571809D01*
X78826380Y-62609904D01*
X78902571Y-62609904D01*
X78978761Y-62571809D01*
X79016857Y-62533714D01*
X79054952Y-62457523D01*
X79093047Y-62305142D01*
X79093047Y-62114666D01*
X79054952Y-61962285D01*
X79016857Y-61886095D01*
X78978761Y-61848000D01*
X78902571Y-61809904D01*
X78331142Y-61886095D02*
X78293047Y-61848000D01*
X78216857Y-61809904D01*
X78026380Y-61809904D01*
X77950190Y-61848000D01*
X77912095Y-61886095D01*
X77874000Y-61962285D01*
X77874000Y-62038476D01*
X77912095Y-62152761D01*
X78369238Y-62609904D01*
X77874000Y-62609904D01*
X77569238Y-61886095D02*
X77531142Y-61848000D01*
X77454952Y-61809904D01*
X77264476Y-61809904D01*
X77188285Y-61848000D01*
X77150190Y-61886095D01*
X77112095Y-61962285D01*
X77112095Y-62038476D01*
X77150190Y-62152761D01*
X77607333Y-62609904D01*
X77112095Y-62609904D01*
D11*
X83200000Y-49164761D02*
X83866666Y-48212380D01*
X84342857Y-49164761D02*
X84342857Y-47164761D01*
X83580952Y-47164761D01*
X83390476Y-47260000D01*
X83295238Y-47355238D01*
X83200000Y-47545714D01*
X83200000Y-47831428D01*
X83295238Y-48021904D01*
X83390476Y-48117142D01*
X83580952Y-48212380D01*
X84342857Y-48212380D01*
X81676190Y-48117142D02*
X82342857Y-48117142D01*
X82342857Y-49164761D02*
X82342857Y-47164761D01*
X81390476Y-47164761D01*
X80628571Y-49164761D02*
X80628571Y-47164761D01*
X79961904Y-48593333D01*
X79295238Y-47164761D01*
X79295238Y-49164761D01*
X78247619Y-49164761D02*
X77866666Y-49164761D01*
X77676190Y-49069523D01*
X77580952Y-48974285D01*
X77390476Y-48688571D01*
X77295238Y-48307619D01*
X77295238Y-47545714D01*
X77390476Y-47355238D01*
X77485714Y-47260000D01*
X77676190Y-47164761D01*
X78057142Y-47164761D01*
X78247619Y-47260000D01*
X78342857Y-47355238D01*
X78438095Y-47545714D01*
X78438095Y-48021904D01*
X78342857Y-48212380D01*
X78247619Y-48307619D01*
X78057142Y-48402857D01*
X77676190Y-48402857D01*
X77485714Y-48307619D01*
X77390476Y-48212380D01*
X77295238Y-48021904D01*
X75485714Y-47164761D02*
X76438095Y-47164761D01*
X76533333Y-48117142D01*
X76438095Y-48021904D01*
X76247619Y-47926666D01*
X75771428Y-47926666D01*
X75580952Y-48021904D01*
X75485714Y-48117142D01*
X75390476Y-48307619D01*
X75390476Y-48783809D01*
X75485714Y-48974285D01*
X75580952Y-49069523D01*
X75771428Y-49164761D01*
X76247619Y-49164761D01*
X76438095Y-49069523D01*
X76533333Y-48974285D01*
X73200000Y-47164761D02*
X71961904Y-47164761D01*
X72628571Y-47926666D01*
X72342857Y-47926666D01*
X72152380Y-48021904D01*
X72057142Y-48117142D01*
X71961904Y-48307619D01*
X71961904Y-48783809D01*
X72057142Y-48974285D01*
X72152380Y-49069523D01*
X72342857Y-49164761D01*
X72914285Y-49164761D01*
X73104761Y-49069523D01*
X73200000Y-48974285D01*
X71104761Y-49164761D02*
X71104761Y-47164761D01*
X70628571Y-47164761D01*
X70342857Y-47260000D01*
X70152380Y-47450476D01*
X70057142Y-47640952D01*
X69961904Y-48021904D01*
X69961904Y-48307619D01*
X70057142Y-48688571D01*
X70152380Y-48879047D01*
X70342857Y-49069523D01*
X70628571Y-49164761D01*
X71104761Y-49164761D01*
X67961904Y-49164761D02*
X68628571Y-48212380D01*
X69104761Y-49164761D02*
X69104761Y-47164761D01*
X68342857Y-47164761D01*
X68152380Y-47260000D01*
X68057142Y-47355238D01*
X67961904Y-47545714D01*
X67961904Y-47831428D01*
X68057142Y-48021904D01*
X68152380Y-48117142D01*
X68342857Y-48212380D01*
X69104761Y-48212380D01*
D12*
%TO.C,U5*%
X78233180Y-55270495D02*
X79042704Y-55270495D01*
X79137942Y-55318114D01*
X79185561Y-55365733D01*
X79233180Y-55460971D01*
X79233180Y-55651447D01*
X79185561Y-55746685D01*
X79137942Y-55794304D01*
X79042704Y-55841923D01*
X78233180Y-55841923D01*
X78233180Y-56794304D02*
X78233180Y-56318114D01*
X78709371Y-56270495D01*
X78661752Y-56318114D01*
X78614133Y-56413352D01*
X78614133Y-56651447D01*
X78661752Y-56746685D01*
X78709371Y-56794304D01*
X78804609Y-56841923D01*
X79042704Y-56841923D01*
X79137942Y-56794304D01*
X79185561Y-56746685D01*
X79233180Y-56651447D01*
X79233180Y-56413352D01*
X79185561Y-56318114D01*
X79137942Y-56270495D01*
%TO.C,AE1*%
X74493666Y-80506166D02*
X74017476Y-80506166D01*
X74588904Y-80791880D02*
X74255571Y-79791880D01*
X73922238Y-80791880D01*
X73588904Y-80268071D02*
X73255571Y-80268071D01*
X73112714Y-80791880D02*
X73588904Y-80791880D01*
X73588904Y-79791880D01*
X73112714Y-79791880D01*
X72160333Y-80791880D02*
X72731761Y-80791880D01*
X72446047Y-80791880D02*
X72446047Y-79791880D01*
X72541285Y-79934738D01*
X72636523Y-80029976D01*
X72731761Y-80077595D01*
%TO.C,U1*%
X76098304Y-61880380D02*
X76098304Y-62689904D01*
X76050685Y-62785142D01*
X76003066Y-62832761D01*
X75907828Y-62880380D01*
X75717352Y-62880380D01*
X75622114Y-62832761D01*
X75574495Y-62785142D01*
X75526876Y-62689904D01*
X75526876Y-61880380D01*
X74526876Y-62880380D02*
X75098304Y-62880380D01*
X74812590Y-62880380D02*
X74812590Y-61880380D01*
X74907828Y-62023238D01*
X75003066Y-62118476D01*
X75098304Y-62166095D01*
D13*
%TO.C,U5*%
X77590800Y-57917400D02*
X77590800Y-58642400D01*
X72370800Y-58642400D02*
X73095800Y-58642400D01*
X77590800Y-53422400D02*
X76865800Y-53422400D01*
X77590800Y-54147400D02*
X77590800Y-53422400D01*
X72370800Y-54147400D02*
X72370800Y-53422400D01*
X72370800Y-57917400D02*
X72370800Y-58642400D01*
X72370800Y-53422400D02*
X73095800Y-53422400D01*
%TO.C,AE1*%
X76327000Y-81089500D02*
X76077000Y-80589500D01*
X76577000Y-80589500D02*
X76327000Y-81089500D01*
X76077000Y-80589500D02*
X76577000Y-80589500D01*
%TO.C,U1*%
X67236400Y-63528000D02*
X67236400Y-63928000D01*
X67236400Y-79728000D02*
X67236400Y-79328000D01*
X83436400Y-79328000D02*
X83436400Y-79728000D01*
X83436400Y-63878000D02*
X84336400Y-63878000D01*
X83436400Y-63528000D02*
X67236400Y-63528000D01*
X83436400Y-63528000D02*
X83436400Y-63878000D01*
X83436400Y-79728000D02*
X67236400Y-79728000D01*
%TD*%
M02*
