M48
; DRILL file {KiCad (6.0.2)} date Wed Jun 15 17:14:15 2022
; FORMAT={-:-/ absolute / inch / decimal}
; #@! TF.CreationDate,2022-06-15T17:14:15+10:00
; #@! TF.GenerationSoftware,Kicad,Pcbnew,(6.0.2)
; #@! TF.FileFunction,Plated,1,4,PTH
FMAT,2
INCH
; #@! TA.AperFunction,Plated,PTH,ViaDrill
T1C0.0157
; #@! TA.AperFunction,Plated,PTH,ComponentDrill
T2C0.0236
; #@! TA.AperFunction,Plated,PTH,ComponentDrill
T3C0.0335
; #@! TA.AperFunction,Plated,PTH,ComponentDrill
T4C0.0394
; #@! TA.AperFunction,Plated,PTH,ComponentDrill
T5C0.0984
%
G90
G05
T1
X2.47Y-2.45
X2.48Y-2.57
X2.4878Y-2.7091
X2.5Y-2.28
X2.5Y-2.85
X2.5Y-2.89
X2.5Y-2.93
X2.5Y-2.97
X2.5Y-3.01
X2.5Y-3.05
X2.5Y-3.09
X2.54Y-2.28
X2.5601Y-2.8103
X2.57Y-2.64
X2.582Y-2.1636
X2.582Y-2.2012
X2.582Y-2.2388
X2.582Y-2.2764
X2.582Y-2.3141
X2.582Y-2.3517
X2.582Y-2.3893
X2.5967Y-2.7413
X2.6193Y-2.1636
X2.6193Y-2.201
X2.6193Y-2.2387
X2.6193Y-2.2763
X2.6193Y-2.314
X2.6193Y-2.3517
X2.6193Y-2.3893
X2.656Y-2.2387
X2.656Y-2.2763
X2.656Y-2.314
X2.656Y-2.3517
X2.6567Y-2.1636
X2.6567Y-2.201
X2.6567Y-2.3893
X2.694Y-2.1636
X2.694Y-2.2017
X2.694Y-2.2393
X2.694Y-2.277
X2.694Y-2.3147
X2.694Y-2.3523
X2.71Y-3.04
X2.714Y-2.84
X2.72Y-2.88
X2.74Y-2.22
X2.74Y-2.26
X2.74Y-2.3
X2.74Y-2.34
X2.76Y-3.24
X2.76Y-3.28
X2.76Y-3.32
X2.76Y-3.36
X2.7609Y-2.5742
X2.784Y-1.964
X2.814Y-1.99
X2.8372Y-2.295
X2.84Y-2.45
X2.848Y-2.798
X2.85Y-2.41
X2.86Y-2.67
X2.8657Y-2.3239
X2.906Y-3.164
X2.91Y-3.32
X2.91Y-3.36
X2.92Y-2.17
X2.92Y-2.54
X2.93Y-2.46
X2.93Y-2.678
X2.9331Y-2.9048
X2.97Y-2.55
X2.9815Y-2.826
X3.0073Y-2.7862
X3.01Y-2.54
X3.04Y-2.808
X3.0533Y-3.0039
X3.0557Y-2.4541
X3.0565Y-2.3964
X3.06Y-1.99
X3.0878Y-2.1516
X3.09Y-3.23
X3.09Y-3.27
X3.09Y-3.31
X3.09Y-3.35
X3.09Y-3.39
X3.0926Y-3.0058
X3.0962Y-2.2648
X3.0995Y-2.7495
X3.0998Y-2.6857
X3.1077Y-2.2075
X3.11Y-3.16
X3.1132Y-2.9344
X3.1287Y-2.2923
X3.1324Y-3.0052
X3.1389Y-2.69
X3.1451Y-2.0806
X3.1496Y-2.1877
X3.164Y-2.542
X3.1659Y-2.9845
X3.175Y-2.896
X3.1902Y-2.5714
X3.2Y-3.1
X3.2091Y-2.1224
X3.2098Y-3.0282
X3.2379Y-2.498
X3.2566Y-2.1182
X3.26Y-3.3
X3.27Y-3.35
X3.27Y-3.39
X3.272Y-2.082
X3.28Y-2.4728
X3.28Y-3.16
X3.31Y-3.23
X3.31Y-3.27
X3.31Y-3.31
X3.31Y-3.35
X3.31Y-3.39
X3.3111Y-2.497
X3.3145Y-2.3809
X3.3159Y-2.1614
X3.32Y-3.16
X3.3221Y-2.2218
X3.36Y-3.16
X3.3616Y-2.7484
X3.38Y-2.84
X3.4021Y-2.7415
X3.41Y-3.16
X3.4607Y-2.856
X3.53Y-3.04
X3.53Y-3.08
X3.5334Y-3.0006
X3.5334Y-2.8406
X3.5334Y-2.8806
X3.5334Y-2.92
X3.5334Y-2.9606
T3
X3.3807Y-2.0522
X3.3807Y-2.2491
X3.3807Y-2.4316
X3.3807Y-2.6284
T4
X2.855Y-1.7522
X2.955Y-1.7522
X3.055Y-1.7522
X3.155Y-1.7522
T5
X2.56Y-1.71
X2.56Y-3.3
X3.45Y-1.71
X3.45Y-3.3
T2
G00X3.4732Y-2.0128
M15
G01X3.5008Y-2.0128
M16
G05
G00X3.5008Y-2.2884
M15
G01X3.4732Y-2.2884
M16
G05
G00X3.4732Y-2.3922
M15
G01X3.5008Y-2.3922
M16
G05
G00X3.5008Y-2.6678
M15
G01X3.4732Y-2.6678
M16
G05
T0
M30
