%TF.GenerationSoftware,KiCad,Pcbnew,(6.0.2)*%
%TF.CreationDate,2022-06-16T18:16:31+10:00*%
%TF.ProjectId,RFM95_Serial_Converter_PCB,52464d39-355f-4536-9572-69616c5f436f,rev?*%
%TF.SameCoordinates,Original*%
%TF.FileFunction,Legend,Top*%
%TF.FilePolarity,Positive*%
%FSLAX46Y46*%
G04 Gerber Fmt 4.6, Leading zero omitted, Abs format (unit mm)*
G04 Created by KiCad (PCBNEW (6.0.2)) date 2022-06-16 18:16:31*
%MOMM*%
%LPD*%
G01*
G04 APERTURE LIST*
%ADD10C,0.300000*%
%ADD11C,0.150000*%
%ADD12C,0.120000*%
%ADD13C,0.127000*%
%ADD14C,0.200000*%
G04 APERTURE END LIST*
D10*
X72250800Y-73104457D02*
X72250800Y-73961600D01*
X72193657Y-74133028D01*
X72079371Y-74247314D01*
X71907942Y-74304457D01*
X71793657Y-74304457D01*
X73393657Y-74304457D02*
X72822228Y-74304457D01*
X72822228Y-73104457D01*
X74479371Y-74190171D02*
X74422228Y-74247314D01*
X74250800Y-74304457D01*
X74136514Y-74304457D01*
X73965085Y-74247314D01*
X73850800Y-74133028D01*
X73793657Y-74018742D01*
X73736514Y-73790171D01*
X73736514Y-73618742D01*
X73793657Y-73390171D01*
X73850800Y-73275885D01*
X73965085Y-73161600D01*
X74136514Y-73104457D01*
X74250800Y-73104457D01*
X74422228Y-73161600D01*
X74479371Y-73218742D01*
X75336514Y-73104457D02*
X75336514Y-73961600D01*
X75279371Y-74133028D01*
X75165085Y-74247314D01*
X74993657Y-74304457D01*
X74879371Y-74304457D01*
X76479371Y-74304457D02*
X75907942Y-74304457D01*
X75907942Y-73104457D01*
X77565085Y-74190171D02*
X77507942Y-74247314D01*
X77336514Y-74304457D01*
X77222228Y-74304457D01*
X77050800Y-74247314D01*
X76936514Y-74133028D01*
X76879371Y-74018742D01*
X76822228Y-73790171D01*
X76822228Y-73618742D01*
X76879371Y-73390171D01*
X76936514Y-73275885D01*
X77050800Y-73161600D01*
X77222228Y-73104457D01*
X77336514Y-73104457D01*
X77507942Y-73161600D01*
X77565085Y-73218742D01*
X78422228Y-73104457D02*
X78422228Y-73961600D01*
X78365085Y-74133028D01*
X78250800Y-74247314D01*
X78079371Y-74304457D01*
X77965085Y-74304457D01*
X79565085Y-74304457D02*
X78993657Y-74304457D01*
X78993657Y-73104457D01*
X80650800Y-74190171D02*
X80593657Y-74247314D01*
X80422228Y-74304457D01*
X80307942Y-74304457D01*
X80136514Y-74247314D01*
X80022228Y-74133028D01*
X79965085Y-74018742D01*
X79907942Y-73790171D01*
X79907942Y-73618742D01*
X79965085Y-73390171D01*
X80022228Y-73275885D01*
X80136514Y-73161600D01*
X80307942Y-73104457D01*
X80422228Y-73104457D01*
X80593657Y-73161600D01*
X80650800Y-73218742D01*
D11*
%TO.C,H3*%
X86868095Y-84323180D02*
X86868095Y-83323180D01*
X86868095Y-83799371D02*
X87439523Y-83799371D01*
X87439523Y-84323180D02*
X87439523Y-83323180D01*
X87820476Y-83323180D02*
X88439523Y-83323180D01*
X88106190Y-83704133D01*
X88249047Y-83704133D01*
X88344285Y-83751752D01*
X88391904Y-83799371D01*
X88439523Y-83894609D01*
X88439523Y-84132704D01*
X88391904Y-84227942D01*
X88344285Y-84275561D01*
X88249047Y-84323180D01*
X87963333Y-84323180D01*
X87868095Y-84275561D01*
X87820476Y-84227942D01*
%TO.C,C9*%
X81164133Y-81992742D02*
X81116514Y-82040361D01*
X80973657Y-82087980D01*
X80878419Y-82087980D01*
X80735561Y-82040361D01*
X80640323Y-81945123D01*
X80592704Y-81849885D01*
X80545085Y-81659409D01*
X80545085Y-81516552D01*
X80592704Y-81326076D01*
X80640323Y-81230838D01*
X80735561Y-81135600D01*
X80878419Y-81087980D01*
X80973657Y-81087980D01*
X81116514Y-81135600D01*
X81164133Y-81183219D01*
X81640323Y-82087980D02*
X81830800Y-82087980D01*
X81926038Y-82040361D01*
X81973657Y-81992742D01*
X82068895Y-81849885D01*
X82116514Y-81659409D01*
X82116514Y-81278457D01*
X82068895Y-81183219D01*
X82021276Y-81135600D01*
X81926038Y-81087980D01*
X81735561Y-81087980D01*
X81640323Y-81135600D01*
X81592704Y-81183219D01*
X81545085Y-81278457D01*
X81545085Y-81516552D01*
X81592704Y-81611790D01*
X81640323Y-81659409D01*
X81735561Y-81707028D01*
X81926038Y-81707028D01*
X82021276Y-81659409D01*
X82068895Y-81611790D01*
X82116514Y-81516552D01*
%TO.C,C5*%
X74525142Y-58586666D02*
X74572761Y-58634285D01*
X74620380Y-58777142D01*
X74620380Y-58872380D01*
X74572761Y-59015238D01*
X74477523Y-59110476D01*
X74382285Y-59158095D01*
X74191809Y-59205714D01*
X74048952Y-59205714D01*
X73858476Y-59158095D01*
X73763238Y-59110476D01*
X73668000Y-59015238D01*
X73620380Y-58872380D01*
X73620380Y-58777142D01*
X73668000Y-58634285D01*
X73715619Y-58586666D01*
X73620380Y-57681904D02*
X73620380Y-58158095D01*
X74096571Y-58205714D01*
X74048952Y-58158095D01*
X74001333Y-58062857D01*
X74001333Y-57824761D01*
X74048952Y-57729523D01*
X74096571Y-57681904D01*
X74191809Y-57634285D01*
X74429904Y-57634285D01*
X74525142Y-57681904D01*
X74572761Y-57729523D01*
X74620380Y-57824761D01*
X74620380Y-58062857D01*
X74572761Y-58158095D01*
X74525142Y-58205714D01*
%TO.C,C16*%
X63060342Y-68124342D02*
X63012723Y-68171961D01*
X62869866Y-68219580D01*
X62774628Y-68219580D01*
X62631771Y-68171961D01*
X62536533Y-68076723D01*
X62488914Y-67981485D01*
X62441295Y-67791009D01*
X62441295Y-67648152D01*
X62488914Y-67457676D01*
X62536533Y-67362438D01*
X62631771Y-67267200D01*
X62774628Y-67219580D01*
X62869866Y-67219580D01*
X63012723Y-67267200D01*
X63060342Y-67314819D01*
X64012723Y-68219580D02*
X63441295Y-68219580D01*
X63727009Y-68219580D02*
X63727009Y-67219580D01*
X63631771Y-67362438D01*
X63536533Y-67457676D01*
X63441295Y-67505295D01*
X64869866Y-67219580D02*
X64679390Y-67219580D01*
X64584152Y-67267200D01*
X64536533Y-67314819D01*
X64441295Y-67457676D01*
X64393676Y-67648152D01*
X64393676Y-68029104D01*
X64441295Y-68124342D01*
X64488914Y-68171961D01*
X64584152Y-68219580D01*
X64774628Y-68219580D01*
X64869866Y-68171961D01*
X64917485Y-68124342D01*
X64965104Y-68029104D01*
X64965104Y-67791009D01*
X64917485Y-67695771D01*
X64869866Y-67648152D01*
X64774628Y-67600533D01*
X64584152Y-67600533D01*
X64488914Y-67648152D01*
X64441295Y-67695771D01*
X64393676Y-67791009D01*
%TO.C,C2*%
X72637942Y-61025066D02*
X72685561Y-61072685D01*
X72733180Y-61215542D01*
X72733180Y-61310780D01*
X72685561Y-61453638D01*
X72590323Y-61548876D01*
X72495085Y-61596495D01*
X72304609Y-61644114D01*
X72161752Y-61644114D01*
X71971276Y-61596495D01*
X71876038Y-61548876D01*
X71780800Y-61453638D01*
X71733180Y-61310780D01*
X71733180Y-61215542D01*
X71780800Y-61072685D01*
X71828419Y-61025066D01*
X71828419Y-60644114D02*
X71780800Y-60596495D01*
X71733180Y-60501257D01*
X71733180Y-60263161D01*
X71780800Y-60167923D01*
X71828419Y-60120304D01*
X71923657Y-60072685D01*
X72018895Y-60072685D01*
X72161752Y-60120304D01*
X72733180Y-60691733D01*
X72733180Y-60072685D01*
%TO.C,U6*%
X75565095Y-71588380D02*
X75565095Y-72397904D01*
X75612714Y-72493142D01*
X75660333Y-72540761D01*
X75755571Y-72588380D01*
X75946047Y-72588380D01*
X76041285Y-72540761D01*
X76088904Y-72493142D01*
X76136523Y-72397904D01*
X76136523Y-71588380D01*
X77041285Y-71588380D02*
X76850809Y-71588380D01*
X76755571Y-71636000D01*
X76707952Y-71683619D01*
X76612714Y-71826476D01*
X76565095Y-72016952D01*
X76565095Y-72397904D01*
X76612714Y-72493142D01*
X76660333Y-72540761D01*
X76755571Y-72588380D01*
X76946047Y-72588380D01*
X77041285Y-72540761D01*
X77088904Y-72493142D01*
X77136523Y-72397904D01*
X77136523Y-72159809D01*
X77088904Y-72064571D01*
X77041285Y-72016952D01*
X76946047Y-71969333D01*
X76755571Y-71969333D01*
X76660333Y-72016952D01*
X76612714Y-72064571D01*
X76565095Y-72159809D01*
%TO.C,J1*%
X75993666Y-41189380D02*
X75993666Y-41903666D01*
X75946047Y-42046523D01*
X75850809Y-42141761D01*
X75707952Y-42189380D01*
X75612714Y-42189380D01*
X76993666Y-42189380D02*
X76422238Y-42189380D01*
X76707952Y-42189380D02*
X76707952Y-41189380D01*
X76612714Y-41332238D01*
X76517476Y-41427476D01*
X76422238Y-41475095D01*
%TO.C,C3*%
X70445333Y-62688742D02*
X70397714Y-62736361D01*
X70254857Y-62783980D01*
X70159619Y-62783980D01*
X70016761Y-62736361D01*
X69921523Y-62641123D01*
X69873904Y-62545885D01*
X69826285Y-62355409D01*
X69826285Y-62212552D01*
X69873904Y-62022076D01*
X69921523Y-61926838D01*
X70016761Y-61831600D01*
X70159619Y-61783980D01*
X70254857Y-61783980D01*
X70397714Y-61831600D01*
X70445333Y-61879219D01*
X70778666Y-61783980D02*
X71397714Y-61783980D01*
X71064380Y-62164933D01*
X71207238Y-62164933D01*
X71302476Y-62212552D01*
X71350095Y-62260171D01*
X71397714Y-62355409D01*
X71397714Y-62593504D01*
X71350095Y-62688742D01*
X71302476Y-62736361D01*
X71207238Y-62783980D01*
X70921523Y-62783980D01*
X70826285Y-62736361D01*
X70778666Y-62688742D01*
%TO.C,SW1*%
X78676666Y-50188761D02*
X78819523Y-50236380D01*
X79057619Y-50236380D01*
X79152857Y-50188761D01*
X79200476Y-50141142D01*
X79248095Y-50045904D01*
X79248095Y-49950666D01*
X79200476Y-49855428D01*
X79152857Y-49807809D01*
X79057619Y-49760190D01*
X78867142Y-49712571D01*
X78771904Y-49664952D01*
X78724285Y-49617333D01*
X78676666Y-49522095D01*
X78676666Y-49426857D01*
X78724285Y-49331619D01*
X78771904Y-49284000D01*
X78867142Y-49236380D01*
X79105238Y-49236380D01*
X79248095Y-49284000D01*
X79581428Y-49236380D02*
X79819523Y-50236380D01*
X80010000Y-49522095D01*
X80200476Y-50236380D01*
X80438571Y-49236380D01*
X81343333Y-50236380D02*
X80771904Y-50236380D01*
X81057619Y-50236380D02*
X81057619Y-49236380D01*
X80962380Y-49379238D01*
X80867142Y-49474476D01*
X80771904Y-49522095D01*
%TO.C,J5*%
X83671880Y-64595333D02*
X84386166Y-64595333D01*
X84529023Y-64642952D01*
X84624261Y-64738190D01*
X84671880Y-64881047D01*
X84671880Y-64976285D01*
X83671880Y-63642952D02*
X83671880Y-64119142D01*
X84148071Y-64166761D01*
X84100452Y-64119142D01*
X84052833Y-64023904D01*
X84052833Y-63785809D01*
X84100452Y-63690571D01*
X84148071Y-63642952D01*
X84243309Y-63595333D01*
X84481404Y-63595333D01*
X84576642Y-63642952D01*
X84624261Y-63690571D01*
X84671880Y-63785809D01*
X84671880Y-64023904D01*
X84624261Y-64119142D01*
X84576642Y-64166761D01*
%TO.C,C1*%
X75591942Y-61025066D02*
X75639561Y-61072685D01*
X75687180Y-61215542D01*
X75687180Y-61310780D01*
X75639561Y-61453638D01*
X75544323Y-61548876D01*
X75449085Y-61596495D01*
X75258609Y-61644114D01*
X75115752Y-61644114D01*
X74925276Y-61596495D01*
X74830038Y-61548876D01*
X74734800Y-61453638D01*
X74687180Y-61310780D01*
X74687180Y-61215542D01*
X74734800Y-61072685D01*
X74782419Y-61025066D01*
X75687180Y-60072685D02*
X75687180Y-60644114D01*
X75687180Y-60358400D02*
X74687180Y-60358400D01*
X74830038Y-60453638D01*
X74925276Y-60548876D01*
X74972895Y-60644114D01*
%TO.C,U2*%
X66294095Y-52864380D02*
X66294095Y-53673904D01*
X66341714Y-53769142D01*
X66389333Y-53816761D01*
X66484571Y-53864380D01*
X66675047Y-53864380D01*
X66770285Y-53816761D01*
X66817904Y-53769142D01*
X66865523Y-53673904D01*
X66865523Y-52864380D01*
X67294095Y-52959619D02*
X67341714Y-52912000D01*
X67436952Y-52864380D01*
X67675047Y-52864380D01*
X67770285Y-52912000D01*
X67817904Y-52959619D01*
X67865523Y-53054857D01*
X67865523Y-53150095D01*
X67817904Y-53292952D01*
X67246476Y-53864380D01*
X67865523Y-53864380D01*
%TO.C,J2*%
X64274380Y-75618933D02*
X64988666Y-75618933D01*
X65131523Y-75666552D01*
X65226761Y-75761790D01*
X65274380Y-75904647D01*
X65274380Y-75999885D01*
X64369619Y-75190361D02*
X64322000Y-75142742D01*
X64274380Y-75047504D01*
X64274380Y-74809409D01*
X64322000Y-74714171D01*
X64369619Y-74666552D01*
X64464857Y-74618933D01*
X64560095Y-74618933D01*
X64702952Y-74666552D01*
X65274380Y-75237980D01*
X65274380Y-74618933D01*
%TO.C,C12*%
X74032042Y-82145142D02*
X73984423Y-82192761D01*
X73841566Y-82240380D01*
X73746328Y-82240380D01*
X73603471Y-82192761D01*
X73508233Y-82097523D01*
X73460614Y-82002285D01*
X73412995Y-81811809D01*
X73412995Y-81668952D01*
X73460614Y-81478476D01*
X73508233Y-81383238D01*
X73603471Y-81288000D01*
X73746328Y-81240380D01*
X73841566Y-81240380D01*
X73984423Y-81288000D01*
X74032042Y-81335619D01*
X74984423Y-82240380D02*
X74412995Y-82240380D01*
X74698709Y-82240380D02*
X74698709Y-81240380D01*
X74603471Y-81383238D01*
X74508233Y-81478476D01*
X74412995Y-81526095D01*
X75365376Y-81335619D02*
X75412995Y-81288000D01*
X75508233Y-81240380D01*
X75746328Y-81240380D01*
X75841566Y-81288000D01*
X75889185Y-81335619D01*
X75936804Y-81430857D01*
X75936804Y-81526095D01*
X75889185Y-81668952D01*
X75317757Y-82240380D01*
X75936804Y-82240380D01*
%TO.C,C11*%
X80789542Y-65127142D02*
X80741923Y-65174761D01*
X80599066Y-65222380D01*
X80503828Y-65222380D01*
X80360971Y-65174761D01*
X80265733Y-65079523D01*
X80218114Y-64984285D01*
X80170495Y-64793809D01*
X80170495Y-64650952D01*
X80218114Y-64460476D01*
X80265733Y-64365238D01*
X80360971Y-64270000D01*
X80503828Y-64222380D01*
X80599066Y-64222380D01*
X80741923Y-64270000D01*
X80789542Y-64317619D01*
X81741923Y-65222380D02*
X81170495Y-65222380D01*
X81456209Y-65222380D02*
X81456209Y-64222380D01*
X81360971Y-64365238D01*
X81265733Y-64460476D01*
X81170495Y-64508095D01*
X82694304Y-65222380D02*
X82122876Y-65222380D01*
X82408590Y-65222380D02*
X82408590Y-64222380D01*
X82313352Y-64365238D01*
X82218114Y-64460476D01*
X82122876Y-64508095D01*
%TO.C,Y2*%
X63684209Y-66117790D02*
X63684209Y-66593980D01*
X63350876Y-65593980D02*
X63684209Y-66117790D01*
X64017542Y-65593980D01*
X64303257Y-65689219D02*
X64350876Y-65641600D01*
X64446114Y-65593980D01*
X64684209Y-65593980D01*
X64779447Y-65641600D01*
X64827066Y-65689219D01*
X64874685Y-65784457D01*
X64874685Y-65879695D01*
X64827066Y-66022552D01*
X64255638Y-66593980D01*
X64874685Y-66593980D01*
%TO.C,C14*%
X72696342Y-64600057D02*
X72743961Y-64647676D01*
X72791580Y-64790533D01*
X72791580Y-64885771D01*
X72743961Y-65028628D01*
X72648723Y-65123866D01*
X72553485Y-65171485D01*
X72363009Y-65219104D01*
X72220152Y-65219104D01*
X72029676Y-65171485D01*
X71934438Y-65123866D01*
X71839200Y-65028628D01*
X71791580Y-64885771D01*
X71791580Y-64790533D01*
X71839200Y-64647676D01*
X71886819Y-64600057D01*
X72791580Y-63647676D02*
X72791580Y-64219104D01*
X72791580Y-63933390D02*
X71791580Y-63933390D01*
X71934438Y-64028628D01*
X72029676Y-64123866D01*
X72077295Y-64219104D01*
X72124914Y-62790533D02*
X72791580Y-62790533D01*
X71743961Y-63028628D02*
X72458247Y-63266723D01*
X72458247Y-62647676D01*
%TO.C,C17*%
X62603142Y-62587142D02*
X62555523Y-62634761D01*
X62412666Y-62682380D01*
X62317428Y-62682380D01*
X62174571Y-62634761D01*
X62079333Y-62539523D01*
X62031714Y-62444285D01*
X61984095Y-62253809D01*
X61984095Y-62110952D01*
X62031714Y-61920476D01*
X62079333Y-61825238D01*
X62174571Y-61730000D01*
X62317428Y-61682380D01*
X62412666Y-61682380D01*
X62555523Y-61730000D01*
X62603142Y-61777619D01*
X63555523Y-62682380D02*
X62984095Y-62682380D01*
X63269809Y-62682380D02*
X63269809Y-61682380D01*
X63174571Y-61825238D01*
X63079333Y-61920476D01*
X62984095Y-61968095D01*
X63888857Y-61682380D02*
X64555523Y-61682380D01*
X64126952Y-62682380D01*
%TO.C,R5*%
X86754033Y-50947580D02*
X86420700Y-50471390D01*
X86182604Y-50947580D02*
X86182604Y-49947580D01*
X86563557Y-49947580D01*
X86658795Y-49995200D01*
X86706414Y-50042819D01*
X86754033Y-50138057D01*
X86754033Y-50280914D01*
X86706414Y-50376152D01*
X86658795Y-50423771D01*
X86563557Y-50471390D01*
X86182604Y-50471390D01*
X87658795Y-49947580D02*
X87182604Y-49947580D01*
X87134985Y-50423771D01*
X87182604Y-50376152D01*
X87277842Y-50328533D01*
X87515938Y-50328533D01*
X87611176Y-50376152D01*
X87658795Y-50423771D01*
X87706414Y-50519009D01*
X87706414Y-50757104D01*
X87658795Y-50852342D01*
X87611176Y-50899961D01*
X87515938Y-50947580D01*
X87277842Y-50947580D01*
X87182604Y-50899961D01*
X87134985Y-50852342D01*
%TO.C,C10*%
X77385942Y-82152742D02*
X77338323Y-82200361D01*
X77195466Y-82247980D01*
X77100228Y-82247980D01*
X76957371Y-82200361D01*
X76862133Y-82105123D01*
X76814514Y-82009885D01*
X76766895Y-81819409D01*
X76766895Y-81676552D01*
X76814514Y-81486076D01*
X76862133Y-81390838D01*
X76957371Y-81295600D01*
X77100228Y-81247980D01*
X77195466Y-81247980D01*
X77338323Y-81295600D01*
X77385942Y-81343219D01*
X78338323Y-82247980D02*
X77766895Y-82247980D01*
X78052609Y-82247980D02*
X78052609Y-81247980D01*
X77957371Y-81390838D01*
X77862133Y-81486076D01*
X77766895Y-81533695D01*
X78957371Y-81247980D02*
X79052609Y-81247980D01*
X79147847Y-81295600D01*
X79195466Y-81343219D01*
X79243085Y-81438457D01*
X79290704Y-81628933D01*
X79290704Y-81867028D01*
X79243085Y-82057504D01*
X79195466Y-82152742D01*
X79147847Y-82200361D01*
X79052609Y-82247980D01*
X78957371Y-82247980D01*
X78862133Y-82200361D01*
X78814514Y-82152742D01*
X78766895Y-82057504D01*
X78719276Y-81867028D01*
X78719276Y-81628933D01*
X78766895Y-81438457D01*
X78814514Y-81343219D01*
X78862133Y-81295600D01*
X78957371Y-81247980D01*
%TO.C,D1*%
X88844380Y-48998095D02*
X87844380Y-48998095D01*
X87844380Y-48760000D01*
X87892000Y-48617142D01*
X87987238Y-48521904D01*
X88082476Y-48474285D01*
X88272952Y-48426666D01*
X88415809Y-48426666D01*
X88606285Y-48474285D01*
X88701523Y-48521904D01*
X88796761Y-48617142D01*
X88844380Y-48760000D01*
X88844380Y-48998095D01*
X88844380Y-47474285D02*
X88844380Y-48045714D01*
X88844380Y-47760000D02*
X87844380Y-47760000D01*
X87987238Y-47855238D01*
X88082476Y-47950476D01*
X88130095Y-48045714D01*
%TO.C,J4*%
X83671880Y-54959333D02*
X84386166Y-54959333D01*
X84529023Y-55006952D01*
X84624261Y-55102190D01*
X84671880Y-55245047D01*
X84671880Y-55340285D01*
X84005214Y-54054571D02*
X84671880Y-54054571D01*
X83624261Y-54292666D02*
X84338547Y-54530761D01*
X84338547Y-53911714D01*
%TO.C,C6*%
X81214933Y-54001942D02*
X81167314Y-54049561D01*
X81024457Y-54097180D01*
X80929219Y-54097180D01*
X80786361Y-54049561D01*
X80691123Y-53954323D01*
X80643504Y-53859085D01*
X80595885Y-53668609D01*
X80595885Y-53525752D01*
X80643504Y-53335276D01*
X80691123Y-53240038D01*
X80786361Y-53144800D01*
X80929219Y-53097180D01*
X81024457Y-53097180D01*
X81167314Y-53144800D01*
X81214933Y-53192419D01*
X82072076Y-53097180D02*
X81881600Y-53097180D01*
X81786361Y-53144800D01*
X81738742Y-53192419D01*
X81643504Y-53335276D01*
X81595885Y-53525752D01*
X81595885Y-53906704D01*
X81643504Y-54001942D01*
X81691123Y-54049561D01*
X81786361Y-54097180D01*
X81976838Y-54097180D01*
X82072076Y-54049561D01*
X82119695Y-54001942D01*
X82167314Y-53906704D01*
X82167314Y-53668609D01*
X82119695Y-53573371D01*
X82072076Y-53525752D01*
X81976838Y-53478133D01*
X81786361Y-53478133D01*
X81691123Y-53525752D01*
X81643504Y-53573371D01*
X81595885Y-53668609D01*
%TO.C,Y1*%
X69165790Y-65652590D02*
X69641980Y-65652590D01*
X68641980Y-65985923D02*
X69165790Y-65652590D01*
X68641980Y-65319257D01*
X69641980Y-64462114D02*
X69641980Y-65033542D01*
X69641980Y-64747828D02*
X68641980Y-64747828D01*
X68784838Y-64843066D01*
X68880076Y-64938304D01*
X68927695Y-65033542D01*
%TO.C,R3*%
X77506533Y-59227980D02*
X77173200Y-58751790D01*
X76935104Y-59227980D02*
X76935104Y-58227980D01*
X77316057Y-58227980D01*
X77411295Y-58275600D01*
X77458914Y-58323219D01*
X77506533Y-58418457D01*
X77506533Y-58561314D01*
X77458914Y-58656552D01*
X77411295Y-58704171D01*
X77316057Y-58751790D01*
X76935104Y-58751790D01*
X77839866Y-58227980D02*
X78458914Y-58227980D01*
X78125580Y-58608933D01*
X78268438Y-58608933D01*
X78363676Y-58656552D01*
X78411295Y-58704171D01*
X78458914Y-58799409D01*
X78458914Y-59037504D01*
X78411295Y-59132742D01*
X78363676Y-59180361D01*
X78268438Y-59227980D01*
X77982723Y-59227980D01*
X77887485Y-59180361D01*
X77839866Y-59132742D01*
%TO.C,H2*%
X86868095Y-39568380D02*
X86868095Y-38568380D01*
X86868095Y-39044571D02*
X87439523Y-39044571D01*
X87439523Y-39568380D02*
X87439523Y-38568380D01*
X87868095Y-38663619D02*
X87915714Y-38616000D01*
X88010952Y-38568380D01*
X88249047Y-38568380D01*
X88344285Y-38616000D01*
X88391904Y-38663619D01*
X88439523Y-38758857D01*
X88439523Y-38854095D01*
X88391904Y-38996952D01*
X87820476Y-39568380D01*
X88439523Y-39568380D01*
%TO.C,C8*%
X84481942Y-82970666D02*
X84529561Y-83018285D01*
X84577180Y-83161142D01*
X84577180Y-83256380D01*
X84529561Y-83399238D01*
X84434323Y-83494476D01*
X84339085Y-83542095D01*
X84148609Y-83589714D01*
X84005752Y-83589714D01*
X83815276Y-83542095D01*
X83720038Y-83494476D01*
X83624800Y-83399238D01*
X83577180Y-83256380D01*
X83577180Y-83161142D01*
X83624800Y-83018285D01*
X83672419Y-82970666D01*
X84005752Y-82399238D02*
X83958133Y-82494476D01*
X83910514Y-82542095D01*
X83815276Y-82589714D01*
X83767657Y-82589714D01*
X83672419Y-82542095D01*
X83624800Y-82494476D01*
X83577180Y-82399238D01*
X83577180Y-82208761D01*
X83624800Y-82113523D01*
X83672419Y-82065904D01*
X83767657Y-82018285D01*
X83815276Y-82018285D01*
X83910514Y-82065904D01*
X83958133Y-82113523D01*
X84005752Y-82208761D01*
X84005752Y-82399238D01*
X84053371Y-82494476D01*
X84100990Y-82542095D01*
X84196228Y-82589714D01*
X84386704Y-82589714D01*
X84481942Y-82542095D01*
X84529561Y-82494476D01*
X84577180Y-82399238D01*
X84577180Y-82208761D01*
X84529561Y-82113523D01*
X84481942Y-82065904D01*
X84386704Y-82018285D01*
X84196228Y-82018285D01*
X84100990Y-82065904D01*
X84053371Y-82113523D01*
X84005752Y-82208761D01*
%TO.C,SW2*%
X69278666Y-50188761D02*
X69421523Y-50236380D01*
X69659619Y-50236380D01*
X69754857Y-50188761D01*
X69802476Y-50141142D01*
X69850095Y-50045904D01*
X69850095Y-49950666D01*
X69802476Y-49855428D01*
X69754857Y-49807809D01*
X69659619Y-49760190D01*
X69469142Y-49712571D01*
X69373904Y-49664952D01*
X69326285Y-49617333D01*
X69278666Y-49522095D01*
X69278666Y-49426857D01*
X69326285Y-49331619D01*
X69373904Y-49284000D01*
X69469142Y-49236380D01*
X69707238Y-49236380D01*
X69850095Y-49284000D01*
X70183428Y-49236380D02*
X70421523Y-50236380D01*
X70612000Y-49522095D01*
X70802476Y-50236380D01*
X71040571Y-49236380D01*
X71373904Y-49331619D02*
X71421523Y-49284000D01*
X71516761Y-49236380D01*
X71754857Y-49236380D01*
X71850095Y-49284000D01*
X71897714Y-49331619D01*
X71945333Y-49426857D01*
X71945333Y-49522095D01*
X71897714Y-49664952D01*
X71326285Y-50236380D01*
X71945333Y-50236380D01*
%TO.C,H4*%
X64262095Y-84119980D02*
X64262095Y-83119980D01*
X64262095Y-83596171D02*
X64833523Y-83596171D01*
X64833523Y-84119980D02*
X64833523Y-83119980D01*
X65738285Y-83453314D02*
X65738285Y-84119980D01*
X65500190Y-83072361D02*
X65262095Y-83786647D01*
X65881142Y-83786647D01*
%TO.C,R1*%
X76195180Y-58535866D02*
X75718990Y-58869200D01*
X76195180Y-59107295D02*
X75195180Y-59107295D01*
X75195180Y-58726342D01*
X75242800Y-58631104D01*
X75290419Y-58583485D01*
X75385657Y-58535866D01*
X75528514Y-58535866D01*
X75623752Y-58583485D01*
X75671371Y-58631104D01*
X75718990Y-58726342D01*
X75718990Y-59107295D01*
X76195180Y-57583485D02*
X76195180Y-58154914D01*
X76195180Y-57869200D02*
X75195180Y-57869200D01*
X75338038Y-57964438D01*
X75433276Y-58059676D01*
X75480895Y-58154914D01*
%TO.C,C7*%
X63900342Y-48274266D02*
X63947961Y-48321885D01*
X63995580Y-48464742D01*
X63995580Y-48559980D01*
X63947961Y-48702838D01*
X63852723Y-48798076D01*
X63757485Y-48845695D01*
X63567009Y-48893314D01*
X63424152Y-48893314D01*
X63233676Y-48845695D01*
X63138438Y-48798076D01*
X63043200Y-48702838D01*
X62995580Y-48559980D01*
X62995580Y-48464742D01*
X63043200Y-48321885D01*
X63090819Y-48274266D01*
X62995580Y-47940933D02*
X62995580Y-47274266D01*
X63995580Y-47702838D01*
%TO.C,R2*%
X86142533Y-49075580D02*
X85809200Y-48599390D01*
X85571104Y-49075580D02*
X85571104Y-48075580D01*
X85952057Y-48075580D01*
X86047295Y-48123200D01*
X86094914Y-48170819D01*
X86142533Y-48266057D01*
X86142533Y-48408914D01*
X86094914Y-48504152D01*
X86047295Y-48551771D01*
X85952057Y-48599390D01*
X85571104Y-48599390D01*
X86523485Y-48170819D02*
X86571104Y-48123200D01*
X86666342Y-48075580D01*
X86904438Y-48075580D01*
X86999676Y-48123200D01*
X87047295Y-48170819D01*
X87094914Y-48266057D01*
X87094914Y-48361295D01*
X87047295Y-48504152D01*
X86475866Y-49075580D01*
X87094914Y-49075580D01*
%TO.C,U3*%
X83972495Y-56805580D02*
X83972495Y-57615104D01*
X84020114Y-57710342D01*
X84067733Y-57757961D01*
X84162971Y-57805580D01*
X84353447Y-57805580D01*
X84448685Y-57757961D01*
X84496304Y-57710342D01*
X84543923Y-57615104D01*
X84543923Y-56805580D01*
X84924876Y-56805580D02*
X85543923Y-56805580D01*
X85210590Y-57186533D01*
X85353447Y-57186533D01*
X85448685Y-57234152D01*
X85496304Y-57281771D01*
X85543923Y-57377009D01*
X85543923Y-57615104D01*
X85496304Y-57710342D01*
X85448685Y-57757961D01*
X85353447Y-57805580D01*
X85067733Y-57805580D01*
X84972495Y-57757961D01*
X84924876Y-57710342D01*
%TO.C,C13*%
X70680342Y-82152742D02*
X70632723Y-82200361D01*
X70489866Y-82247980D01*
X70394628Y-82247980D01*
X70251771Y-82200361D01*
X70156533Y-82105123D01*
X70108914Y-82009885D01*
X70061295Y-81819409D01*
X70061295Y-81676552D01*
X70108914Y-81486076D01*
X70156533Y-81390838D01*
X70251771Y-81295600D01*
X70394628Y-81247980D01*
X70489866Y-81247980D01*
X70632723Y-81295600D01*
X70680342Y-81343219D01*
X71632723Y-82247980D02*
X71061295Y-82247980D01*
X71347009Y-82247980D02*
X71347009Y-81247980D01*
X71251771Y-81390838D01*
X71156533Y-81486076D01*
X71061295Y-81533695D01*
X71966057Y-81247980D02*
X72585104Y-81247980D01*
X72251771Y-81628933D01*
X72394628Y-81628933D01*
X72489866Y-81676552D01*
X72537485Y-81724171D01*
X72585104Y-81819409D01*
X72585104Y-82057504D01*
X72537485Y-82152742D01*
X72489866Y-82200361D01*
X72394628Y-82247980D01*
X72108914Y-82247980D01*
X72013676Y-82200361D01*
X71966057Y-82152742D01*
%TO.C,U4*%
X81026095Y-60513980D02*
X81026095Y-61323504D01*
X81073714Y-61418742D01*
X81121333Y-61466361D01*
X81216571Y-61513980D01*
X81407047Y-61513980D01*
X81502285Y-61466361D01*
X81549904Y-61418742D01*
X81597523Y-61323504D01*
X81597523Y-60513980D01*
X82502285Y-60847314D02*
X82502285Y-61513980D01*
X82264190Y-60466361D02*
X82026095Y-61180647D01*
X82645142Y-61180647D01*
%TO.C,C4*%
X72950342Y-58637466D02*
X72997961Y-58685085D01*
X73045580Y-58827942D01*
X73045580Y-58923180D01*
X72997961Y-59066038D01*
X72902723Y-59161276D01*
X72807485Y-59208895D01*
X72617009Y-59256514D01*
X72474152Y-59256514D01*
X72283676Y-59208895D01*
X72188438Y-59161276D01*
X72093200Y-59066038D01*
X72045580Y-58923180D01*
X72045580Y-58827942D01*
X72093200Y-58685085D01*
X72140819Y-58637466D01*
X72378914Y-57780323D02*
X73045580Y-57780323D01*
X71997961Y-58018419D02*
X72712247Y-58256514D01*
X72712247Y-57637466D01*
%TO.C,J3*%
X87487580Y-75615533D02*
X88201866Y-75615533D01*
X88344723Y-75663152D01*
X88439961Y-75758390D01*
X88487580Y-75901247D01*
X88487580Y-75996485D01*
X87487580Y-75234580D02*
X87487580Y-74615533D01*
X87868533Y-74948866D01*
X87868533Y-74806009D01*
X87916152Y-74710771D01*
X87963771Y-74663152D01*
X88059009Y-74615533D01*
X88297104Y-74615533D01*
X88392342Y-74663152D01*
X88439961Y-74710771D01*
X88487580Y-74806009D01*
X88487580Y-75091723D01*
X88439961Y-75186961D01*
X88392342Y-75234580D01*
%TO.C,C15*%
X66244742Y-63482457D02*
X66292361Y-63530076D01*
X66339980Y-63672933D01*
X66339980Y-63768171D01*
X66292361Y-63911028D01*
X66197123Y-64006266D01*
X66101885Y-64053885D01*
X65911409Y-64101504D01*
X65768552Y-64101504D01*
X65578076Y-64053885D01*
X65482838Y-64006266D01*
X65387600Y-63911028D01*
X65339980Y-63768171D01*
X65339980Y-63672933D01*
X65387600Y-63530076D01*
X65435219Y-63482457D01*
X66339980Y-62530076D02*
X66339980Y-63101504D01*
X66339980Y-62815790D02*
X65339980Y-62815790D01*
X65482838Y-62911028D01*
X65578076Y-63006266D01*
X65625695Y-63101504D01*
X65339980Y-61625314D02*
X65339980Y-62101504D01*
X65816171Y-62149123D01*
X65768552Y-62101504D01*
X65720933Y-62006266D01*
X65720933Y-61768171D01*
X65768552Y-61672933D01*
X65816171Y-61625314D01*
X65911409Y-61577695D01*
X66149504Y-61577695D01*
X66244742Y-61625314D01*
X66292361Y-61672933D01*
X66339980Y-61768171D01*
X66339980Y-62006266D01*
X66292361Y-62101504D01*
X66244742Y-62149123D01*
%TO.C,R4*%
X77557333Y-62275980D02*
X77224000Y-61799790D01*
X76985904Y-62275980D02*
X76985904Y-61275980D01*
X77366857Y-61275980D01*
X77462095Y-61323600D01*
X77509714Y-61371219D01*
X77557333Y-61466457D01*
X77557333Y-61609314D01*
X77509714Y-61704552D01*
X77462095Y-61752171D01*
X77366857Y-61799790D01*
X76985904Y-61799790D01*
X78414476Y-61609314D02*
X78414476Y-62275980D01*
X78176380Y-61228361D02*
X77938285Y-61942647D01*
X78557333Y-61942647D01*
%TO.C,H1*%
X64262095Y-39568380D02*
X64262095Y-38568380D01*
X64262095Y-39044571D02*
X64833523Y-39044571D01*
X64833523Y-39568380D02*
X64833523Y-38568380D01*
X65833523Y-39568380D02*
X65262095Y-39568380D01*
X65547809Y-39568380D02*
X65547809Y-38568380D01*
X65452571Y-38711238D01*
X65357333Y-38806476D01*
X65262095Y-38854095D01*
D12*
%TO.C,C9*%
X81235333Y-79855600D02*
X81527867Y-79855600D01*
X81235333Y-80875600D02*
X81527867Y-80875600D01*
%TO.C,C5*%
X74678000Y-56077067D02*
X74678000Y-55784533D01*
X73658000Y-56077067D02*
X73658000Y-55784533D01*
%TO.C,C16*%
X63575633Y-69127200D02*
X63868167Y-69127200D01*
X63575633Y-68107200D02*
X63868167Y-68107200D01*
%TO.C,C2*%
X74220800Y-61004667D02*
X74220800Y-60712133D01*
X73200800Y-61004667D02*
X73200800Y-60712133D01*
%TO.C,U6*%
X71217000Y-66975200D02*
X71217000Y-67925200D01*
X81437000Y-66975200D02*
X81437000Y-67925200D01*
X72167000Y-66975200D02*
X71217000Y-66975200D01*
X80487000Y-77195200D02*
X81437000Y-77195200D01*
X80487000Y-66975200D02*
X81437000Y-66975200D01*
X81437000Y-77195200D02*
X81437000Y-76245200D01*
X71217000Y-77195200D02*
X71217000Y-76245200D01*
X71217000Y-67925200D02*
X69877000Y-67925200D01*
X72167000Y-77195200D02*
X71217000Y-77195200D01*
%TO.C,J1*%
X72137000Y-40407000D02*
X72137000Y-34407000D01*
X71187000Y-43067000D02*
X81467000Y-43067000D01*
X79757000Y-43464071D02*
X79757000Y-43067000D01*
X72437000Y-40407000D02*
X72437000Y-34407000D01*
X73787000Y-43067000D02*
X73787000Y-40407000D01*
X72897000Y-34407000D02*
X72897000Y-40407000D01*
X81467000Y-43067000D02*
X81467000Y-40407000D01*
X72517000Y-45777000D02*
X71247000Y-45777000D01*
X72797000Y-40407000D02*
X72797000Y-34407000D01*
X72557000Y-40407000D02*
X72557000Y-34407000D01*
X81467000Y-40407000D02*
X71187000Y-40407000D01*
X74677000Y-40407000D02*
X74677000Y-34407000D01*
X75437000Y-34407000D02*
X75437000Y-40407000D01*
X77217000Y-43464071D02*
X77217000Y-43067000D01*
X74677000Y-34407000D02*
X75437000Y-34407000D01*
X80517000Y-34407000D02*
X80517000Y-40407000D01*
X72677000Y-40407000D02*
X72677000Y-34407000D01*
X80517000Y-43464071D02*
X80517000Y-43067000D01*
X76327000Y-43067000D02*
X76327000Y-40407000D01*
X72317000Y-40407000D02*
X72317000Y-34407000D01*
X71247000Y-45777000D02*
X71247000Y-44507000D01*
X75437000Y-43464071D02*
X75437000Y-43067000D01*
X78867000Y-43067000D02*
X78867000Y-40407000D01*
X79757000Y-34407000D02*
X80517000Y-34407000D01*
X72197000Y-40407000D02*
X72197000Y-34407000D01*
X77977000Y-43464071D02*
X77977000Y-43067000D01*
X74677000Y-43464071D02*
X74677000Y-43067000D01*
X77217000Y-34407000D02*
X77977000Y-34407000D01*
X79757000Y-40407000D02*
X79757000Y-34407000D01*
X71187000Y-40407000D02*
X71187000Y-43067000D01*
X72137000Y-43397000D02*
X72137000Y-43067000D01*
X72897000Y-43397000D02*
X72897000Y-43067000D01*
X72137000Y-34407000D02*
X72897000Y-34407000D01*
X77217000Y-40407000D02*
X77217000Y-34407000D01*
X77977000Y-34407000D02*
X77977000Y-40407000D01*
%TO.C,C3*%
X67924633Y-62841600D02*
X68217167Y-62841600D01*
X67924633Y-61821600D02*
X68217167Y-61821600D01*
%TO.C,SW1*%
X83220000Y-50984000D02*
X83220000Y-48584000D01*
X76800000Y-48584000D02*
X76800000Y-50984000D01*
X83220000Y-46574000D02*
X76800000Y-46574000D01*
X76800000Y-46574000D02*
X76800000Y-46854000D01*
X83220000Y-46984000D02*
X83220000Y-46574000D01*
X76800000Y-52994000D02*
X83220000Y-52994000D01*
X83220000Y-52994000D02*
X83220000Y-52584000D01*
X76800000Y-52584000D02*
X76800000Y-52994000D01*
%TO.C,J5*%
X85569500Y-60362000D02*
X85569500Y-60812000D01*
X89969500Y-60362000D02*
X89719500Y-60362000D01*
X89969500Y-68162000D02*
X89719500Y-68162000D01*
X87419500Y-68162000D02*
X85569500Y-68162000D01*
X85019500Y-65962000D02*
X85469500Y-65962000D01*
X85569500Y-68162000D02*
X85569500Y-67712000D01*
X87419500Y-60362000D02*
X85569500Y-60362000D01*
X85019500Y-65962000D02*
X85019500Y-65512000D01*
%TO.C,C1*%
X74724800Y-61003567D02*
X74724800Y-60711033D01*
X75744800Y-61003567D02*
X75744800Y-60711033D01*
%TO.C,U2*%
X65206000Y-61322000D02*
X68966000Y-61322000D01*
X62956000Y-54502000D02*
X68966000Y-54502000D01*
X68966000Y-54502000D02*
X68966000Y-55762000D01*
X68966000Y-61322000D02*
X68966000Y-60062000D01*
D13*
%TO.C,J2*%
X62397000Y-71160600D02*
X62397000Y-79410600D01*
X66447000Y-69910600D02*
X66447000Y-71510600D01*
X66447000Y-69910600D02*
X65197000Y-69910600D01*
X66447000Y-80660600D02*
X65197000Y-80660600D01*
X66447000Y-80660600D02*
X66447000Y-79060600D01*
D14*
X66797000Y-69253100D02*
G75*
G03*
X66797000Y-69253100I-100000J0D01*
G01*
D12*
%TO.C,C12*%
X74528633Y-79855600D02*
X74821167Y-79855600D01*
X74528633Y-80875600D02*
X74821167Y-80875600D01*
%TO.C,C11*%
X81234233Y-63959200D02*
X81526767Y-63959200D01*
X81234233Y-62939200D02*
X81526767Y-62939200D01*
%TO.C,Y2*%
X62178000Y-64427200D02*
X62178000Y-67727200D01*
X62178000Y-67727200D02*
X66178000Y-67727200D01*
%TO.C,C14*%
X71630000Y-64724233D02*
X71630000Y-65016767D01*
X70610000Y-64724233D02*
X70610000Y-65016767D01*
%TO.C,C17*%
X63865967Y-63027200D02*
X63573433Y-63027200D01*
X63865967Y-64047200D02*
X63573433Y-64047200D01*
%TO.C,R5*%
X86716776Y-48753500D02*
X87226224Y-48753500D01*
X86716776Y-49798500D02*
X87226224Y-49798500D01*
%TO.C,C10*%
X78175067Y-79855600D02*
X77882533Y-79855600D01*
X78175067Y-80875600D02*
X77882533Y-80875600D01*
%TO.C,D1*%
X88927000Y-47460000D02*
X88927000Y-49920000D01*
X90397000Y-49920000D02*
X90397000Y-47460000D01*
X88927000Y-49920000D02*
X90397000Y-49920000D01*
%TO.C,J4*%
X89969500Y-50726000D02*
X89719500Y-50726000D01*
X87419500Y-50726000D02*
X85569500Y-50726000D01*
X85569500Y-58526000D02*
X85569500Y-58076000D01*
X85019500Y-56326000D02*
X85469500Y-56326000D01*
X87419500Y-58526000D02*
X85569500Y-58526000D01*
X85569500Y-50726000D02*
X85569500Y-51176000D01*
X89969500Y-58526000D02*
X89719500Y-58526000D01*
X85019500Y-56326000D02*
X85019500Y-55876000D01*
%TO.C,C6*%
X81234233Y-54354000D02*
X81526767Y-54354000D01*
X81234233Y-55374000D02*
X81526767Y-55374000D01*
%TO.C,Y1*%
X68263800Y-65902200D02*
X68263800Y-64552200D01*
X70013800Y-65902200D02*
X70013800Y-64552200D01*
%TO.C,R3*%
X77978724Y-59421500D02*
X77469276Y-59421500D01*
X77978724Y-60466500D02*
X77469276Y-60466500D01*
%TO.C,C8*%
X83314000Y-83001067D02*
X83314000Y-82708533D01*
X82294000Y-83001067D02*
X82294000Y-82708533D01*
%TO.C,SW2*%
X67402000Y-52584000D02*
X67402000Y-52994000D01*
X73822000Y-46574000D02*
X67402000Y-46574000D01*
X67402000Y-52994000D02*
X73822000Y-52994000D01*
X67402000Y-46574000D02*
X67402000Y-46854000D01*
X67402000Y-48584000D02*
X67402000Y-50984000D01*
X73822000Y-46984000D02*
X73822000Y-46574000D01*
X73822000Y-52994000D02*
X73822000Y-52584000D01*
X73822000Y-50984000D02*
X73822000Y-48584000D01*
%TO.C,R1*%
X75220300Y-56185524D02*
X75220300Y-55676076D01*
X76265300Y-56185524D02*
X76265300Y-55676076D01*
%TO.C,C7*%
X64463200Y-48253867D02*
X64463200Y-47961333D01*
X65483200Y-48253867D02*
X65483200Y-47961333D01*
%TO.C,R2*%
X86563924Y-47715700D02*
X86054476Y-47715700D01*
X86563924Y-46670700D02*
X86054476Y-46670700D01*
%TO.C,U3*%
X81788000Y-55844000D02*
X80988000Y-55844000D01*
X81788000Y-58964000D02*
X83588000Y-58964000D01*
X81788000Y-58964000D02*
X80988000Y-58964000D01*
X81788000Y-55844000D02*
X82588000Y-55844000D01*
%TO.C,C13*%
X71469467Y-79855600D02*
X71176933Y-79855600D01*
X71469467Y-80875600D02*
X71176933Y-80875600D01*
%TO.C,U4*%
X81788000Y-62520000D02*
X80988000Y-62520000D01*
X81788000Y-59400000D02*
X82588000Y-59400000D01*
X81788000Y-62520000D02*
X83588000Y-62520000D01*
X81788000Y-59400000D02*
X80988000Y-59400000D01*
%TO.C,C4*%
X73103200Y-56077067D02*
X73103200Y-55784533D01*
X72083200Y-56077067D02*
X72083200Y-55784533D01*
D13*
%TO.C,J3*%
X86207000Y-69910600D02*
X86207000Y-71510600D01*
X86207000Y-80660600D02*
X87457000Y-80660600D01*
X90257000Y-79410600D02*
X90257000Y-71160600D01*
X86207000Y-80660600D02*
X86207000Y-79060600D01*
X86207000Y-69910600D02*
X87457000Y-69910600D01*
D14*
X86057000Y-81318100D02*
G75*
G03*
X86057000Y-81318100I-100000J0D01*
G01*
D12*
%TO.C,C15*%
X67667600Y-65017867D02*
X67667600Y-64725333D01*
X66647600Y-65017867D02*
X66647600Y-64725333D01*
%TO.C,R4*%
X77978724Y-62295300D02*
X77469276Y-62295300D01*
X77978724Y-61250300D02*
X77469276Y-61250300D01*
%TD*%
M02*
