%TF.GenerationSoftware,KiCad,Pcbnew,(6.0.2)*%
%TF.CreationDate,2022-06-15T17:14:16+10:00*%
%TF.ProjectId,RFM95_Serial_Converter_PCB,52464d39-355f-4536-9572-69616c5f436f,rev?*%
%TF.SameCoordinates,Original*%
%TF.FileFunction,Paste,Top*%
%TF.FilePolarity,Positive*%
%FSLAX46Y46*%
G04 Gerber Fmt 4.6, Leading zero omitted, Abs format (unit mm)*
G04 Created by KiCad (PCBNEW (6.0.2)) date 2022-06-15 17:14:16*
%MOMM*%
%LPD*%
G01*
G04 APERTURE LIST*
G04 Aperture macros list*
%AMRoundRect*
0 Rectangle with rounded corners*
0 $1 Rounding radius*
0 $2 $3 $4 $5 $6 $7 $8 $9 X,Y pos of 4 corners*
0 Add a 4 corners polygon primitive as box body*
4,1,4,$2,$3,$4,$5,$6,$7,$8,$9,$2,$3,0*
0 Add four circle primitives for the rounded corners*
1,1,$1+$1,$2,$3*
1,1,$1+$1,$4,$5*
1,1,$1+$1,$6,$7*
1,1,$1+$1,$8,$9*
0 Add four rect primitives between the rounded corners*
20,1,$1+$1,$2,$3,$4,$5,0*
20,1,$1+$1,$4,$5,$6,$7,0*
20,1,$1+$1,$6,$7,$8,$9,0*
20,1,$1+$1,$8,$9,$2,$3,0*%
G04 Aperture macros list end*
%ADD10RoundRect,0.075000X-0.700000X-0.075000X0.700000X-0.075000X0.700000X0.075000X-0.700000X0.075000X0*%
%ADD11RoundRect,0.075000X-0.075000X-0.700000X0.075000X-0.700000X0.075000X0.700000X-0.075000X0.700000X0*%
%ADD12RoundRect,0.237500X-0.300000X-0.237500X0.300000X-0.237500X0.300000X0.237500X-0.300000X0.237500X0*%
%ADD13RoundRect,0.237500X0.237500X-0.300000X0.237500X0.300000X-0.237500X0.300000X-0.237500X-0.300000X0*%
%ADD14R,2.800000X1.000000*%
%ADD15R,1.350000X0.400000*%
%ADD16R,1.900000X1.500000*%
%ADD17R,2.000000X1.500000*%
%ADD18R,2.000000X3.800000*%
%ADD19R,2.700000X1.000000*%
%ADD20R,1.700000X0.600000*%
%ADD21R,1.400000X1.200000*%
%ADD22RoundRect,0.237500X-0.237500X0.300000X-0.237500X-0.300000X0.237500X-0.300000X0.237500X0.300000X0*%
%ADD23RoundRect,0.237500X0.300000X0.237500X-0.300000X0.237500X-0.300000X-0.237500X0.300000X-0.237500X0*%
%ADD24RoundRect,0.237500X-0.250000X-0.237500X0.250000X-0.237500X0.250000X0.237500X-0.250000X0.237500X0*%
%ADD25RoundRect,0.237500X-0.287500X-0.237500X0.287500X-0.237500X0.287500X0.237500X-0.287500X0.237500X0*%
%ADD26R,1.800000X1.000000*%
%ADD27RoundRect,0.237500X0.250000X0.237500X-0.250000X0.237500X-0.250000X-0.237500X0.250000X-0.237500X0*%
%ADD28RoundRect,0.237500X0.237500X-0.250000X0.237500X0.250000X-0.237500X0.250000X-0.237500X-0.250000X0*%
%ADD29RoundRect,0.150000X0.512500X0.150000X-0.512500X0.150000X-0.512500X-0.150000X0.512500X-0.150000X0*%
%ADD30R,1.500000X5.080000*%
G04 APERTURE END LIST*
D10*
%TO.C,U6*%
X70652000Y-68335200D03*
X70652000Y-68835200D03*
X70652000Y-69335200D03*
X70652000Y-69835200D03*
X70652000Y-70335200D03*
X70652000Y-70835200D03*
X70652000Y-71335200D03*
X70652000Y-71835200D03*
X70652000Y-72335200D03*
X70652000Y-72835200D03*
X70652000Y-73335200D03*
X70652000Y-73835200D03*
X70652000Y-74335200D03*
X70652000Y-74835200D03*
X70652000Y-75335200D03*
X70652000Y-75835200D03*
D11*
X72577000Y-77760200D03*
X73077000Y-77760200D03*
X73577000Y-77760200D03*
X74077000Y-77760200D03*
X74577000Y-77760200D03*
X75077000Y-77760200D03*
X75577000Y-77760200D03*
X76077000Y-77760200D03*
X76577000Y-77760200D03*
X77077000Y-77760200D03*
X77577000Y-77760200D03*
X78077000Y-77760200D03*
X78577000Y-77760200D03*
X79077000Y-77760200D03*
X79577000Y-77760200D03*
X80077000Y-77760200D03*
D10*
X82002000Y-75835200D03*
X82002000Y-75335200D03*
X82002000Y-74835200D03*
X82002000Y-74335200D03*
X82002000Y-73835200D03*
X82002000Y-73335200D03*
X82002000Y-72835200D03*
X82002000Y-72335200D03*
X82002000Y-71835200D03*
X82002000Y-71335200D03*
X82002000Y-70835200D03*
X82002000Y-70335200D03*
X82002000Y-69835200D03*
X82002000Y-69335200D03*
X82002000Y-68835200D03*
X82002000Y-68335200D03*
D11*
X80077000Y-66410200D03*
X79577000Y-66410200D03*
X79077000Y-66410200D03*
X78577000Y-66410200D03*
X78077000Y-66410200D03*
X77577000Y-66410200D03*
X77077000Y-66410200D03*
X76577000Y-66410200D03*
X76077000Y-66410200D03*
X75577000Y-66410200D03*
X75077000Y-66410200D03*
X74577000Y-66410200D03*
X74077000Y-66410200D03*
X73577000Y-66410200D03*
X73077000Y-66410200D03*
X72577000Y-66410200D03*
%TD*%
D12*
%TO.C,C9*%
X80519100Y-80365600D03*
X82244100Y-80365600D03*
%TD*%
D13*
%TO.C,C5*%
X74168000Y-56793300D03*
X74168000Y-55068300D03*
%TD*%
D12*
%TO.C,C16*%
X62859400Y-68617200D03*
X64584400Y-68617200D03*
%TD*%
D13*
%TO.C,C2*%
X73710800Y-61720900D03*
X73710800Y-59995900D03*
%TD*%
D12*
%TO.C,C3*%
X67208400Y-62331600D03*
X68933400Y-62331600D03*
%TD*%
D14*
%TO.C,SW1*%
X82910000Y-51784000D03*
X77110000Y-51784000D03*
X82910000Y-47784000D03*
X77110000Y-47784000D03*
%TD*%
D15*
%TO.C,J5*%
X85869500Y-65562000D03*
X85869500Y-64912000D03*
X85869500Y-64262000D03*
X85869500Y-63612000D03*
X85869500Y-62962000D03*
D16*
X88569500Y-63262000D03*
X88569500Y-65262000D03*
%TD*%
D13*
%TO.C,C1*%
X75234800Y-61719800D03*
X75234800Y-59994800D03*
%TD*%
D17*
%TO.C,U2*%
X63906000Y-55612000D03*
X63906000Y-57912000D03*
D18*
X70206000Y-57912000D03*
D17*
X63906000Y-60212000D03*
%TD*%
D19*
%TO.C,J2*%
X63497000Y-80260600D03*
X63497000Y-70310600D03*
D20*
X66697000Y-78410600D03*
X66697000Y-77160600D03*
X66697000Y-75910600D03*
X66697000Y-74660600D03*
X66697000Y-73410600D03*
X66697000Y-72160600D03*
%TD*%
D12*
%TO.C,C12*%
X73812400Y-80365600D03*
X75537400Y-80365600D03*
%TD*%
%TO.C,C11*%
X80518000Y-63449200D03*
X82243000Y-63449200D03*
%TD*%
D21*
%TO.C,Y2*%
X63078000Y-66927200D03*
X65278000Y-66927200D03*
X65278000Y-65227200D03*
X63078000Y-65227200D03*
%TD*%
D22*
%TO.C,C14*%
X71120000Y-64008000D03*
X71120000Y-65733000D03*
%TD*%
D23*
%TO.C,C17*%
X64582200Y-63537200D03*
X62857200Y-63537200D03*
%TD*%
D24*
%TO.C,R5*%
X73407900Y-63398400D03*
X75232900Y-63398400D03*
%TD*%
D23*
%TO.C,C10*%
X78891300Y-80365600D03*
X77166300Y-80365600D03*
%TD*%
D25*
%TO.C,D1*%
X76939200Y-63398400D03*
X78689200Y-63398400D03*
%TD*%
D15*
%TO.C,J4*%
X85869500Y-55926000D03*
X85869500Y-55276000D03*
X85869500Y-54626000D03*
X85869500Y-53976000D03*
X85869500Y-53326000D03*
D16*
X88569500Y-53626000D03*
X88569500Y-55626000D03*
%TD*%
D12*
%TO.C,C6*%
X80518000Y-54864000D03*
X82243000Y-54864000D03*
%TD*%
D26*
%TO.C,Y1*%
X69138800Y-63977200D03*
X69138800Y-66477200D03*
%TD*%
D27*
%TO.C,R3*%
X78636500Y-59944000D03*
X76811500Y-59944000D03*
%TD*%
D13*
%TO.C,C8*%
X82804000Y-83717300D03*
X82804000Y-81992300D03*
%TD*%
D14*
%TO.C,SW2*%
X67712000Y-51784000D03*
X73512000Y-51784000D03*
X67712000Y-47784000D03*
X73512000Y-47784000D03*
%TD*%
D28*
%TO.C,R1*%
X75742800Y-56843300D03*
X75742800Y-55018300D03*
%TD*%
D13*
%TO.C,C7*%
X64973200Y-48970100D03*
X64973200Y-47245100D03*
%TD*%
D27*
%TO.C,R2*%
X87221700Y-47193200D03*
X85396700Y-47193200D03*
%TD*%
D29*
%TO.C,U3*%
X82925500Y-58354000D03*
X82925500Y-57404000D03*
X82925500Y-56454000D03*
X80650500Y-56454000D03*
X80650500Y-57404000D03*
X80650500Y-58354000D03*
%TD*%
D23*
%TO.C,C13*%
X72185700Y-80365600D03*
X70460700Y-80365600D03*
%TD*%
D29*
%TO.C,U4*%
X82925500Y-61910000D03*
X82925500Y-60960000D03*
X82925500Y-60010000D03*
X80650500Y-60010000D03*
X80650500Y-60960000D03*
X80650500Y-61910000D03*
%TD*%
D13*
%TO.C,C4*%
X72593200Y-56793300D03*
X72593200Y-55068300D03*
%TD*%
D20*
%TO.C,J3*%
X85957000Y-78410600D03*
X85957000Y-77160600D03*
X85957000Y-75910600D03*
X85957000Y-74660600D03*
X85957000Y-73410600D03*
X85957000Y-72160600D03*
D19*
X89157000Y-80260600D03*
X89157000Y-70310600D03*
%TD*%
D13*
%TO.C,C15*%
X67157600Y-65734100D03*
X67157600Y-64009100D03*
%TD*%
D27*
%TO.C,R4*%
X78636500Y-61772800D03*
X76811500Y-61772800D03*
%TD*%
D30*
%TO.C,AE1*%
X80577000Y-84299500D03*
X72077000Y-84299500D03*
%TD*%
M02*
