%TF.GenerationSoftware,KiCad,Pcbnew,(6.0.2)*%
%TF.CreationDate,2022-06-15T17:14:16+10:00*%
%TF.ProjectId,RFM95_Serial_Converter_PCB,52464d39-355f-4536-9572-69616c5f436f,rev?*%
%TF.SameCoordinates,Original*%
%TF.FileFunction,Legend,Bot*%
%TF.FilePolarity,Positive*%
%FSLAX46Y46*%
G04 Gerber Fmt 4.6, Leading zero omitted, Abs format (unit mm)*
G04 Created by KiCad (PCBNEW (6.0.2)) date 2022-06-15 17:14:16*
%MOMM*%
%LPD*%
G01*
G04 APERTURE LIST*
%ADD10C,0.150000*%
%ADD11C,0.120000*%
G04 APERTURE END LIST*
D10*
%TO.C,U5*%
X78233180Y-55270495D02*
X79042704Y-55270495D01*
X79137942Y-55318114D01*
X79185561Y-55365733D01*
X79233180Y-55460971D01*
X79233180Y-55651447D01*
X79185561Y-55746685D01*
X79137942Y-55794304D01*
X79042704Y-55841923D01*
X78233180Y-55841923D01*
X78233180Y-56794304D02*
X78233180Y-56318114D01*
X78709371Y-56270495D01*
X78661752Y-56318114D01*
X78614133Y-56413352D01*
X78614133Y-56651447D01*
X78661752Y-56746685D01*
X78709371Y-56794304D01*
X78804609Y-56841923D01*
X79042704Y-56841923D01*
X79137942Y-56794304D01*
X79185561Y-56746685D01*
X79233180Y-56651447D01*
X79233180Y-56413352D01*
X79185561Y-56318114D01*
X79137942Y-56270495D01*
%TO.C,AE1*%
X74493666Y-80506166D02*
X74017476Y-80506166D01*
X74588904Y-80791880D02*
X74255571Y-79791880D01*
X73922238Y-80791880D01*
X73588904Y-80268071D02*
X73255571Y-80268071D01*
X73112714Y-80791880D02*
X73588904Y-80791880D01*
X73588904Y-79791880D01*
X73112714Y-79791880D01*
X72160333Y-80791880D02*
X72731761Y-80791880D01*
X72446047Y-80791880D02*
X72446047Y-79791880D01*
X72541285Y-79934738D01*
X72636523Y-80029976D01*
X72731761Y-80077595D01*
%TO.C,U1*%
X76098304Y-61880380D02*
X76098304Y-62689904D01*
X76050685Y-62785142D01*
X76003066Y-62832761D01*
X75907828Y-62880380D01*
X75717352Y-62880380D01*
X75622114Y-62832761D01*
X75574495Y-62785142D01*
X75526876Y-62689904D01*
X75526876Y-61880380D01*
X74526876Y-62880380D02*
X75098304Y-62880380D01*
X74812590Y-62880380D02*
X74812590Y-61880380D01*
X74907828Y-62023238D01*
X75003066Y-62118476D01*
X75098304Y-62166095D01*
D11*
%TO.C,U5*%
X77590800Y-57917400D02*
X77590800Y-58642400D01*
X72370800Y-58642400D02*
X73095800Y-58642400D01*
X77590800Y-53422400D02*
X76865800Y-53422400D01*
X77590800Y-54147400D02*
X77590800Y-53422400D01*
X72370800Y-54147400D02*
X72370800Y-53422400D01*
X72370800Y-57917400D02*
X72370800Y-58642400D01*
X72370800Y-53422400D02*
X73095800Y-53422400D01*
%TO.C,AE1*%
X76327000Y-81089500D02*
X76077000Y-80589500D01*
X76577000Y-80589500D02*
X76327000Y-81089500D01*
X76077000Y-80589500D02*
X76577000Y-80589500D01*
%TO.C,U1*%
X67236400Y-63528000D02*
X67236400Y-63928000D01*
X67236400Y-79728000D02*
X67236400Y-79328000D01*
X83436400Y-79328000D02*
X83436400Y-79728000D01*
X83436400Y-63878000D02*
X84336400Y-63878000D01*
X83436400Y-63528000D02*
X67236400Y-63528000D01*
X83436400Y-63528000D02*
X83436400Y-63878000D01*
X83436400Y-79728000D02*
X67236400Y-79728000D01*
%TD*%
M02*
